<svg width="1920" height="409" viewBox="0 0 1920 409" fill="none" xmlns="http://www.w3.org/2000/svg">
<g clip-path="url(#clip0_2029_10198)">
<path d="M1784.48 175.766C1782.17 157.032 1768.07 140.277 1750.01 134.805C1731.94 129.333 1710.91 135.445 1698.6 149.751C1699.74 119.539 1679.6 89.714 1651.14 79.4899C1622.69 69.2657 1588.17 79.4464 1569.82 103.474C1531.16 71.1845 1457.93 87.5669 1436.04 132.933C1417.86 123.11 1394.07 124.797 1377.47 137.084C1371.36 122.262 1357.94 110.662 1342.39 106.759C1326.84 102.855 1309.54 106.743 1297.15 116.921C1298.54 93.7448 1283.05 70.5739 1261.1 62.9982C1239.15 55.4226 1200.1 61.5262 1186.89 80.6243C1186.12 67.9268 1176.73 56.2027 1164.51 52.6789C1152.29 49.155 1138.1 54.0808 1130.69 64.4198C1118.64 26.8455 1080.36 -0.620978 1040.91 0.0106755C1001.45 0.64233 964.065 29.3203 953.232 67.2615C913.718 50.6116 849.142 67.5472 831.576 106.662C823.664 94.1397 809.045 86.1509 794.233 86.2546C779.42 86.3582 764.915 94.5515 757.178 107.183C718.92 74.7461 646.812 71.6173 610.857 106.589C600.035 84.3736 577.515 68.2825 552.99 65.2447C528.465 62.2069 502.699 72.3162 486.784 91.221C471.55 58.8763 433.324 39.1368 398.133 45.4421C362.941 51.7475 333.946 83.5319 330.89 119.154C310.417 97.0641 273.751 92.2994 248.311 108.423C222.872 124.546 211.53 159.737 222.765 187.681C202.398 180.679 177.486 193.318 171.108 213.888C153.806 192.549 114.528 196.567 101.905 220.968C77.3181 189.634 39.3026 174.969 0 179.47V893.343H1920V167.043C1877.66 145.828 1823.44 148.357 1784.48 175.766Z" fill="white"/>
<g opacity="0.3">
<path d="M1504.72 193.103C1511.15 188.46 1519.79 187.056 1527.35 189.424C1534.91 191.792 1541.21 197.879 1543.83 205.355C1557.88 195.33 1576.43 191.882 1593.14 196.189C1609.85 200.496 1624.42 212.479 1631.87 228.045C1603.15 206.861 1564.99 206.059 1534.25 224.172C1534.68 217.472 1531.98 210.431 1527.3 205.616C1522.62 200.801 1511.43 192.855 1504.72 193.103Z" fill="#CBD7F9"/>
<path d="M1045.88 165.341C1067.47 154.368 1096.44 160.888 1111.25 180.054C1116.87 166.386 1130.9 156.607 1145.67 156.072C1160.44 155.537 1175.14 164.273 1181.73 177.498C1178.98 156.662 1192.7 135.614 1211.84 126.925C1230.98 118.236 1254.07 120.864 1272.55 130.869C1293.65 142.295 1309.44 163.112 1314.76 186.515C1326.83 180.423 1341.9 180.699 1353.74 187.232C1365.58 193.764 1373.85 206.367 1375.13 219.827C1369.46 208.162 1356.96 202.794 1344.14 200.84C1331.32 198.886 1317.67 203.601 1308.78 213.049C1302.93 196.701 1290.34 182.358 1276.3 172.144C1262.26 161.928 1243.69 157.315 1227 162.117C1210.31 166.92 1196.45 181.988 1195.23 199.309C1186.52 189.154 1174.95 182.273 1162.4 177.629C1151.97 173.767 1139.91 174.546 1130.06 179.718C1120.21 184.89 1112.73 194.374 1109.98 205.155C1105.7 194.115 1095.04 184.661 1085 178.381C1074.96 172.098 1057.69 164.364 1045.88 165.341Z" fill="#CBD7F9"/>
<path d="M738.175 171.934C748.15 148.716 773.604 133.127 798.82 134.793C824.036 136.458 847.218 155.26 854.052 179.588C863.729 171.228 878.558 169.43 889.953 175.234C901.348 181.038 908.613 194.088 907.541 206.832C902.803 194.868 891.698 188.809 878.922 187.27C866.146 185.732 852.741 191.671 845.299 202.169C839.178 182.639 821.356 166.949 801.677 161.328C781.996 155.703 753.689 158.584 738.175 171.934Z" fill="#CBD7F9"/>
<path d="M505.543 204.526C511.517 181.344 531.914 162.551 555.507 158.492C579.099 154.433 604.604 165.33 617.98 185.184C583.609 170.426 532.186 178.272 505.543 204.526Z" fill="#CBD7F9"/>
<path d="M263.554 223.31C269.313 213.326 280.076 206.401 291.55 205.3C303.023 204.2 314.907 208.952 322.459 217.659C332.775 197.729 353.577 183.618 375.908 181.4C398.24 179.181 421.411 188.925 435.446 206.436C416.743 196.673 394.07 195.376 374.165 202.373C354.26 209.372 337.516 224.897 329.039 244.218C322.368 233.642 311.857 227.943 299.896 224.296C287.938 220.651 274.991 218.257 263.554 223.31Z" fill="#CBD7F9"/>
</g>
<path d="M1920 850V306.481C1622.1 239.69 1297.58 203 958 203C618.419 203 297.896 239.69 0 306.481V850H1920Z" fill="#2D5EE6"/>
<path opacity="0.4" d="M1100.62 324.409C1074.83 307.217 1041.53 301.761 1011.6 309.824C992.946 314.849 975.945 324.734 960.217 335.95C956.073 338.906 951.836 342.036 946.865 343.126C941.892 344.215 935.924 342.635 933.579 338.117C931.232 333.6 934.943 326.744 939.968 327.562C941.671 313.837 955.379 305.347 967.685 299.037C982.866 291.253 1013.72 264.895 979.335 261.54C953.429 259.011 926.866 262.016 900.739 259.515C886.602 258.162 873.998 255.193 859.912 257.44C846.844 259.525 833.984 262.732 821.092 265.676C800.639 270.347 780.611 265.417 761.782 277.689C755.677 281.669 750.431 286.902 744.126 290.559C725.19 301.548 704.014 281.239 683.129 282.85C671.538 283.744 660.459 287.774 649.403 291.366C634.626 296.167 619.615 300.242 604.439 303.572C585.648 307.695 565.187 310.499 547.837 302.188C538.226 297.584 530.005 289.732 519.565 287.596C502.439 284.089 486.57 296.87 469.52 300.729C437.827 307.9 399.425 283.791 370.799 299.166C355.307 293.278 338.161 299.994 322.973 306.626C306.615 313.77 290.257 320.914 273.899 328.057C249.058 338.905 222.933 350.779 207.481 373.049C203.295 379.084 199.995 387.079 203.436 393.566C207.825 401.842 219.482 401.847 228.78 400.708C246.876 398.492 264.973 396.275 283.07 394.058C285.448 388.135 297.074 385.526 303.264 387.084C309.453 388.643 313.971 395.16 313.261 401.504C311.905 413.592 296.847 417.519 285.86 422.741C261.808 434.173 250.484 461.489 241.226 486.459C236.885 498.167 232.508 510.032 231.238 522.454C229.062 543.769 236.707 565.889 251.581 581.311C268.615 578.201 283.729 593.475 298.28 602.859C307.76 608.972 318.142 616.435 319.733 627.601C321.38 639.161 312.833 649.526 304.248 657.438C295.662 665.35 285.856 673.527 283.732 685.007C281.435 697.422 288.904 709.328 291.552 721.673C293.526 730.878 293.098 739.081 296.11 747.758C299.435 757.338 302.908 763.411 297.539 773.757C293.27 781.983 286.155 788.303 280.396 795.563C269.292 809.56 272.718 827.353 265.128 843.328C256.256 862.001 247.882 881.732 248.833 902.841C249.831 925.016 254.174 950.311 273.175 961.787C282.691 967.534 294.416 969.51 305.288 967.199C320.927 963.875 333.804 952.142 341.795 938.296C332.399 935.068 327.281 923.945 328.782 914.124C330.282 904.302 337.132 895.973 345.27 890.274C363.939 877.2 389.139 875.895 407.195 861.987C427.893 846.046 436.009 815.947 459.604 804.731C470.52 799.542 483.245 799.301 494.263 794.331C505.613 789.211 514.168 779.558 522.358 770.179C537.645 752.675 552.933 735.169 568.22 717.665C573.58 711.529 579.021 705.264 582.276 697.796C585.532 690.328 586.312 681.328 582.34 674.215C577.032 664.716 565.195 661.226 554.414 659.756C543.632 658.286 532.044 657.724 523.294 651.254C517.082 646.661 513.173 639.673 509.449 632.904C503.787 622.61 498.125 612.316 492.464 602.021C485.459 589.284 470.9 592.779 456.462 591.097C466.076 590.539 475.087 583.991 478.585 575.017C482.083 566.044 479.882 555.124 473.181 548.207C449.605 523.866 483.692 520.743 501.828 511.519C527.078 498.677 544.388 476.7 575.673 479.08C589.337 480.12 606.249 484.777 614.364 473.735C618.584 467.992 618.755 459.307 624.676 455.341C631.059 451.065 639.419 455.076 646.844 457.046C666.014 462.131 688.109 450.169 694.329 431.336C695.83 426.793 690.709 417.123 692.615 410.59C694.362 404.599 698.561 397.061 701.326 391.331C704.856 384.034 713.672 370.936 723.142 371.33C733.982 371.786 738.954 385.969 749.486 386.863C762.65 387.979 779.459 372.607 790.672 367.155C805.906 359.747 823.237 358.244 840.121 356.86C855.195 355.624 855.677 358.103 858.047 372.184C854.786 377.812 851.525 383.439 848.263 389.067C840.824 397.454 833.385 405.842 825.946 414.229C823.976 416.452 822.004 418.674 820.033 420.897C812.487 429.405 804.899 437.969 798.957 447.665C791.754 459.419 787.122 472.613 784.163 486.077C766.336 504.037 746.294 519.74 725.058 533.468C714.911 540.028 701.429 544.91 692.286 552.582C683.487 559.966 682.947 569.716 677.397 578.715C671.607 588.1 662.442 593.001 659.647 604.718C657.208 614.941 658.551 625.639 659.906 636.065C661.887 651.3 679.239 671.713 693.998 676.848C704.476 680.489 717.188 673.197 726.192 668.611C729.756 666.795 736.065 661.344 740.104 661.618C759.305 662.938 761.614 682.276 753.04 695.109C748.419 702.025 742.248 707.734 736.722 713.951C719.609 733.205 717.034 756.118 703.387 776.895C704.93 792.039 695.726 807.919 688.982 821.566C682.238 835.214 676.445 851.229 682.268 865.293C688.746 880.94 707.987 888.091 724.776 885.878C741.566 883.665 756.418 874.227 770.456 864.754C784.493 855.28 798.833 845.314 815.397 841.791C832.097 838.237 849.56 841.58 866.463 839.171C897.103 834.803 921.692 812.534 944.209 791.298C954.839 781.275 966.157 769.889 967.428 755.333C968.473 743.362 962.359 731.278 965.059 719.569C967.969 706.947 980.201 698.761 992.254 694.021C1004.31 689.282 1017.45 686.5 1027.78 678.682C1039.32 669.945 1045.68 656.208 1053.86 644.269C1064.83 628.255 1079.64 615.375 1096.57 605.991C1106.26 600.62 1122.43 595.81 1132.28 604.108C1143.39 613.467 1138.79 635.302 1145.09 647.663C1148.15 653.672 1153.76 658.817 1160.48 659.458C1169.89 660.358 1177.61 652.717 1185.06 646.89C1217.44 621.567 1219.86 674.379 1220.66 694.294C1221.2 707.884 1221.92 722.713 1230.92 732.913C1232.31 743.162 1247.28 744.4 1257.62 744.178C1267.96 743.954 1281.55 746.286 1282.99 756.528C1284.36 766.337 1273.02 772.409 1263.95 776.399C1226.06 793.076 1195.51 825.748 1181.42 864.679C1179.62 869.655 1178.06 874.986 1179.08 880.181C1181.41 892.067 1196.33 897.476 1208.16 894.865C1219.98 892.254 1229.77 884.294 1240.27 878.248C1250.76 872.202 1263.93 867.998 1274.78 873.389C1284.29 878.116 1289.07 888.66 1294.12 898C1299.18 907.34 1306.7 917.112 1317.3 917.754C1325.27 918.237 1332.41 913.355 1339.78 910.282C1347.14 907.208 1357.2 906.635 1361.61 913.289C1365.91 919.769 1361.98 928.709 1364.28 936.136C1366.58 943.522 1374.77 947.775 1382.51 947.954C1390.24 948.134 1397.65 945.126 1404.79 942.17C1433.57 930.267 1462.34 918.364 1491.11 906.461C1503.63 901.283 1516.64 895.754 1525.42 885.44C1534.2 875.126 1537.17 858.496 1528.29 848.261C1518.03 836.42 1498.43 839.308 1485.23 847.752C1472.02 856.196 1461.73 868.914 1447.73 875.954C1440.15 879.765 1428.84 880.582 1425.12 872.953C1422.27 867.098 1426.22 859.954 1431.55 856.209C1436.87 852.464 1443.4 850.846 1449.05 847.609C1458.87 841.985 1465.57 831.259 1466.31 819.969C1467.06 808.68 1461.83 797.165 1452.84 790.297C1449.88 782.491 1457.03 772.002 1464.57 768.402C1472.1 764.801 1480.79 763.812 1487.86 759.376C1498.72 752.569 1503.55 738.297 1501.08 725.722C1498.61 713.148 1489.81 702.433 1479.02 695.512C1470.25 689.884 1460.26 686.515 1450.38 683.199C1444.88 681.354 1439.38 679.509 1433.88 677.664C1427.43 675.497 1420.71 673.168 1415.98 668.269C1411.25 663.37 1409.3 655.065 1413.53 649.73C1419.63 642.042 1432.94 645.544 1440.37 639.141C1452.45 628.734 1442.57 605.996 1441.24 593.037C1437.79 559.457 1469.17 547.488 1496.61 546.158C1512.83 545.371 1529.34 543.227 1543.94 536.12C1558.55 529.013 1571.12 516.238 1574.58 500.367C1576.63 490.938 1575.41 481.094 1576.72 471.534C1578.04 461.973 1582.98 451.778 1592.2 448.929C1601.56 446.036 1611.87 451.691 1621.34 449.187C1629.05 447.152 1634.53 439.958 1636.76 432.309C1639 424.659 1638.56 416.518 1638.09 408.561C1645.56 395.144 1661.68 391.032 1676.87 388.792C1692.06 386.552 1709.6 382.07 1715.54 367.912C1722.27 351.879 1708.46 333.467 1692 327.845C1675.55 322.222 1657.6 325.238 1640.25 326.281C1612.92 327.924 1585.3 324.445 1559.23 316.077C1544.78 311.437 1530.59 305.264 1515.48 303.836C1501.19 302.486 1493.25 307.594 1481.35 313.216C1473.1 317.113 1460.84 320.82 1452.15 315.188C1444.78 310.407 1446.59 299.469 1435.03 301.052C1422.93 302.707 1410.83 304.362 1398.74 306.018C1379.32 308.674 1361.3 292.014 1342.6 286.189C1313.46 293.512 1282.71 298.37 1253.58 305.694C1239.74 295.708 1221.86 292.851 1205.57 297.931C1194.71 301.316 1185.21 307.937 1175.12 313.197C1153.76 324.335 1120.66 337.773 1100.62 324.409Z" fill="#1A4EDB"/>
<path d="M696.626 304.57L712.213 306.561C713.225 306.68 713.75 307.324 713.595 308.197L712.828 312.025C712.706 312.654 712.966 313.171 713.51 313.45L724.966 319.442C725.72 319.848 725.89 320.703 725.311 321.664L722.951 325.578C722.487 326.346 722.461 327.1 722.933 327.548L727.786 332.374L724.758 339.24L709.512 345.452L706.326 338.57L701.678 339.417L701.728 345.963L698.672 350.227L680.739 358.812L666.452 354.437L667.524 346.554L648.085 345.473L658.119 338.344L667.216 341.243L672.203 340.403L673.419 338.387L689.11 331.674L689.861 328.82L686.685 327.412C686.195 327.232 685.933 326.861 685.884 326.422L685.598 324.104C685.541 323.369 684.879 322.919 683.894 322.898L669.679 323.051C668.904 323.059 667.999 323.33 667.187 323.825L649.218 334.598L636.952 337.712C635.764 338.026 634.637 338.902 634.271 339.793L632.685 343.749C632.479 344.279 632.543 344.743 632.904 345.043C633.945 345.966 633.633 347.054 632.576 347.906C631.776 348.561 630.751 348.926 629.928 348.909L625.433 347.069L612.495 350.824L604.998 346.549C603.545 346.233 603.008 346.344 602.475 346.567L586.244 353.56C585.693 353.799 585.154 353.9 584.68 353.89L577.511 352.518C576.618 352.466 576.043 352.585 575.491 352.839L558.201 360.83C552.509 363.455 548.012 367.978 546.886 372.26L545.986 375.598L549.761 375.68L561.626 385.11C562.017 385.43 562.578 385.604 563.25 385.618L566.021 385.158L569.929 385.681C571.977 386.26 571.728 388.566 569.403 390.339L560.687 396.985C559.574 397.836 558.868 398.867 558.768 399.789L558.519 402.095C558.395 403.312 559.338 404.05 560.771 404.081C561.282 404.092 561.855 404.013 562.465 403.835L568.752 401.928C570.069 401.544 571.336 400.72 572.182 399.741L580.127 390.257C581.047 389.158 582.512 388.29 583.997 387.958L598.886 384.658C599.975 384.414 601.083 383.854 601.983 383.12L609.882 376.505C610.51 375.983 610.872 375.335 610.838 374.824C610.667 372.314 613.691 369.193 617.43 368.01L621.637 366.667C622.656 366.348 623.584 365.615 623.892 364.867L625.207 361.927C625.938 360.289 627.95 358.703 630.144 358.094C631.149 357.8 632.076 357.115 632.482 356.345C633.441 354.517 634.822 353.696 636.048 353.65L654.965 353.09L660.314 363.011L653.88 368.758C653.194 369.376 652.873 370.098 653.089 370.638L654.364 373.731C654.53 374.146 654.986 374.368 655.568 374.381L674.998 366.299C676.971 366.007 677.426 366.225 677.599 366.623L679.961 372.173C680.111 372.493 680.063 372.905 679.802 373.337L672.037 386.45C671.661 387.075 671.708 387.66 672.167 387.985L677.111 391.572C677.612 391.972 677.601 392.702 677.025 393.419C675.832 394.877 675.834 395.681 676.476 396.035L678.207 396.997C678.932 397.402 678.834 398.324 678.017 399.158L665.226 412.088C664.481 412.85 664.326 413.723 664.896 414.149L669.154 417.501C669.655 417.901 669.615 418.63 669.011 419.347L660.386 429.911C659.69 430.757 658.46 431.339 657.477 431.317L632.245 428.494C630.81 428.317 630.805 426.905 632.247 425.793L643.773 416.995C645.323 415.803 645.195 414.322 643.618 414.287L622.035 415.134C621.246 415.166 620.323 415.559 619.637 416.176L604.438 429.881C603.408 430.831 603.333 431.949 604.272 432.286L613.7 435.678C614.61 436.014 614.593 437.036 613.678 437.941C613.219 438.417 612.579 438.768 611.942 438.974L585.184 446.952C584.479 447.16 583.811 447.252 583.215 447.24C581.671 447.206 580.6 446.469 580.55 445.221C580.49 443.284 579.436 442.532 577.887 442.498C577.444 442.489 576.961 442.537 576.449 442.65L557.841 446.77C555.409 447.3 553.069 449.098 552.392 450.932C551.67 452.887 549.074 454.777 546.518 455.183L528.777 457.959C527.506 458.175 526.158 458.753 525.017 459.604L484.68 490.008L445.67 505.479C444.891 505.778 444.218 506.372 443.928 506.949L433.279 528.538L421.875 536.707C421.242 537.138 420.534 537.348 419.956 537.335C419.427 537.324 419.008 537.126 418.859 536.739L416.278 529.944L422.316 515.479C422.703 514.66 422.241 514.061 421.296 514.041L417.335 514.228C416.15 514.207 415.71 513.468 416.25 512.575C416.789 511.68 416.374 510.942 415.341 510.92L401.389 511.52C400.838 511.532 400.215 511.761 399.66 512.114L392.868 516.515C392.275 516.904 391.571 517.125 390.991 517.112L382.064 514.65C380.541 514.218 378.864 513.985 377.078 513.946C373.518 513.868 369.526 514.565 365.459 516.015L356.544 519.201C350.394 521.403 344.571 525.144 340.342 529.6L323.455 547.526L317.712 566.327L336.848 569.664C339.743 569.781 342.413 568.591 344.08 566.756L351.381 558.717C353.003 556.928 355.615 555.72 357.813 555.719L366.984 555.797C370.403 555.871 370.985 558.802 368.174 561.442L352.264 576.422C349.803 578.752 349.873 581.381 352.457 581.973L366.087 585.068C368.29 585.578 368.723 587.607 367.097 589.736L351.642 609.639C350.563 611.051 350.357 612.482 351.074 613.422L354.388 617.581C354.871 618.2 355.767 618.56 356.866 618.583L359.401 618.638C362.303 618.702 363.224 620.96 361.353 623.401C359.761 625.468 356.801 626.872 354.497 626.821C353.948 626.809 353.437 626.714 352.99 626.527L342.255 622.132C341.68 621.901 341.264 621.551 341.046 621.06L336.886 612.577L336.565 600.236C336.582 599.166 335.875 598.396 334.726 598.079L316.164 593.222L312.833 585.779C311.853 583.536 309.312 582.235 305.904 582.16C305.392 582.148 304.861 582.165 304.31 582.211L301.531 582.418C301.008 582.457 300.497 582.472 300.004 582.461C297.901 582.415 296.092 581.916 294.806 580.981L270.334 563.539C269.499 562.937 269.602 561.772 270.577 560.675L275.372 555.183C275.875 554.586 276.166 553.959 276.147 553.425L276.345 514.237L281.426 504.106C282.175 502.704 281.42 501.634 279.857 501.601C277.191 502.043 275.522 503.296 274.994 504.598L267.632 523.34L265.526 540.322C265.411 541.366 264.392 542.536 262.956 543.259L261.451 544.004C260.601 544.431 259.752 544.627 259.038 544.611C258.033 544.589 257.295 544.15 257.193 543.353L254.216 522.634C254.104 521.731 254.827 520.58 256.052 519.731L260.84 516.429C262.023 515.603 262.745 514.5 262.647 513.623L262.285 509.016L270.721 490.055C271.144 489.164 270.946 488.357 270.205 487.976L264.254 484.781C263.458 484.35 263.318 483.447 263.84 482.484L278.866 455.103C279.17 454.551 279.715 453.978 280.385 453.53L331.328 418.079C332.481 417.301 333.189 416.222 333.148 415.345L332.802 407.115C332.772 406.36 333.294 405.448 334.207 404.689L348.488 392.837C349.06 392.363 349.463 391.836 349.697 391.307L359.846 367.518C360.036 367.06 359.973 366.644 359.639 366.394L341.27 352.224L317.918 361.275L293.091 363.117L233.06 380.271L229.757 378.982C228.865 378.33 229.835 376.77 231.478 376.222L256.24 367.956C257.911 367.409 258.882 365.8 257.919 365.171L255.13 363.407C254.712 363.155 254.621 362.641 254.94 362.065L261.344 350.308C261.735 349.611 262.618 348.998 263.524 348.774L298.826 340.399C299.718 340.199 300.616 339.562 300.979 338.864C301.43 338.022 301.003 337.356 300.018 337.335L295.665 337.312C294.541 337.288 294.154 336.463 294.862 335.519L298.563 330.564C299.068 329.87 300.021 329.331 300.882 329.228L323.371 326.434C324.105 326.353 324.929 325.933 325.459 325.386L331.32 319.31C331.893 318.69 332.802 318.272 333.59 318.24L349.228 317.487C350.849 317.401 352.56 317.073 354.317 316.48L369.205 311.526C371.33 310.843 373.392 310.498 375.279 310.54L389.251 310.845C391.223 310.888 393.427 310.498 395.638 309.719C397.855 308.949 400.049 308.569 402.002 308.612C402.722 308.628 403.407 308.701 404.049 308.833L429.075 313.855C429.619 313.958 430.195 314.02 430.797 314.032C431.471 314.047 432.176 314.002 432.907 313.89L436.367 313.406C437.092 313.307 437.791 313.263 438.456 313.278C439.476 313.3 440.414 313.459 441.236 313.756L455.007 318.606C455.836 318.898 456.787 319.061 457.834 319.083L502.518 315.07C503.113 315.015 503.691 314.994 504.247 315.006C505.888 315.042 507.339 315.365 508.519 315.955L519.295 321.323C520.472 321.927 521.918 322.25 523.554 322.286C524.402 322.304 525.301 322.246 526.242 322.108L533.473 321.049L544.305 326.467L568.81 323.596L573.275 326.273L603.862 327.233L610.688 325.946C611.946 325.707 613.187 324.785 613.597 323.82L615.71 318.661C616.076 317.768 617.147 316.94 618.322 316.601L637.173 311.417C639.116 311.304 639.712 311.881 639.448 312.757L637.135 320.71C636.954 321.387 637.256 321.929 637.944 322.115L640.441 322.801C642.903 322.981 644.472 322.562 645.925 321.753C648.128 320.561 649.665 318.721 649.875 317.095C650.151 314.839 651.63 313.047 653.722 311.852L666.32 304.683C667.16 304.208 668.08 303.961 668.858 303.978L690.332 306.181C691.107 306.209 691.649 306.116 692.183 305.905L695.031 304.872C695.584 304.668 696.143 304.559 696.626 304.57Z" fill="#23D74A"/>
<path d="M931.585 274.3C932.253 274.305 932.565 274.335 932.853 274.376L967.448 280.094C969.43 280.405 968.346 282.911 965.911 283.637L941.43 291.058C939.817 291.557 938.21 292.471 937.022 293.588L921.673 307.874C920.571 308.896 919.177 309.741 917.732 310.245L906.608 314.211C904.327 315.013 902.259 316.597 901.216 318.326L897.525 324.449C896.135 326.754 893.033 328.681 890.124 329.056L849.715 334.256C848.671 334.379 847.539 334.744 846.444 335.279L830.381 343.224C828.919 343.946 827.334 344.349 825.981 344.32L807.474 343.916C805.756 343.878 803.76 344.491 802.008 345.596L766.422 368.075C764.61 369.223 762.62 369.809 760.978 369.773C760.026 369.752 759.19 369.522 758.572 369.071L750.508 363.276C749.574 362.599 749.24 361.496 749.627 360.239L756.831 336.459C757.53 334.163 760.273 331.839 763.373 330.958L771.499 328.605C774.811 327.655 777.699 325.091 778.132 322.717L779.483 315.886C779.638 314.965 780.204 313.98 781.079 313.05L788.85 304.705C791.589 301.773 790.891 298.765 787.386 298.519L763.476 296.853C761.618 296.715 760.45 295.765 760.361 294.303C760.185 291.283 764.697 287.586 768.928 287.289L788.577 285.894C789.085 285.857 789.621 285.771 790.159 285.636L813.391 279.576C814.014 279.395 814.635 279.31 815.227 279.275L931.585 274.3Z" fill="#23D74A"/>
<path d="M868.915 393.06C869.036 393.062 869.152 393.074 869.262 393.092L876.387 394.196C877.231 394.312 877.701 394.857 877.561 395.608L877.28 397.305C877.093 398.42 875.721 399.607 874.222 400.011L872.495 400.46C871.377 400.752 870.28 401.53 869.758 402.395L868.035 405.252C867.818 405.612 867.503 405.946 867.118 406.254L864.621 408.219C863.75 408.905 862.687 409.296 861.757 409.275L860.405 409.246C860.039 409.238 859.63 409.302 859.204 409.438L848.938 412.596C848.515 412.724 848.116 412.781 847.761 412.773C846.799 412.752 846.162 412.259 846.237 411.442L846.471 408.358C846.552 407.704 847.057 406.96 847.827 406.394L851.363 403.794C851.976 403.346 852.421 402.795 852.599 402.264L853.292 400.358C853.778 399.03 855.7 397.832 857.277 397.866C857.897 397.88 858.576 397.7 859.229 397.374L866.983 393.553C867.634 393.225 868.329 393.048 868.915 393.06Z" fill="#23D74A"/>
<path d="M899.787 376.924C900.407 376.938 900.753 377.311 900.618 377.818L900.361 378.956L900.463 379.542L902.023 381.498C902.216 381.745 902.211 382.085 901.994 382.446L897.955 389.146L897.777 389.629L897.303 395.432C897.284 395.748 897.449 395.995 897.757 396.099L899.829 396.874C900.18 397.004 900.344 397.299 900.254 397.686L898.879 403.423C898.773 403.833 898.993 404.179 899.457 404.262L902.658 404.965C903.15 405.048 903.341 405.392 903.249 405.83L902.844 407.402C902.723 407.886 902.222 408.386 901.583 408.688L896.401 411.129C895.563 411.525 895.016 412.242 895.148 412.78C895.294 413.343 894.648 414.132 893.711 414.5L885.671 417.706C885.344 417.835 885.017 417.901 884.743 417.895C884.672 417.894 884.604 417.887 884.542 417.876L875.958 416.35L875.21 416.407L864.476 418.921C864.293 418.963 864.126 418.98 863.976 418.976C862.992 418.955 862.757 418.05 863.701 417.226L872.317 409.751L872.734 409.25L875.442 404.76C875.789 404.184 876.529 403.713 877.25 403.607L882.322 402.769C883.197 402.642 884.096 401.957 884.262 401.303L885.235 397.796C885.338 397.483 885.23 397.188 884.979 397.036L876.905 391.824C876.542 391.622 876.521 391.183 876.797 390.727L880.735 384.196C880.895 383.932 881.139 383.67 881.465 383.458L891.105 377.222C891.532 376.94 892.071 376.756 892.522 376.767L899.787 376.924Z" fill="#23D74A"/>
<path d="M1329.99 302.979L1366.87 309.419C1368.81 309.753 1370.05 310.826 1370.25 312.388L1371.01 317.514C1371.2 318.954 1372.28 320 1374.01 320.402L1380.2 321.924C1382.87 322.136 1384.12 321.942 1385.43 321.528L1392.99 319.163C1394.28 318.765 1395.52 318.566 1396.65 318.591L1438.38 323.779C1439.41 323.922 1440.26 324.257 1440.92 324.782L1450.74 332.685C1451.56 333.35 1452.73 333.699 1454.1 333.728C1455.51 333.759 1457.12 333.454 1458.77 332.811L1476.05 326.013C1477.68 325.366 1479.29 325.052 1480.72 325.084L1514.06 329.008C1514.87 329.123 1515.62 329.359 1516.23 329.712L1524.64 334.786C1525.41 335.263 1526.41 335.514 1527.56 335.54L1550.89 334.192L1581.33 341.741L1614.74 339.138L1671.97 354.083L1695.27 361.404C1696.76 361.874 1696.76 363.481 1695.29 364.932L1691.21 368.954C1690.08 370.081 1688.42 370.757 1687.12 370.728L1668.5 363.058C1666.68 362.851 1665.69 363.107 1664.77 363.609C1661.02 365.668 1660.14 367.984 1661.77 368.774L1669.66 372.644C1670.6 373.078 1670.76 374.08 1670.1 375.183C1669.26 376.577 1667.28 377.725 1665.55 377.809L1657.81 378.151C1656.95 378.206 1655.98 378.525 1655.1 379.041L1641.01 387.491C1640.05 388.071 1638.97 388.388 1638.06 388.369L1632.37 386.865L1620.72 388.97C1619.51 389.211 1618.29 389.914 1617.47 390.796C1616.51 391.822 1616.17 392.714 1616.42 393.401L1621.9 410.818C1622.11 411.406 1621.89 412.155 1621.3 412.896L1609.95 427.512C1608.91 428.829 1606.96 429.786 1605.4 429.751L1603.15 429.601C1602.35 429.559 1601.78 429.231 1601.5 428.738L1587.74 401.337C1587.35 400.575 1587.75 399.488 1588.72 398.536L1599.78 387.806C1601.27 386.379 1601.33 384.775 1599.9 384.257L1588.58 380.167C1587.94 379.931 1587.21 379.809 1586.43 379.792C1583.61 379.73 1580.1 381.038 1577.44 383.305L1580.99 388.539L1576.06 391.983L1560.66 388.85L1530.16 389.497C1525.63 389.618 1520.33 392.202 1517.15 395.83L1512.4 401.249C1509.33 404.733 1508.91 408.397 1511.31 410.395C1512.38 411.276 1513.94 411.771 1515.79 411.811L1534.11 411.817C1537.06 411.88 1539.09 412.869 1539.97 414.597L1551.49 437.278L1548.69 450.718C1548.36 452.025 1546.68 453.35 1544.96 453.654C1543.2 453.682 1542.52 453.133 1542.6 452.265L1543.16 445.076L1538.42 441.396C1536.16 441.089 1534.65 441.728 1533.69 442.752L1509.71 468.38C1508.37 469.786 1506.3 470.812 1504.48 470.943L1497.51 471.423C1494.95 471.61 1492.13 473.447 1491.26 475.495L1490.02 478.46C1489.43 479.81 1487.97 481.14 1486.2 481.904C1481.34 484.036 1479.58 487.111 1481.22 488.558L1484.48 491.427C1484.91 491.801 1485.1 492.292 1485.09 492.876L1484.98 504.38C1484.94 506.374 1482.37 508.751 1479.47 509.393L1472.95 510.88C1469.62 511.003 1468.53 509.9 1468.99 508.264L1471.61 498.906C1471.94 497.794 1471.52 496.884 1470.54 496.425L1464.86 493.868C1463.5 493.279 1463.28 491.79 1464.34 490.231C1465.23 488.889 1465.2 487.574 1464.24 486.848L1460.16 483.816L1448.08 487.518C1445.99 487.721 1445.45 487.188 1445.72 486.371L1447.32 481.054C1447.58 480.244 1447.05 479.713 1446.16 479.694L1438.09 482.117C1436.65 482.573 1435.54 483.837 1435.81 484.719L1438.44 493.948L1448.15 496.204C1449.95 496.535 1448.93 498.848 1446.66 499.528L1439.35 506.4L1442.8 534.524C1443 535.94 1442.15 537.673 1440.51 539.17L1411.66 565.908C1410.49 567.001 1409.01 567.893 1407.42 568.443L1366.97 582.52C1365.81 582.921 1364.69 583.109 1363.7 583.088C1362.71 583.066 1361.85 582.834 1361.22 582.395L1356.68 579.328C1356.03 578.879 1355.16 578.648 1354.17 578.625C1352.67 578.593 1350.89 579.042 1349.2 579.943L1344.38 582.539C1340.94 584.361 1338.92 587.43 1339.79 589.541L1347.04 607.24C1347.38 608.05 1347.26 609.045 1346.77 610.105L1339.17 625.922C1338.19 627.967 1335.79 629.911 1333.06 630.849L1326.85 632.999L1312.82 640.988C1311.64 641.689 1310.41 642.017 1309.39 641.995C1308.23 641.97 1307.36 641.485 1307.16 640.572L1303.33 623.168C1303.12 622.19 1302.38 621.469 1301.25 621.127C1297.25 620.854 1294.08 622.173 1291.98 624.282L1282.29 634.021C1280.41 635.902 1279.81 637.98 1280.72 639.363L1290.73 654.908L1286.62 674.451C1286.33 675.637 1285.13 676.925 1283.55 677.741C1282.53 678.248 1281.47 678.502 1280.58 678.483L1271.82 672.961C1271.36 672.635 1271.12 672.142 1271.13 671.558L1271.7 648.362C1271.71 647.779 1271.45 647.262 1270.96 646.935C1268.94 645.553 1268.82 644.479 1269.51 643.327L1285.63 616.603C1286.21 615.641 1286.46 614.699 1286.36 613.869L1285.37 606.38C1285.17 604.818 1283.75 603.922 1281.75 603.877C1280.84 603.857 1279.82 604.014 1278.74 604.361C1276.07 605.225 1274.69 605.439 1273.46 605.412C1272.35 605.388 1271.35 605.165 1270.55 604.741C1268.59 603.725 1268.03 601.67 1269.06 599.308L1273.59 589.044C1274.1 587.912 1274.25 586.82 1273.99 585.866L1271.4 575.786C1270.94 573.97 1269.11 572.913 1266.6 572.859L1249.23 575.717C1247.51 576.02 1245.74 576.686 1244.1 577.648L1209.18 598.076C1203.66 601.312 1199.08 605.591 1196.39 610.057L1187.63 624.583C1185.59 627.97 1181.85 631.148 1177.48 633.192C1174.06 634.787 1170.71 635.509 1167.87 635.448C1163.38 635.349 1160.15 633.292 1159.88 629.621L1158.9 615.538C1158.85 614.856 1158.91 614.151 1159.07 613.401L1166.34 580.475C1166.8 578.389 1165.37 576.973 1162.87 576.918C1159.8 576.907 1158.52 576.142 1158.16 574.871L1152.56 553.778C1152.19 552.494 1150.9 551.729 1149.1 551.69L1128.67 554.206L1103.75 549.137C1102.58 548.868 1101.87 548.147 1101.76 547.147C1101.55 545.075 1100.39 544.311 1098.75 544.275L1094.1 545.278C1091.31 545.546 1090.69 545.398 1090.2 545.119L1078.16 538.288C1077.46 537.883 1077.08 537.242 1077.08 536.439L1076.92 528.651C1076.9 527.248 1075.73 526.418 1074 526.38C1068.68 527.546 1065.89 530.332 1066.12 532.502L1068.41 554.033C1068.53 555.252 1069.58 556.029 1071.2 556.088L1080.2 556.527C1081.66 556.563 1083.13 556.161 1084.48 555.405L1088.32 553.299C1089.74 552.525 1091.21 552.156 1092.44 552.183C1093.74 552.212 1094.77 552.684 1095.19 553.594L1096.92 557.403C1097.32 558.288 1098.33 558.796 1099.68 558.826C1103.23 558.903 1104.34 559.706 1104.44 560.973L1104.96 566.775C1105.08 567.994 1104.24 569.484 1102.76 570.717L1082.95 586.997C1082.04 587.755 1080.93 588.364 1079.78 588.752L1015.15 609.991C1012.57 610.84 1010.14 611.214 1008 611.167C1002.72 611.052 999.198 608.374 999.48 603.931L1000.78 582.843C1000.93 580.462 999.934 578.47 997.939 577.234L996.265 576.176C992.931 574.084 992.461 570.035 995.082 565.689C996.254 563.743 996.835 561.835 996.778 560.131L995.787 526.464C995.695 523.397 997.204 519.902 1000.03 516.583L1016.61 497.191C1017.91 495.686 1018.06 494.109 1017.04 493.259C1016.14 492.539 1015.46 492.34 1014.67 492.324C1013.26 492.293 1011.54 492.842 1010.07 493.886C1008.62 494.905 1006.91 495.473 1005.5 495.442L996.693 492.256C994.587 491.994 993.663 492.174 992.73 492.535C991.642 492.942 990.714 493.115 989.901 493.097L978.782 490.722C977.87 490.532 977.186 490.103 976.816 489.488L974.58 485.765C974.045 484.853 974.149 483.639 974.902 482.391L979.795 474.275C980.997 472.282 980.576 470.473 978.726 469.8C975.261 469.355 973.448 469.878 971.777 470.864C969.544 472.203 968.018 474.164 967.906 475.865L967.732 479.656C967.659 480.677 967.091 481.807 966.116 482.857L961.801 487.458C959.936 489.46 956.97 490.783 954.52 490.729C950.661 490.644 949.356 489.447 949.596 487.677L950.52 481.032L948.943 472.288C948.799 471.628 948.839 470.899 949.076 470.126L952.248 459.564L943.553 454.436L935.528 445.357C933.673 444.891 932.791 445.163 932.014 445.694C929.25 447.579 928.715 448.469 928.845 449.152L930.666 458.533L935.262 460.045L945.784 468.959C946.256 469.358 946.231 470.064 945.741 470.783C945.031 471.788 943.551 472.533 942.391 472.508L939.098 472C937.446 471.94 935.781 472.883 935.204 474.055L932.189 480.193L923.128 482.817C922.293 483.066 921.467 483.632 921.019 484.278L919.274 486.747C918.584 487.718 917.222 488.359 916.193 488.335L911.15 484.696C909.954 483.696 912.148 481.384 914.26 481.431L923.56 478.739C925.87 477.938 927.83 476.156 928.251 474.462L929.153 470.93L914.038 462.061L911.244 450.128C911.134 449.567 910.603 449.254 909.879 449.239L895.253 455.35L883.855 452.717C882.222 452.634 880.735 453.449 880.121 454.508L876.999 460.157C876.549 460.95 875.567 461.634 874.548 461.904L862.592 465.073C861.601 465.344 860.607 465.808 859.752 466.422L851.171 472.511C850.016 473.338 849.448 474.468 849.874 475.183C850.189 475.749 849.852 476.593 849.065 477.282L842.291 483.167L824.736 487.527C822.701 487.967 820.757 488.162 818.965 488.122C815.615 488.049 812.792 487.155 810.891 485.497L808.64 483.502L797.505 482.942C795.984 482.91 795.694 481.638 796.911 480.423L811.915 465.716L822.613 450.624C823.285 449.642 824.684 448.929 825.815 448.954L852.85 452.257C855.285 452.331 857.769 451.213 859.264 449.526L863.87 444.348L865.668 435.071L856.709 428.914C855.804 427.338 857.65 425.602 859.498 425.423L869.968 424.436L876.157 420.752L884.926 421.211L902.186 412.514L933.145 400.029C934.308 399.567 935.252 398.713 935.618 397.869L937.525 393.239L947.177 385.325C948.066 384.648 949.168 384.252 950.065 384.272L954.297 385.067C955.659 385.364 955.792 386.706 954.545 387.968L948.029 394.564C947.427 395.183 947.12 395.882 947.181 396.443L947.628 399.299C947.721 399.955 948.314 400.347 949.179 400.366L954.414 399.592L957.913 401.979L989.883 397.52C990.929 397.348 991.994 396.764 992.725 395.976L1000.13 387.964C1000.89 387.128 1002.12 386.499 1003.21 386.401L1011.63 385.54C1012.61 385.439 1013.67 384.951 1014.43 384.263L1018.68 380.438C1019.81 379.417 1020.04 378.23 1019.26 377.629L1010.81 371.386C1010.35 371.012 1010.22 370.425 1010.55 369.727L1014.26 361.342C1014.63 360.547 1015.52 359.739 1016.57 359.276L1032.5 352.302C1035.25 351.097 1035.89 348.385 1033.44 348.284L1028.72 348.059C1027.71 348.033 1026.62 348.438 1025.76 349.09L1017.37 355.474L998.843 365.288C997.209 366.152 996.34 367.642 996.916 368.529L999.722 372.775C1000.42 373.837 999.027 375.68 996.986 376.364L989.039 378.988L975.104 392.112C974.387 392.826 973.392 393.34 972.461 393.514L957.807 396.186C955.054 394.739 956.054 393.132 957.813 392.294L960.994 390.807C962.598 390.039 963.622 388.577 963.23 387.62L959.239 378.191C959.021 377.697 958.468 377.414 957.738 377.398L942.557 381.671C940.258 381.81 939.571 381.121 939.893 380.08L944.929 364.012C945.256 362.948 946.57 361.858 947.999 361.476L974.773 354.276L1017.62 329.084L1055.91 323.328L1110.23 340.253C1110.82 340.444 1111.48 340.544 1112.18 340.559C1113.61 340.59 1115.23 340.268 1116.86 339.62L1122.75 337.291C1124.41 336.636 1126.04 336.32 1127.47 336.351C1128.31 336.369 1129.08 336.506 1129.75 336.763L1133.25 338.153C1133.92 338.411 1134.7 338.552 1135.55 338.57C1136.66 338.594 1137.88 338.412 1139.15 338.014L1151.58 334.15C1152.84 333.77 1154.08 333.586 1155.19 333.61L1164.31 335.619L1193.51 332.486C1195.94 332.199 1198.58 331.04 1200.69 329.383L1209.14 322.658C1211 321.19 1213.3 320.122 1215.5 319.683L1220.84 318.632C1221.64 318.479 1222.4 318.41 1223.11 318.426C1223.82 318.442 1224.48 318.541 1225.07 318.725L1235.03 321.935C1235.63 322.128 1236.31 322.233 1237.03 322.249C1237.79 322.266 1238.6 322.186 1239.44 322.007L1327.54 303.228C1328.39 303.046 1329.22 302.962 1329.99 302.979Z" fill="#23D74A"/>
<path d="M882.989 340.583C884.036 340.605 884.927 340.879 885.525 341.411C886.145 341.901 887.026 342.185 888.079 342.208C888.207 342.211 888.338 342.21 888.471 342.205L907.855 341.534C907.978 341.53 908.1 341.529 908.218 341.532C909.812 341.567 910.991 342.193 911.433 343.266C912.448 345.794 909.048 349.588 904.803 350.712L887.158 355.411C886.356 355.616 885.587 355.713 884.881 355.697C884.428 355.687 884.001 355.631 883.606 355.527L875.231 353.228C874.208 352.937 873.484 352.338 873.231 351.481L872.373 348.738C871.678 346.436 874.394 343.162 878.164 341.785L879.794 341.162C880.919 340.757 882.021 340.561 882.989 340.583Z" fill="#23D74A"/>
<path d="M344.218 621.547C343.352 622.022 342.284 622.103 341.313 621.672C339.656 620.939 338.908 619.003 339.642 617.348C340.525 615.352 341.418 613.363 342.326 611.377C343.08 609.731 345.027 609.006 346.673 609.76C348.319 610.514 349.043 612.46 348.29 614.106C347.393 616.066 346.508 618.032 345.637 620.001C345.333 620.685 344.825 621.213 344.218 621.547ZM352.438 603.833C351.537 604.328 350.417 604.392 349.424 603.91C347.796 603.117 347.117 601.156 347.91 599.527C348.863 597.567 349.828 595.61 350.804 593.658C351.612 592.035 353.583 591.383 355.203 592.19C356.823 593 357.48 594.969 356.67 596.589C355.704 598.521 354.75 600.455 353.806 602.394C353.499 603.028 353.012 603.518 352.438 603.833ZM361.278 586.418C360.343 586.931 359.177 586.978 358.165 586.444C356.565 585.597 355.954 583.613 356.8 582.013C357.821 580.083 358.852 578.159 359.899 576.241C360.761 574.647 362.758 574.066 364.346 574.931C365.937 575.797 366.522 577.789 365.656 579.379C364.624 581.275 363.604 583.175 362.598 585.078C362.286 585.666 361.821 586.12 361.278 586.418ZM914.575 276.051C914.042 276.344 913.422 276.492 912.768 276.445C910.61 276.292 908.455 276.15 906.298 276.02C904.492 275.911 903.113 274.358 903.225 272.55C903.334 270.745 904.889 269.371 906.695 269.474C908.874 269.606 911.053 269.749 913.234 269.904C915.039 270.032 916.399 271.6 916.271 273.405C916.189 274.561 915.518 275.534 914.575 276.051ZM370.711 569.314C369.743 569.846 368.528 569.875 367.499 569.285C365.93 568.384 365.386 566.381 366.288 564.81C367.371 562.918 368.469 561.031 369.578 559.147C370.497 557.589 372.508 557.069 374.067 557.987C375.626 558.904 376.146 560.914 375.227 562.475C374.132 564.336 373.048 566.202 371.974 568.072C371.664 568.615 371.222 569.034 370.711 569.314ZM895.049 274.997C894.547 275.273 893.97 275.419 893.356 275.398C891.194 275.319 889.039 275.251 886.879 275.197C885.069 275.151 883.638 273.648 883.684 271.837C883.728 270.024 885.232 268.593 887.044 268.642C889.226 268.698 891.41 268.765 893.594 268.844C895.402 268.911 896.816 270.43 896.751 272.241C896.709 273.436 896.029 274.459 895.049 274.997ZM380.717 552.535C379.714 553.086 378.452 553.095 377.41 552.45C375.871 551.495 375.396 549.475 376.349 547.936C377.498 546.08 378.659 544.23 379.828 542.387C380.802 540.855 382.828 540.409 384.354 541.377C385.884 542.347 386.337 544.374 385.365 545.902C384.206 547.724 383.061 549.555 381.925 551.388C381.615 551.887 381.195 552.272 380.717 552.535ZM875.506 274.617C875.037 274.873 874.497 275.02 873.923 275.019C871.768 275.013 869.607 275.022 867.448 275.04C865.636 275.059 864.155 273.604 864.139 271.791C864.122 269.983 865.577 268.499 867.387 268.484C869.573 268.462 871.758 268.455 873.941 268.461C875.752 268.466 877.216 269.939 877.21 271.75C877.208 272.985 876.519 274.06 875.506 274.617ZM391.274 536.098C390.239 536.666 388.93 536.653 387.878 535.954C386.37 534.951 385.962 532.914 386.964 531.407C388.174 529.591 389.393 527.779 390.623 525.976C391.65 524.471 393.685 524.095 395.178 525.113C396.675 526.134 397.062 528.174 396.041 529.668C394.824 531.453 393.618 533.244 392.424 535.04C392.12 535.496 391.722 535.852 391.274 536.098ZM855.959 274.909C855.52 275.149 855.022 275.293 854.488 275.311C852.33 275.377 850.17 275.461 848.016 275.555C846.207 275.632 844.674 274.23 844.598 272.421C844.52 270.613 845.922 269.087 847.73 269.002C849.913 268.908 852.096 268.826 854.281 268.756C856.092 268.7 857.605 270.12 857.662 271.93C857.701 273.206 857.006 274.335 855.959 274.909ZM402.364 520.008C401.296 520.595 399.94 520.561 398.88 519.804C397.407 518.752 397.064 516.704 398.114 515.23C399.381 513.455 400.66 511.684 401.945 509.92C403.017 508.46 405.064 508.137 406.527 509.202C407.991 510.269 408.313 512.32 407.246 513.784C405.973 515.531 404.709 517.281 403.456 519.04C403.158 519.454 402.783 519.778 402.364 520.008ZM836.429 275.872C836.026 276.093 835.565 276.234 835.072 276.268C832.915 276.411 830.762 276.565 828.607 276.732C826.802 276.872 825.226 275.521 825.086 273.715C824.944 271.912 826.295 270.334 828.103 270.193C830.279 270.025 832.461 269.868 834.638 269.723C836.445 269.603 838.006 270.971 838.129 272.777C838.214 274.092 837.513 275.277 836.429 275.872ZM413.97 504.286C412.868 504.891 411.465 504.828 410.4 504.016C408.961 502.918 408.686 500.859 409.786 499.42C411.111 497.684 412.444 495.957 413.788 494.237C414.893 492.804 416.96 492.553 418.389 493.671C419.817 494.785 420.07 496.845 418.957 498.273C417.628 499.975 416.31 501.686 414.998 503.403C414.712 503.775 414.36 504.072 413.97 504.286ZM816.953 277.49C816.577 277.697 816.156 277.83 815.704 277.876C813.552 278.094 811.405 278.32 809.256 278.558C807.455 278.758 805.835 277.461 805.633 275.662C805.434 273.862 806.737 272.235 808.531 272.042C810.699 271.8 812.874 271.57 815.045 271.349C816.845 271.168 818.456 272.48 818.637 274.282C818.773 275.635 818.07 276.877 816.953 277.49ZM426.078 488.939C424.942 489.562 423.493 489.474 422.427 488.606C421.024 487.462 420.812 485.396 421.956 483.993C423.335 482.3 424.725 480.615 426.123 478.937C427.288 477.541 429.35 477.356 430.741 478.516C432.133 479.675 432.32 481.744 431.161 483.134C429.778 484.793 428.404 486.461 427.04 488.135C426.766 488.472 426.438 488.741 426.078 488.939ZM797.535 279.769C797.19 279.958 796.808 280.087 796.397 280.143C794.255 280.432 792.117 280.73 789.977 281.044C788.185 281.306 786.522 280.065 786.258 278.273C785.998 276.481 787.247 274.815 789.031 274.553C791.192 274.239 793.355 273.934 795.518 273.644C797.314 273.402 798.965 274.66 799.205 276.457C799.394 277.838 798.69 279.136 797.535 279.769ZM438.674 473.985C437.505 474.626 436.009 474.51 434.943 473.583C433.578 472.394 433.434 470.322 434.621 468.956C436.055 467.311 437.496 465.673 438.945 464.04C440.151 462.68 442.219 462.56 443.574 463.761C444.929 464.963 445.054 467.035 443.852 468.389C442.416 470.007 440.988 471.631 439.57 473.262C439.309 473.561 439.004 473.804 438.674 473.985ZM778.208 282.7C777.895 282.872 777.548 282.995 777.175 283.057C775.046 283.416 772.917 283.788 770.792 284.172C769.009 284.494 767.305 283.31 766.982 281.529C766.662 279.747 767.85 278.04 769.626 277.72C771.778 277.332 773.929 276.955 776.086 276.592C777.871 276.29 779.563 277.495 779.863 279.28C780.101 280.692 779.396 282.047 778.208 282.7ZM451.741 459.442C450.537 460.103 448.995 459.955 447.933 458.97C446.606 457.736 446.529 455.662 447.762 454.336C449.248 452.734 450.741 451.14 452.246 449.555C453.487 448.237 455.567 448.186 456.881 449.431C458.195 450.679 458.251 452.754 457.004 454.066C455.515 455.634 454.039 457.211 452.568 458.797C452.321 459.062 452.041 459.277 451.741 459.442ZM758.99 286.276C758.708 286.43 758.399 286.546 758.066 286.613C755.947 287.045 753.832 287.488 751.719 287.942C749.949 288.323 748.205 287.196 747.826 285.425C747.446 283.654 748.567 281.91 750.343 281.532C752.477 281.072 754.614 280.626 756.755 280.188C758.531 279.826 760.262 280.971 760.623 282.745C760.919 284.188 760.216 285.603 758.99 286.276ZM465.27 445.318C464.03 445.999 462.444 445.818 461.389 444.772C460.101 443.497 460.09 441.422 461.364 440.136C462.901 438.582 464.448 437.036 465.999 435.5C467.287 434.219 469.361 434.236 470.636 435.524C471.91 436.811 471.9 438.886 470.612 440.161C469.077 441.681 467.548 443.21 466.027 444.747C465.796 444.979 465.541 445.169 465.27 445.318ZM739.9 290.496C739.649 290.634 739.373 290.741 739.081 290.811C736.981 291.31 734.882 291.825 732.787 292.349C731.03 292.789 729.248 291.722 728.81 289.967C728.371 288.213 729.429 286.425 731.193 285.989C733.314 285.458 735.436 284.938 737.561 284.431C739.322 284.011 741.089 285.099 741.511 286.86C741.859 288.33 741.163 289.803 739.9 290.496ZM479.25 431.637C477.975 432.338 476.342 432.121 475.294 431.015C474.049 429.7 474.105 427.625 475.419 426.379C477.006 424.875 478.601 423.379 480.204 421.894C481.542 420.674 483.607 420.74 484.839 422.07C486.068 423.399 485.99 425.474 484.663 426.705C483.076 428.174 481.5 429.653 479.931 431.14C479.721 431.339 479.492 431.505 479.25 431.637ZM720.963 295.348C720.743 295.47 720.504 295.567 720.252 295.635C718.169 296.209 716.088 296.793 714.011 297.387C712.271 297.885 710.456 296.877 709.958 295.137C709.46 293.397 710.461 291.581 712.207 291.082C714.306 290.481 716.41 289.891 718.515 289.313C720.26 288.832 722.065 289.86 722.544 291.605C722.956 293.099 722.265 294.635 720.963 295.348ZM493.667 418.415C492.356 419.134 490.676 418.881 489.64 417.715C488.438 416.36 488.562 414.289 489.916 413.086C491.552 411.635 493.198 410.192 494.846 408.76C496.216 407.576 498.284 407.72 499.473 409.087C500.66 410.456 500.512 412.527 499.145 413.713C497.511 415.13 495.887 416.555 494.269 417.992C494.081 418.158 493.879 418.298 493.667 418.415ZM702.2 300.84C702.012 300.943 701.809 301.031 701.596 301.097C699.533 301.74 697.473 302.393 695.417 303.058C693.693 303.615 691.845 302.67 691.287 300.947C690.732 299.222 691.678 297.386 693.398 296.817C695.477 296.147 697.559 295.486 699.644 294.837C701.373 294.297 703.211 295.261 703.749 296.99C704.222 298.506 703.54 300.104 702.2 300.84ZM508.515 405.672C507.164 406.413 505.437 406.119 504.418 404.891C503.262 403.497 503.454 401.43 504.847 400.273C506.532 398.876 508.222 397.489 509.921 396.112C511.33 394.975 513.393 395.187 514.533 396.592C515.673 397.998 515.458 400.064 514.052 401.205C512.374 402.567 510.7 403.937 509.036 405.32C508.869 405.456 508.696 405.573 508.515 405.672ZM683.63 306.958C683.473 307.045 683.305 307.121 683.129 307.182C681.089 307.892 679.053 308.612 677.022 309.345C675.318 309.961 673.44 309.077 672.825 307.374C672.211 305.671 673.09 303.782 674.796 303.178C676.851 302.436 678.909 301.708 680.972 300.988C682.681 300.394 684.55 301.297 685.147 303.007C685.681 304.54 685.009 306.202 683.63 306.958ZM523.784 393.431C522.394 394.194 520.618 393.855 519.617 392.563C518.508 391.132 518.769 389.071 520.201 387.962C521.932 386.622 523.67 385.292 525.414 383.974C526.869 382.876 528.914 383.166 530.007 384.612C531.099 386.057 530.813 388.112 529.369 389.204C527.646 390.507 525.93 391.821 524.219 393.147C524.077 393.255 523.931 393.35 523.784 393.431ZM665.283 313.697C665.155 313.766 665.021 313.83 664.883 313.884C662.87 314.661 660.859 315.452 658.853 316.254C657.17 316.924 655.264 316.106 654.591 314.424C653.92 312.742 654.756 310.848 656.42 310.164C658.45 309.353 660.483 308.554 662.52 307.767C664.209 307.114 666.108 307.955 666.76 309.644C667.36 311.193 666.7 312.918 665.283 313.697ZM539.458 381.713C538.028 382.498 536.205 382.112 535.225 380.753C534.166 379.285 534.498 377.235 535.967 376.176C537.743 374.894 539.526 373.624 541.317 372.367C542.786 371.33 544.841 371.683 545.884 373.165C546.924 374.647 546.567 376.691 545.086 377.733C543.32 378.975 541.558 380.23 539.802 381.496C539.691 381.576 539.575 381.648 539.458 381.713ZM647.168 321.054C647.074 321.106 646.976 321.153 646.874 321.197C644.887 322.044 642.905 322.901 640.926 323.772C639.269 324.499 637.335 323.745 636.606 322.087C635.88 320.431 636.631 318.519 638.289 317.767C640.289 316.889 642.294 316.019 644.302 315.165C645.969 314.455 647.896 315.229 648.604 316.895C649.271 318.459 648.629 320.254 647.168 321.054ZM555.535 370.546C554.061 371.355 552.187 370.917 551.235 369.492C550.229 367.986 550.633 365.951 552.14 364.944C553.958 363.727 555.787 362.521 557.616 361.326C559.136 360.345 561.165 360.763 562.155 362.279C563.145 363.796 562.719 365.827 561.202 366.818C559.391 368 557.585 369.192 555.784 370.396C555.702 370.451 555.619 370.5 555.535 370.546ZM629.319 329.025C629.258 329.059 629.193 329.092 629.129 329.121C627.172 330.036 625.22 330.964 623.272 331.899C621.641 332.684 619.682 331.999 618.896 330.367C618.112 328.736 618.805 326.767 620.429 325.991C622.397 325.043 624.372 324.107 626.349 323.181C627.99 322.415 629.942 323.122 630.709 324.761C631.446 326.337 630.823 328.2 629.319 329.025ZM571.994 359.96C570.475 360.793 568.553 360.299 567.631 358.806C566.679 357.267 567.156 355.246 568.697 354.294C570.465 353.2 572.24 352.118 574.018 351.049L574.324 350.866C575.828 349.918 577.894 350.473 578.812 352.032C579.729 353.593 579.207 355.602 577.646 356.52C575.641 357.725 573.891 358.793 572.144 359.872C572.095 359.903 572.045 359.931 571.994 359.96ZM611.751 337.606C611.722 337.622 611.691 337.639 611.66 337.654C609.736 338.633 607.821 339.624 605.908 340.629C604.305 341.471 602.323 340.852 601.48 339.248C600.639 337.644 601.297 335.686 602.861 334.821C604.796 333.805 606.738 332.801 608.685 331.81C610.299 330.988 612.274 331.631 613.095 333.244C613.901 334.827 613.298 336.758 611.751 337.606ZM588.808 349.983C587.243 350.841 585.271 350.289 584.384 348.73C583.488 347.156 584.036 345.155 585.61 344.257C587.509 343.175 589.414 342.104 591.324 341.045C591.328 341.043 591.332 341.041 591.337 341.038C592.919 340.169 594.906 340.743 595.781 342.323C596.659 343.906 596.086 345.903 594.503 346.78C592.616 347.827 590.732 348.885 588.856 349.955C588.841 349.965 588.825 349.973 588.808 349.983Z" fill="white"/>
<path d="M930.841 277.454C930.279 277.762 929.622 277.909 928.934 277.84L925.692 277.523C923.889 277.351 922.565 275.751 922.738 273.948C922.91 272.146 924.515 270.824 926.31 270.993L929.598 271.315C931.4 271.498 932.71 273.108 932.528 274.911C932.416 276.024 931.756 276.952 930.841 277.454Z" fill="white"/>
<path d="M344.073 341.341C343.491 341.66 342.805 341.807 342.095 341.718C340.299 341.495 339.023 339.856 339.247 338.06C339.524 335.824 339.888 333.55 340.326 331.304C340.673 329.528 342.396 328.366 344.173 328.713C345.95 329.059 347.11 330.783 346.764 332.56C346.353 334.66 346.014 336.784 345.753 338.869C345.619 339.956 344.965 340.851 344.073 341.341ZM483.022 264.372C482.138 264.856 481.044 264.929 480.061 264.472C478.149 263.585 476.169 262.746 474.176 261.982C472.485 261.336 471.64 259.439 472.288 257.748C472.941 256.059 474.835 255.211 476.522 255.86C478.656 256.676 480.777 257.574 482.825 258.526C484.466 259.288 485.178 261.239 484.415 262.88C484.11 263.539 483.613 264.047 483.022 264.372ZM348.523 322.024C347.746 322.451 346.799 322.563 345.892 322.255C344.177 321.675 343.258 319.812 343.84 318.098C344.562 315.96 345.372 313.81 346.24 311.705C346.935 310.032 348.849 309.232 350.523 309.925C352.197 310.617 352.993 312.534 352.302 314.208C351.487 316.182 350.735 318.181 350.049 320.203C349.777 321.012 349.217 321.644 348.523 322.024ZM464.284 257.902C463.597 258.278 462.776 258.413 461.954 258.218C459.876 257.726 457.783 257.301 455.677 256.945C453.891 256.645 452.689 254.952 452.991 253.167C453.292 251.379 454.983 250.178 456.769 250.481C459.003 250.86 461.256 251.315 463.463 251.837C465.226 252.254 466.316 254.021 465.9 255.783C465.676 256.723 465.07 257.471 464.284 257.902ZM356.684 303.954C355.715 304.485 354.5 304.514 353.472 303.925C351.901 303.024 351.357 301.019 352.26 299.448C353.391 297.476 354.599 295.521 355.848 293.637C356.846 292.128 358.886 291.721 360.394 292.719C361.902 293.721 362.313 295.755 361.312 297.265C360.132 299.043 359.009 300.861 357.947 302.712C357.636 303.255 357.195 303.674 356.684 303.954ZM444.641 255.23C444.138 255.506 443.556 255.654 442.942 255.63C440.806 255.549 438.67 255.539 436.535 255.593C434.726 255.64 433.219 254.212 433.171 252.401C433.127 250.591 434.555 249.087 436.364 249.037C438.639 248.976 440.917 248.991 443.19 249.077C445.001 249.144 446.412 250.668 446.343 252.477C446.297 253.672 445.618 254.694 444.641 255.23ZM368.167 287.802C366.997 288.443 365.504 288.325 364.438 287.399C363.071 286.212 362.926 284.141 364.115 282.775C365.613 281.051 367.18 279.366 368.772 277.768C370.051 276.487 372.124 276.48 373.409 277.758C374.692 279.035 374.695 281.112 373.418 282.395C371.93 283.889 370.466 285.464 369.063 287.076C368.801 287.378 368.498 287.62 368.167 287.802ZM424.856 256.398C424.532 256.576 424.174 256.7 423.79 256.76C421.682 257.094 419.568 257.502 417.508 257.97C415.742 258.372 413.985 257.268 413.584 255.501C413.177 253.735 414.276 251.971 416.053 251.577C418.256 251.075 420.514 250.64 422.765 250.285C424.555 250.001 426.234 251.222 426.515 253.01C426.738 254.415 426.034 255.752 424.856 256.398ZM382.615 274.24C381.215 275.008 379.428 274.657 378.433 273.347C377.336 271.908 377.616 269.85 379.057 268.754C380.875 267.369 382.757 266.042 384.651 264.804C386.176 263.802 388.198 264.239 389.189 265.754C390.18 267.271 389.755 269.303 388.239 270.293C386.474 271.446 384.721 272.683 383.026 273.973C382.896 274.073 382.756 274.162 382.615 274.24ZM405.696 261.451C405.563 261.524 405.421 261.591 405.276 261.645C403.275 262.402 401.294 263.234 399.387 264.113C397.743 264.873 395.795 264.155 395.036 262.512C394.276 260.868 394.997 258.942 396.637 258.16C398.684 257.214 400.808 256.323 402.952 255.511C404.647 254.87 406.539 255.721 407.18 257.415C407.767 258.966 407.105 260.678 405.696 261.451Z" fill="white"/>
<path d="M497.343 272.646C496.28 273.23 494.933 273.2 493.875 272.453C493.01 271.845 492.136 271.25 491.252 270.674C489.737 269.684 489.31 267.651 490.3 266.135C491.292 264.619 493.325 264.192 494.838 265.182C495.788 265.803 496.724 266.44 497.651 267.094C499.133 268.136 499.485 270.181 498.442 271.662C498.147 272.083 497.768 272.414 497.343 272.646Z" fill="white"/>
<path d="M743.508 430.451C742.357 431.083 740.889 430.982 739.824 430.089C738.172 428.705 736.503 427.342 734.82 426C733.403 424.873 733.17 422.81 734.297 421.393C735.42 419.978 737.487 419.742 738.904 420.871C740.631 422.246 742.34 423.643 744.033 425.061C745.422 426.224 745.605 428.291 744.441 429.68C744.171 430.003 743.856 430.261 743.508 430.451ZM728.001 418.424C726.931 419.011 725.575 418.975 724.514 418.217C722.765 416.966 720.997 415.733 719.214 414.524C717.715 413.506 717.324 411.468 718.341 409.97C719.359 408.469 721.397 408.082 722.894 409.097C724.723 410.336 726.534 411.6 728.329 412.882C729.802 413.936 730.143 415.985 729.09 417.458C728.793 417.871 728.419 418.195 728.001 418.424ZM711.626 407.613C710.633 408.158 709.384 408.173 708.345 407.543C706.504 406.423 704.649 405.329 702.78 404.256C701.21 403.355 700.665 401.352 701.568 399.781C702.47 398.212 704.473 397.669 706.044 398.57C707.959 399.668 709.86 400.793 711.749 401.938C713.296 402.879 713.79 404.894 712.851 406.442C712.54 406.951 712.113 407.346 711.626 407.613ZM694.488 398.051C693.567 398.556 692.421 398.612 691.417 398.098C689.499 397.118 687.569 396.165 685.628 395.234C683.995 394.451 683.304 392.493 684.087 390.86C684.872 389.225 686.829 388.539 688.461 389.319C690.453 390.274 692.432 391.253 694.401 392.259C696.014 393.081 696.654 395.057 695.83 396.669C695.517 397.276 695.043 397.747 694.488 398.051ZM676.688 389.785C675.842 390.25 674.798 390.337 673.838 389.933C671.852 389.097 669.856 388.287 667.852 387.501C666.166 386.841 665.334 384.939 665.996 383.253C666.655 381.568 668.556 380.734 670.244 381.398C672.3 382.204 674.346 383.034 676.381 383.889C678.049 384.592 678.834 386.513 678.132 388.183C677.834 388.891 677.314 389.442 676.688 389.785ZM658.331 382.853C657.555 383.279 656.61 383.392 655.707 383.087C653.666 382.399 651.616 381.738 649.557 381.103C647.826 380.567 646.857 378.732 647.392 377.003C647.927 375.272 649.766 374.301 651.492 374.838C653.603 375.491 655.705 376.167 657.798 376.871C659.515 377.447 660.437 379.308 659.86 381.024C659.587 381.837 659.027 382.471 658.331 382.853ZM639.507 377.294C638.803 377.681 637.958 377.811 637.118 377.595C635.031 377.063 632.939 376.555 630.841 376.076C629.076 375.672 627.972 373.913 628.376 372.148C628.782 370.382 630.541 369.282 632.304 369.683C634.458 370.176 636.604 370.697 638.744 371.245C640.497 371.693 641.555 373.478 641.106 375.234C640.873 376.147 640.275 376.873 639.507 377.294ZM620.326 373.149C619.695 373.495 618.945 373.636 618.179 373.502C616.057 373.125 613.932 372.778 611.803 372.455C610.013 372.184 608.78 370.513 609.051 368.723C609.321 366.932 610.99 365.7 612.783 365.972C614.966 366.3 617.145 366.659 619.322 367.043C621.104 367.36 622.295 369.06 621.98 370.843C621.799 371.862 621.167 372.687 620.326 373.149ZM600.886 370.464C600.326 370.771 599.671 370.918 598.987 370.85C596.843 370.637 594.699 370.45 592.552 370.292C590.747 370.16 589.39 368.588 589.524 366.782C589.656 364.975 591.224 363.614 593.034 363.754C595.236 363.915 597.438 364.105 599.636 364.326C601.439 364.506 602.755 366.112 602.575 367.914C602.463 369.03 601.803 369.96 600.886 370.464ZM581.298 369.278C580.809 369.546 580.245 369.693 579.649 369.679C578.578 369.655 577.509 369.639 576.441 369.63C575.359 369.621 574.277 369.62 573.195 369.625C571.385 369.634 569.909 368.174 569.902 366.361C569.895 364.55 571.353 363.07 573.165 363.068C574.274 363.062 575.382 363.064 576.492 363.072C577.596 363.082 578.699 363.098 579.8 363.124C581.61 363.166 583.044 364.668 583.001 366.478C582.974 367.69 582.291 368.733 581.298 369.278ZM561.678 369.621C561.263 369.849 560.792 369.989 560.29 370.019C558.14 370.142 555.991 370.291 553.845 370.467C552.04 370.616 550.457 369.274 550.309 367.469C550.16 365.664 551.5 364.08 553.308 363.933C555.509 363.751 557.711 363.599 559.916 363.473C561.725 363.37 563.273 364.752 563.378 366.559C563.452 367.863 562.751 369.033 561.678 369.621ZM542.147 371.483C541.802 371.672 541.418 371.8 541.006 371.857C538.871 372.144 536.739 372.457 534.611 372.796C532.823 373.081 531.142 371.862 530.857 370.075C530.572 368.287 531.794 366.603 533.579 366.321C535.759 365.973 537.943 365.653 540.132 365.358C541.926 365.117 543.577 366.375 543.819 368.171C544.005 369.553 543.3 370.85 542.147 371.483ZM522.81 374.821C522.534 374.972 522.231 375.085 521.909 375.152C519.802 375.598 517.701 376.069 515.605 376.569C513.845 376.987 512.076 375.898 511.656 374.137C511.236 372.375 512.315 370.607 514.089 370.188C516.237 369.678 518.393 369.194 520.554 368.738C522.326 368.363 524.065 369.495 524.438 371.266C524.745 372.716 524.043 374.144 522.81 374.821ZM503.777 379.59C503.569 379.705 503.348 379.796 503.111 379.865C501.044 380.467 498.982 381.091 496.929 381.745C495.202 382.292 493.359 381.338 492.812 379.612C492.262 377.887 493.21 376.031 494.944 375.494C497.049 374.826 499.16 374.184 501.282 373.568C503.022 373.063 504.84 374.062 505.345 375.802C505.782 377.305 505.093 378.868 503.777 379.59ZM411.538 427.647C410.173 428.396 408.429 428.086 407.416 426.835C406.277 425.43 406.493 423.364 407.9 422.223C409.616 420.833 411.351 419.463 413.102 418.118C414.561 417.012 416.6 417.285 417.7 418.72C418.803 420.156 418.533 422.214 417.098 423.319C415.39 424.629 413.7 425.963 412.029 427.32C411.873 427.445 411.708 427.554 411.538 427.647ZM485.146 385.755C485.007 385.831 484.861 385.898 484.709 385.954C482.688 386.708 480.68 387.483 478.68 388.284C477.001 388.957 475.091 388.14 474.417 386.459C473.744 384.778 474.583 382.881 476.242 382.196C478.29 381.375 480.35 380.58 482.42 379.809C484.116 379.176 486.005 380.039 486.638 381.736C487.214 383.282 486.55 384.985 485.146 385.755ZM427.247 415.886C425.791 416.685 423.94 416.268 422.976 414.873C421.946 413.384 422.319 411.342 423.809 410.312C425.626 409.057 427.459 407.826 429.306 406.616C430.817 405.608 432.852 406.05 433.846 407.564C434.838 409.078 434.413 411.112 432.899 412.104C431.097 413.282 429.309 414.483 427.536 415.708C427.443 415.773 427.345 415.832 427.247 415.886ZM467.021 393.277C466.952 393.315 466.881 393.35 466.809 393.385C464.852 394.282 462.903 395.205 460.969 396.152C459.341 396.947 457.377 396.274 456.582 394.647C455.788 393.019 456.54 391.092 458.087 390.26C460.072 389.291 462.066 388.346 464.073 387.424C465.718 386.669 467.665 387.392 468.421 389.036C469.143 390.608 468.515 392.457 467.021 393.277ZM443.806 405.35C442.255 406.202 440.297 405.666 439.4 404.129C438.485 402.566 439.012 400.556 440.575 399.645C442.482 398.529 444.401 397.44 446.334 396.373C446.337 396.37 446.34 396.369 446.342 396.367C447.925 395.499 449.915 396.074 450.789 397.657C451.663 399.242 451.089 401.238 449.503 402.112C447.617 403.155 445.743 404.219 443.883 405.305C443.859 405.321 443.833 405.336 443.806 405.35Z" fill="white"/>
<path d="M758.245 425.469C757.577 425.835 756.779 425.972 755.975 425.797C754.205 425.415 753.081 423.669 753.465 421.899C753.928 419.763 754.437 417.635 754.993 415.515C755.452 413.764 757.247 412.717 758.996 413.175C760.748 413.633 761.795 415.424 761.337 417.178C760.807 419.207 760.317 421.243 759.874 423.288C759.666 424.253 759.05 425.027 758.245 425.469ZM763.523 406.947C762.733 407.38 761.768 407.488 760.851 407.165C759.144 406.56 758.25 404.686 758.854 402.979C759.581 400.922 760.355 398.878 761.165 396.847C761.838 395.167 763.743 394.346 765.427 395.018C767.108 395.69 767.927 397.599 767.255 399.28C766.475 401.229 765.736 403.192 765.037 405.169C764.756 405.958 764.205 406.573 763.523 406.947ZM771.026 389.209C770.119 389.707 768.991 389.768 767.994 389.276C766.371 388.473 765.703 386.507 766.506 384.884C767.471 382.929 768.477 380.991 769.518 379.071C770.38 377.477 772.372 376.886 773.962 377.75C775.554 378.611 776.146 380.602 775.282 382.194C774.282 384.041 773.315 385.905 772.387 387.787C772.078 388.413 771.594 388.898 771.026 389.209ZM780.525 372.457C779.504 373.018 778.216 373.015 777.168 372.34C775.646 371.359 775.209 369.329 776.19 367.806C777.372 365.973 778.588 364.161 779.835 362.374C780.866 360.885 782.916 360.525 784.4 361.561C785.885 362.598 786.25 364.642 785.214 366.125C784.012 367.847 782.84 369.594 781.702 371.36C781.394 371.836 780.987 372.203 780.525 372.457ZM914.561 296.111C914.118 296.354 913.612 296.498 913.069 296.513C910.977 296.566 908.879 296.664 906.789 296.802C904.982 296.923 903.419 295.554 903.301 293.747C903.178 291.943 904.54 290.381 906.355 290.259C908.536 290.115 910.719 290.012 912.905 289.956C914.715 289.912 916.219 291.342 916.265 293.151C916.297 294.421 915.603 295.539 914.561 296.111ZM791.839 356.868C790.704 357.491 789.257 357.403 788.191 356.535C786.786 355.393 786.574 353.329 787.717 351.924C789.094 350.23 790.504 348.563 791.942 346.924C793.132 345.568 795.205 345.427 796.57 346.622C797.93 347.816 798.067 349.888 796.872 351.25C795.487 352.827 794.131 354.432 792.804 356.062C792.528 356.4 792.198 356.671 791.839 356.868ZM895.381 297.769C895.047 297.952 894.675 298.079 894.279 298.136C892.204 298.441 890.135 298.786 888.074 299.175C886.292 299.51 884.579 298.336 884.245 296.556C883.91 294.781 885.079 293.056 886.86 292.73C889.01 292.326 891.163 291.966 893.327 291.65C895.119 291.386 896.785 292.627 897.048 294.419C897.25 295.812 896.546 297.13 895.381 297.769ZM804.805 342.63C803.551 343.319 801.942 343.123 800.89 342.051C799.62 340.758 799.639 338.682 800.932 337.415C802.492 335.883 804.078 334.383 805.694 332.915C807.024 331.693 809.105 331.796 810.325 333.136C811.543 334.474 811.445 336.548 810.105 337.767C808.554 339.179 807.028 340.62 805.527 342.094C805.307 342.309 805.064 342.489 804.805 342.63ZM876.519 301.681C876.294 301.805 876.05 301.905 875.792 301.974C873.767 302.519 871.752 303.104 869.75 303.728C868.022 304.267 866.182 303.303 865.643 301.574C865.103 299.845 866.074 297.993 867.799 297.468C869.882 296.818 871.98 296.21 874.086 295.642C875.837 295.171 877.635 296.206 878.105 297.955C878.507 299.446 877.814 300.971 876.519 301.681ZM819.303 329.952C817.913 330.714 816.135 330.376 815.136 329.081C814.026 327.651 814.288 325.592 815.721 324.483C817.452 323.144 819.21 321.84 820.99 320.578C822.492 319.513 824.513 319.877 825.561 321.353C826.609 322.83 826.262 324.875 824.785 325.924C823.079 327.136 821.394 328.385 819.736 329.67C819.596 329.775 819.452 329.87 819.303 329.952ZM858.252 307.766C858.137 307.829 858.015 307.886 857.886 307.939C855.935 308.718 854.005 309.532 852.088 310.384C850.431 311.12 848.495 310.375 847.76 308.721C847.023 307.071 847.735 305.132 849.422 304.392C851.415 303.505 853.429 302.656 855.458 301.846C857.139 301.176 859.046 301.996 859.717 303.677C860.338 305.232 859.683 306.981 858.252 307.766ZM835.225 319.118C833.686 319.962 831.74 319.441 830.835 317.919C829.908 316.363 830.418 314.351 831.974 313.425C833.64 312.433 835.321 311.472 837.02 310.541L837.675 310.184C839.266 309.323 841.257 309.916 842.117 311.51C842.974 313.099 842.387 315.078 840.809 315.944C840.803 315.947 840.798 315.95 840.789 315.955L840.174 316.291C838.543 317.185 836.928 318.109 835.328 319.062C835.295 319.08 835.261 319.098 835.225 319.118Z" fill="white"/>
<path d="M930.766 296.517C930.227 296.813 929.597 296.962 928.94 296.909C927.872 296.827 926.804 296.757 925.733 296.697C923.925 296.596 922.542 295.047 922.642 293.241C922.742 291.431 924.295 290.044 926.1 290.151C927.216 290.214 928.33 290.288 929.443 290.373C931.251 290.512 932.601 292.088 932.46 293.895C932.373 295.04 931.704 296.003 930.766 296.517Z" fill="white"/>
<path d="M901.366 514.146C900.676 514.525 899.849 514.657 899.023 514.459C897.261 514.034 896.178 512.263 896.603 510.503C897.138 508.286 897.713 506.082 898.329 503.89C898.817 502.146 900.63 501.132 902.372 501.621C904.116 502.111 905.132 503.921 904.641 505.664C904.047 507.777 903.491 509.902 902.977 512.038C902.753 512.973 902.149 513.717 901.366 514.146ZM907.162 494.868C906.367 495.305 905.393 495.411 904.472 495.077C902.769 494.463 901.886 492.585 902.502 490.881C903.274 488.739 904.088 486.611 904.942 484.497C905.615 482.815 907.527 482.007 909.209 482.683C910.888 483.361 911.699 485.272 911.021 486.951C910.199 488.988 909.417 491.042 908.669 493.109C908.388 493.888 907.838 494.498 907.162 494.868ZM915.022 476.337C914.118 476.832 912.995 476.897 912.001 476.409C910.374 475.612 909.702 473.649 910.497 472.022C911.497 469.979 912.539 467.948 913.614 465.941C914.476 464.335 916.46 463.744 918.053 464.599C919.651 465.454 920.251 467.441 919.396 469.037C918.356 470.977 917.354 472.931 916.389 474.905C916.08 475.535 915.595 476.023 915.022 476.337ZM924.838 458.761C923.828 459.315 922.552 459.319 921.507 458.659C919.977 457.693 919.519 455.669 920.487 454.137C921.702 452.21 922.951 450.307 924.239 448.427C925.266 446.925 927.304 446.55 928.799 447.572C930.292 448.596 930.674 450.636 929.653 452.13C928.411 453.945 927.204 455.781 926.031 457.637C925.725 458.125 925.311 458.502 924.838 458.761ZM1063.14 374.436C1062.76 374.645 1062.33 374.782 1061.87 374.824C1059.67 375.023 1057.49 375.263 1055.31 375.542C1053.51 375.771 1051.87 374.5 1051.64 372.705C1051.42 370.905 1052.69 369.262 1054.48 369.036C1056.74 368.747 1059 368.499 1061.27 368.294C1063.08 368.129 1064.67 369.458 1064.84 371.262C1064.96 372.602 1064.25 373.829 1063.14 374.436ZM936.494 442.352C935.371 442.968 933.94 442.89 932.872 442.042C931.456 440.912 931.223 438.85 932.352 437.434C933.771 435.652 935.221 433.894 936.707 432.164C937.887 430.792 939.954 430.633 941.331 431.814C942.703 432.995 942.86 435.066 941.681 436.438C940.248 438.106 938.85 439.801 937.478 441.52C937.2 441.87 936.864 442.15 936.494 442.352ZM1043.23 377.36C1042.95 377.514 1042.64 377.629 1042.31 377.695C1040.15 378.135 1038.01 378.613 1035.87 379.131C1034.11 379.556 1032.34 378.473 1031.91 376.713C1031.48 374.952 1032.57 373.185 1034.33 372.757C1036.54 372.222 1038.76 371.729 1041 371.273C1042.77 370.911 1044.5 372.054 1044.86 373.83C1045.16 375.271 1044.46 376.687 1043.23 377.36ZM949.873 427.316C948.63 427.999 947.039 427.816 945.984 426.765C944.699 425.489 944.692 423.412 945.968 422.13C947.576 420.512 949.214 418.926 950.885 417.371C952.2 416.133 954.281 416.214 955.519 417.537C956.751 418.862 956.677 420.938 955.351 422.17C953.744 423.667 952.168 425.194 950.622 426.75C950.392 426.979 950.139 427.169 949.873 427.316ZM1023.75 382.438C1023.57 382.538 1023.38 382.622 1023.17 382.686C1021.07 383.36 1018.99 384.065 1016.92 384.809C1015.22 385.421 1013.34 384.538 1012.73 382.831C1012.11 381.13 1013.01 379.263 1014.7 378.638C1016.85 377.868 1019 377.137 1021.17 376.444C1022.89 375.891 1024.74 376.841 1025.29 378.567C1025.78 380.085 1025.1 381.698 1023.75 382.438ZM964.853 413.873C963.48 414.626 961.728 414.307 960.717 413.044C959.587 411.629 959.817 409.566 961.231 408.435C963.014 407.012 964.823 405.622 966.655 404.268C968.125 403.192 970.165 403.497 971.242 404.954C972.318 406.411 972.009 408.463 970.554 409.538C968.785 410.847 967.044 412.186 965.327 413.558C965.174 413.678 965.016 413.784 964.853 413.873ZM1004.94 389.589C1004.86 389.634 1004.77 389.676 1004.69 389.714C1002.68 390.605 1000.68 391.532 998.706 392.496C997.077 393.288 995.116 392.61 994.321 390.983C993.53 389.354 994.206 387.403 995.836 386.598C997.883 385.603 999.946 384.643 1002.03 383.719C1003.69 382.985 1005.62 383.733 1006.36 385.389C1007.05 386.957 1006.42 388.778 1004.94 389.589ZM981.254 402.208C979.747 403.035 977.836 402.554 976.907 401.08C975.941 399.547 976.4 397.526 977.932 396.558C979.859 395.343 981.808 394.164 983.778 393.021C983.802 393.006 983.825 392.994 983.847 392.981C985.402 392.127 987.363 392.666 988.261 394.208C989.168 395.776 988.636 397.782 987.07 398.69C985.168 399.796 983.289 400.932 981.427 402.105C981.371 402.141 981.313 402.175 981.254 402.208Z" fill="white"/>
<path d="M1079.91 373.708C1079.43 373.966 1078.89 374.113 1078.32 374.111C1077.24 374.106 1076.17 374.114 1075.09 374.128C1073.28 374.151 1071.8 372.703 1071.77 370.893C1071.75 369.082 1073.19 367.597 1075.01 367.571C1076.12 367.556 1077.23 367.549 1078.35 367.553C1080.16 367.56 1081.62 369.033 1081.61 370.845C1081.61 372.079 1080.92 373.153 1079.91 373.708Z" fill="white"/>
<path d="M1269.6 607.635C1268.54 608.216 1267.21 608.19 1266.15 607.455C1264.35 606.201 1262.58 604.911 1260.84 603.585C1259.4 602.486 1259.12 600.431 1260.21 598.988C1261.31 597.548 1263.37 597.268 1264.81 598.366C1266.48 599.638 1268.18 600.873 1269.9 602.072C1271.38 603.104 1271.75 605.15 1270.71 606.634C1270.41 607.066 1270.03 607.4 1269.6 607.635ZM1254.5 595.629C1253.31 596.282 1251.79 596.149 1250.73 595.188C1249.1 593.721 1247.5 592.218 1245.94 590.684C1244.65 589.417 1244.63 587.341 1245.9 586.045C1247.17 584.759 1249.25 584.74 1250.54 586.006C1252.03 587.476 1253.56 588.913 1255.12 590.322C1256.46 591.534 1256.57 593.61 1255.36 594.952C1255.1 595.232 1254.81 595.458 1254.5 595.629ZM1241 581.847C1239.67 582.573 1237.98 582.309 1236.95 581.121C1235.51 579.466 1234.11 577.785 1232.74 576.077C1231.61 574.662 1231.84 572.596 1233.25 571.467C1234.69 570.335 1236.73 570.566 1237.86 571.981C1239.17 573.619 1240.52 575.234 1241.9 576.819C1243.08 578.187 1242.94 580.257 1241.57 581.446C1241.39 581.605 1241.2 581.736 1241 581.847ZM1229.23 566.56C1227.77 567.364 1225.91 566.937 1224.95 565.528C1223.72 563.721 1222.52 561.886 1221.36 560.033C1220.41 558.499 1220.87 556.477 1222.41 555.516C1223.91 554.573 1225.96 555.022 1226.92 556.559C1228.04 558.339 1229.19 560.098 1230.37 561.839C1231.39 563.337 1231 565.374 1229.5 566.392C1229.41 566.456 1229.32 566.509 1229.23 566.56ZM1219.32 550.006C1219.3 550.016 1219.28 550.026 1219.26 550.037C1217.66 550.877 1215.68 550.258 1214.83 548.652C1213.82 546.715 1212.84 544.759 1211.91 542.79C1211.13 541.154 1211.86 539.196 1213.45 538.421C1215.09 537.64 1217.05 538.334 1217.82 539.968C1218.73 541.861 1219.67 543.746 1220.65 545.61C1221.47 547.193 1220.88 549.149 1219.32 550.006ZM1211.36 532.43C1211.23 532.499 1211.1 532.562 1210.96 532.616C1209.27 533.269 1207.37 532.426 1206.72 530.738C1205.93 528.697 1205.18 526.64 1204.47 524.569C1203.89 522.857 1204.79 521.005 1206.52 520.406C1208.23 519.821 1210.1 520.736 1210.68 522.45C1211.36 524.441 1212.08 526.414 1212.84 528.375C1213.44 529.924 1212.78 531.652 1211.36 532.43ZM1205.47 514.054C1205.23 514.184 1204.98 514.287 1204.7 514.357C1202.95 514.808 1201.17 513.75 1200.71 511.995C1200.17 509.876 1199.67 507.747 1199.21 505.608C1198.83 503.841 1199.95 502.092 1201.72 501.713C1203.49 501.331 1205.24 502.454 1205.62 504.226C1206.06 506.28 1206.54 508.329 1207.07 510.366C1207.45 511.847 1206.75 513.351 1205.47 514.054ZM1201.79 495.118C1201.44 495.307 1201.06 495.438 1200.64 495.494C1198.85 495.733 1197.2 494.472 1196.96 492.675C1196.67 490.505 1196.43 488.322 1196.23 486.142C1196.07 484.337 1197.4 482.732 1199.2 482.584C1201 482.42 1202.6 483.751 1202.76 485.555C1202.95 487.643 1203.18 489.727 1203.46 491.811C1203.65 493.193 1202.94 494.486 1201.79 495.118ZM1200.43 475.876C1199.97 476.128 1199.44 476.276 1198.88 476.277C1197.07 476.289 1195.59 474.831 1195.58 473.022C1195.57 470.832 1195.6 468.638 1195.68 466.447C1195.74 464.643 1197.26 463.23 1199.07 463.291C1200.88 463.356 1202.3 464.877 1202.23 466.687C1202.16 468.78 1202.12 470.879 1202.14 472.976C1202.15 474.224 1201.46 475.315 1200.43 475.876ZM1201.55 456.618C1200.97 456.938 1200.29 457.083 1199.57 456.996C1197.78 456.772 1196.5 455.134 1196.72 453.335C1196.86 452.241 1197.01 451.145 1197.17 450.05C1197.32 448.97 1197.49 447.895 1197.68 446.823C1197.98 445.04 1199.67 443.835 1201.46 444.138C1203.24 444.443 1204.45 446.136 1204.14 447.92C1203.97 448.943 1203.81 449.964 1203.66 450.993C1203.51 452.043 1203.36 453.094 1203.23 454.148C1203.1 455.233 1202.45 456.128 1201.55 456.618ZM1205.2 437.67C1204.49 438.059 1203.64 438.188 1202.79 437.968C1201.04 437.508 1199.99 435.716 1200.45 433.965C1201.01 431.845 1201.61 429.733 1202.25 427.641C1202.78 425.914 1204.62 424.941 1206.35 425.473C1208.08 426.003 1209.05 427.841 1208.52 429.572C1207.9 431.574 1207.33 433.592 1206.8 435.626C1206.56 436.535 1205.96 437.253 1205.2 437.67ZM1211.27 419.354C1210.44 419.811 1209.42 419.904 1208.47 419.522C1206.79 418.845 1205.98 416.934 1206.65 415.256C1207.47 413.226 1208.33 411.214 1209.23 409.221C1209.97 407.561 1211.91 406.833 1213.56 407.574C1215.21 408.318 1215.95 410.259 1215.21 411.908C1214.35 413.822 1213.52 415.759 1212.74 417.704C1212.44 418.437 1211.91 419.003 1211.27 419.354ZM1219.56 401.935C1218.6 402.459 1217.41 402.495 1216.39 401.93C1214.81 401.055 1214.23 399.06 1215.11 397.476C1216.17 395.564 1217.26 393.671 1218.39 391.799C1219.32 390.248 1221.33 389.748 1222.89 390.682C1224.44 391.617 1224.94 393.631 1224 395.182C1222.92 396.986 1221.87 398.805 1220.85 400.647C1220.54 401.211 1220.08 401.648 1219.56 401.935ZM1229.86 385.622C1228.78 386.21 1227.43 386.173 1226.37 385.414C1224.89 384.36 1224.56 382.313 1225.61 380.84C1226.88 379.061 1228.19 377.309 1229.53 375.581C1230.65 374.15 1232.7 373.896 1234.13 375.004C1235.56 376.116 1235.82 378.174 1234.71 379.606C1233.42 381.263 1232.17 382.948 1230.94 384.657C1230.65 385.071 1230.27 385.394 1229.86 385.622ZM1241.97 370.607C1240.78 371.259 1239.26 371.125 1238.19 370.164C1236.85 368.947 1236.75 366.873 1237.96 365.532C1239.43 363.91 1240.93 362.318 1242.47 360.752C1243.74 359.455 1245.81 359.438 1247.1 360.708C1248.4 361.974 1248.42 364.051 1247.15 365.344C1245.68 366.845 1244.24 368.377 1242.83 369.935C1242.57 370.212 1242.28 370.437 1241.97 370.607ZM1255.72 357.081C1254.4 357.804 1252.72 357.543 1251.68 356.368C1250.49 355.006 1250.62 352.935 1251.98 351.739C1253.63 350.296 1255.3 348.888 1257 347.51C1258.4 346.362 1260.47 346.583 1261.61 347.991C1262.76 349.395 1262.54 351.46 1261.13 352.6C1259.5 353.926 1257.89 355.283 1256.31 356.669C1256.13 356.83 1255.93 356.969 1255.72 357.081ZM1311.13 325.206C1310.96 325.302 1310.77 325.384 1310.57 325.449C1308.58 326.101 1306.6 326.797 1304.63 327.534C1302.94 328.169 1301.05 327.315 1300.41 325.619C1299.78 323.925 1300.64 322.034 1302.33 321.396C1304.38 320.624 1306.45 319.901 1308.53 319.217C1310.25 318.653 1312.1 319.591 1312.67 321.31C1313.17 322.833 1312.49 324.462 1311.13 325.206ZM1270.95 345.22C1269.49 346.019 1267.63 345.601 1266.67 344.205C1265.64 342.712 1266.02 340.672 1267.51 339.643C1269.31 338.402 1271.14 337.196 1272.98 336.026C1274.5 335.087 1276.54 335.512 1277.51 337.042C1278.48 338.571 1278.02 340.595 1276.49 341.567C1274.72 342.688 1272.97 343.849 1271.23 345.043C1271.14 345.107 1271.04 345.168 1270.95 345.22ZM1293.22 332.356C1293.16 332.387 1293.1 332.415 1293.04 332.444C1291.15 333.345 1289.27 334.285 1287.41 335.261C1285.8 336.104 1283.82 335.487 1282.98 333.884C1282.13 332.28 1282.84 330.246 1284.35 329.456C1286.29 328.436 1288.26 327.458 1290.23 326.52C1291.87 325.744 1293.82 326.439 1294.6 328.076C1295.35 329.654 1294.73 331.528 1293.22 332.356Z" fill="white"/>
<path d="M1326.8 321.026C1326.52 321.18 1326.21 321.294 1325.88 321.361C1324.84 321.576 1323.8 321.806 1322.76 322.048C1320.99 322.463 1319.23 321.367 1318.82 319.603C1318.41 317.839 1319.5 316.074 1321.26 315.664C1322.36 315.407 1323.46 315.165 1324.56 314.94C1326.34 314.575 1328.07 315.719 1328.43 317.492C1328.73 318.935 1328.03 320.351 1326.8 321.026Z" fill="white"/>
<path d="M1499.15 295.546C1498.47 295.922 1497.64 296.055 1496.82 295.863C1494.68 295.36 1492.52 294.886 1490.36 294.451C1488.59 294.092 1487.44 292.363 1487.79 290.589C1488.15 288.819 1489.88 287.66 1491.66 288.022C1493.88 288.471 1496.11 288.956 1498.32 289.479C1500.08 289.894 1501.18 291.66 1500.76 293.421C1500.54 294.366 1499.94 295.115 1499.15 295.546ZM1265.63 419.725C1264.82 420.168 1263.83 420.271 1262.89 419.918C1261.2 419.28 1260.34 417.387 1260.98 415.692C1261.79 413.563 1262.63 411.445 1263.5 409.342C1264.2 407.666 1266.12 406.883 1267.79 407.578C1269.46 408.275 1270.25 410.195 1269.56 411.867C1268.71 413.902 1267.89 415.948 1267.12 418.009C1266.83 418.769 1266.29 419.36 1265.63 419.725ZM1479.33 291.912C1478.74 292.235 1478.04 292.382 1477.33 292.286C1475.14 291.999 1472.95 291.749 1470.76 291.536C1468.96 291.361 1467.64 289.76 1467.81 287.955C1467.98 286.152 1469.59 284.838 1471.39 285.008C1473.66 285.228 1475.92 285.487 1478.18 285.785C1479.97 286.019 1481.24 287.667 1481 289.461C1480.86 290.541 1480.21 291.427 1479.33 291.912ZM1273.7 401.255C1272.79 401.753 1271.65 401.812 1270.65 401.316C1269.03 400.508 1268.38 398.538 1269.18 396.92C1270.2 394.88 1271.25 392.86 1272.33 390.856C1273.2 389.268 1275.18 388.668 1276.78 389.534C1278.37 390.399 1278.96 392.387 1278.1 393.981C1277.05 395.916 1276.03 397.873 1275.05 399.844C1274.74 400.466 1274.26 400.945 1273.7 401.255ZM1459.24 290.289C1458.74 290.562 1458.17 290.707 1457.56 290.69C1455.36 290.623 1453.16 290.593 1450.95 290.598C1449.14 290.603 1447.67 289.138 1447.66 287.329C1447.66 285.516 1449.13 284.041 1450.93 284.042C1453.21 284.035 1455.49 284.067 1457.76 284.136C1459.57 284.189 1460.99 285.702 1460.94 287.515C1460.91 288.717 1460.22 289.749 1459.24 290.289ZM1283.58 383.694C1282.57 384.249 1281.3 384.254 1280.25 383.594C1278.72 382.626 1278.26 380.602 1279.23 379.07C1280.45 377.148 1281.69 375.245 1282.96 373.359C1283.98 371.849 1286.02 371.465 1287.52 372.479C1289.02 373.494 1289.41 375.531 1288.4 377.033C1287.16 378.863 1285.95 380.707 1284.78 382.574C1284.47 383.058 1284.06 383.436 1283.58 383.694ZM1439.08 290.67C1438.68 290.891 1438.22 291.032 1437.73 291.064C1435.53 291.215 1433.33 291.398 1431.14 291.623C1429.34 291.804 1427.73 290.492 1427.55 288.689C1427.37 286.885 1428.69 285.283 1430.48 285.096C1432.75 284.869 1435.02 284.677 1437.29 284.522C1439.09 284.398 1440.66 285.762 1440.78 287.568C1440.87 288.886 1440.17 290.074 1439.08 290.67ZM1295.16 367.2C1294.05 367.812 1292.63 367.744 1291.57 366.915C1290.14 365.8 1289.88 363.742 1291 362.314C1292.4 360.517 1293.82 358.744 1295.28 356.993C1296.44 355.607 1298.51 355.413 1299.9 356.575C1301.29 357.733 1301.48 359.8 1300.32 361.192C1298.91 362.886 1297.52 364.605 1296.17 366.341C1295.89 366.705 1295.54 366.992 1295.16 367.2ZM1419.08 293.023C1418.76 293.195 1418.41 293.321 1418.04 293.382C1415.87 293.747 1413.7 294.147 1411.54 294.586C1409.77 294.946 1408.03 293.8 1407.67 292.025C1407.32 290.249 1408.47 288.523 1410.23 288.158C1412.47 287.708 1414.7 287.291 1416.95 286.915C1418.74 286.615 1420.43 287.82 1420.73 289.605C1420.97 291.021 1420.26 292.372 1419.08 293.023ZM1308.3 351.923C1307.09 352.592 1305.53 352.434 1304.47 351.426C1303.16 350.18 1303.1 348.105 1304.35 346.791C1305.92 345.139 1307.51 343.515 1309.13 341.919C1310.41 340.642 1312.5 340.662 1313.77 341.951C1315.04 343.24 1315.03 345.317 1313.74 346.587C1312.17 348.137 1310.62 349.71 1309.1 351.306C1308.86 351.558 1308.59 351.765 1308.3 351.923ZM1399.39 297.34C1399.17 297.463 1398.93 297.56 1398.67 297.632C1396.54 298.209 1394.43 298.826 1392.32 299.472C1390.59 300.005 1388.76 299.034 1388.22 297.306C1387.69 295.575 1388.68 293.742 1390.39 293.207C1392.57 292.535 1394.75 291.901 1396.95 291.301C1398.7 290.828 1400.5 291.86 1400.98 293.607C1401.38 295.097 1400.69 296.628 1399.39 297.34ZM1322.89 338.017C1321.56 338.746 1319.86 338.477 1318.83 337.283C1317.65 335.914 1317.8 333.843 1319.17 332.66C1320.89 331.171 1322.65 329.713 1324.42 328.284C1325.83 327.143 1327.89 327.368 1329.03 328.779C1330.16 330.19 1329.95 332.254 1328.53 333.389C1326.82 334.773 1325.13 336.183 1323.46 337.621C1323.28 337.778 1323.09 337.908 1322.89 338.017ZM1380.23 303.61C1380.1 303.681 1379.97 303.743 1379.83 303.798C1377.77 304.586 1375.73 305.413 1373.71 306.273C1372.04 306.98 1370.11 306.202 1369.41 304.539C1368.7 302.873 1369.52 300.955 1371.14 300.238C1373.24 299.346 1375.35 298.494 1377.48 297.674C1379.17 297.025 1381.06 297.869 1381.71 299.561C1382.31 301.109 1381.65 302.833 1380.23 303.61ZM1338.8 325.641C1337.35 326.435 1335.5 326.029 1334.54 324.644C1333.5 323.161 1333.86 321.117 1335.34 320.078C1337.21 318.774 1339.1 317.499 1341.01 316.257C1342.55 315.234 1344.56 315.705 1345.54 317.221C1346.53 318.739 1346.1 320.769 1344.58 321.756C1342.73 322.956 1340.91 324.187 1339.1 325.451C1339 325.521 1338.9 325.584 1338.8 325.641ZM1361.82 311.802C1361.8 311.817 1361.77 311.833 1361.74 311.849C1360.76 312.349 1359.79 312.853 1358.82 313.366C1358.1 313.75 1357.38 314.137 1356.66 314.53L1355.89 314.958C1354.3 315.83 1352.31 315.25 1351.44 313.66C1350.56 312.072 1351.14 310.081 1352.73 309.208L1353.48 308.797C1353.49 308.791 1353.5 308.785 1353.51 308.777C1354.27 308.36 1355.02 307.961 1355.76 307.568C1356.75 307.042 1357.75 306.522 1358.75 306.009C1360.37 305.185 1362.34 305.822 1363.17 307.433C1363.98 309.019 1363.37 310.954 1361.82 311.802Z" fill="white"/>
<path d="M1515.29 300.119C1514.51 300.543 1513.57 300.655 1512.67 300.354C1511.65 300.012 1510.63 299.685 1509.61 299.366C1507.88 298.828 1506.91 296.991 1507.46 295.263C1507.99 293.536 1509.83 292.569 1511.56 293.11C1512.63 293.442 1513.69 293.783 1514.75 294.137C1516.47 294.71 1517.39 296.569 1516.82 298.287C1516.54 299.1 1515.98 299.737 1515.29 300.119Z" fill="white"/>
<path d="M1311.17 594.329C1310.47 594.709 1309.64 594.84 1308.81 594.641C1307.05 594.211 1305.98 592.44 1306.4 590.679C1306.93 588.517 1307.47 586.351 1308.02 584.187C1308.47 582.435 1310.25 581.375 1312 581.816C1313.76 582.264 1314.82 584.048 1314.37 585.804C1313.83 587.945 1313.3 590.084 1312.78 592.229C1312.55 593.162 1311.94 593.902 1311.17 594.329ZM1316.2 575.007C1315.48 575.404 1314.61 575.529 1313.75 575.291C1312 574.806 1310.98 572.999 1311.47 571.254C1312.07 569.098 1312.68 566.952 1313.31 564.807C1313.81 563.064 1315.64 562.082 1317.38 562.585C1319.12 563.096 1320.11 564.918 1319.6 566.656C1318.98 568.77 1318.38 570.89 1317.79 573.011C1317.54 573.899 1316.95 574.597 1316.2 575.007ZM1321.93 555.874C1321.17 556.291 1320.25 556.408 1319.36 556.123C1317.63 555.568 1316.68 553.723 1317.23 551.999C1317.92 549.871 1318.61 547.748 1319.33 545.628C1319.91 543.915 1321.76 542.99 1323.48 543.566C1325.2 544.143 1326.12 546.002 1325.54 547.719C1324.84 549.809 1324.15 551.9 1323.48 554C1323.21 554.832 1322.64 555.484 1321.93 555.874ZM1328.45 536.995C1327.64 537.435 1326.66 537.537 1325.73 537.196C1324.03 536.564 1323.17 534.676 1323.79 532.98C1324.57 530.885 1325.36 528.792 1326.17 526.707C1326.83 525.015 1328.74 524.182 1330.42 524.836C1332.11 525.491 1332.94 527.391 1332.29 529.08C1331.49 531.135 1330.71 533.192 1329.95 535.26C1329.66 536.029 1329.11 536.628 1328.45 536.995ZM1335.85 518.44C1334.99 518.91 1333.94 518.995 1332.97 518.581C1331.31 517.865 1330.54 515.938 1331.25 514.273C1332.13 512.217 1333.04 510.167 1333.96 508.125C1334.7 506.466 1336.64 505.733 1338.29 506.479C1339.94 507.222 1340.68 509.163 1339.94 510.812C1339.03 512.825 1338.15 514.838 1337.28 516.86C1336.98 517.558 1336.46 518.101 1335.85 518.44ZM1344.22 500.315C1343.31 500.813 1342.18 500.873 1341.18 500.377C1339.56 499.573 1338.9 497.606 1339.7 495.984C1340.7 493.973 1341.72 491.975 1342.76 489.989C1343.6 488.377 1345.58 487.769 1347.19 488.61C1348.79 489.45 1349.41 491.431 1348.57 493.035C1347.55 494.977 1346.56 496.934 1345.58 498.898C1345.27 499.524 1344.79 500.003 1344.22 500.315ZM1353.67 482.721C1352.7 483.256 1351.48 483.281 1350.45 482.686C1348.89 481.781 1348.35 479.774 1349.26 478.205C1350.38 476.264 1351.53 474.334 1352.7 472.417C1353.65 470.871 1355.66 470.38 1357.2 471.326C1358.75 472.27 1359.24 474.29 1358.3 475.833C1357.15 477.706 1356.03 479.591 1354.93 481.491C1354.62 482.026 1354.18 482.444 1353.67 482.721ZM1364.27 465.801C1363.22 466.373 1361.9 466.357 1360.85 465.642C1359.35 464.626 1358.95 462.59 1359.97 461.089C1361.23 459.231 1362.51 457.385 1363.81 455.56C1364.87 454.091 1366.92 453.74 1368.38 454.794C1369.86 455.844 1370.2 457.894 1369.15 459.367C1367.88 461.154 1366.63 462.952 1365.4 464.766C1365.1 465.212 1364.71 465.559 1364.27 465.801ZM1376.07 449.704C1374.95 450.319 1373.52 450.244 1372.45 449.398C1371.03 448.273 1370.8 446.212 1371.92 444.793C1372.64 443.886 1373.37 442.978 1374.1 442.075L1376.18 439.572C1377.33 438.185 1379.4 437.992 1380.79 439.154C1382.19 440.315 1382.37 442.383 1381.21 443.771L1379.19 446.222C1378.48 447.093 1377.76 447.977 1377.06 448.867C1376.78 449.218 1376.44 449.499 1376.07 449.704ZM1517.52 371.882C1517.09 372.117 1516.59 372.261 1516.07 372.281C1513.89 372.366 1511.73 372.496 1509.57 372.674C1507.76 372.825 1506.18 371.48 1506.03 369.675C1505.88 367.872 1507.22 366.278 1509.03 366.139C1511.29 365.952 1513.55 365.817 1515.81 365.729C1517.62 365.657 1519.15 367.066 1519.22 368.877C1519.27 370.164 1518.57 371.303 1517.52 371.882ZM1389.13 434.617C1387.92 435.284 1386.36 435.129 1385.3 434.126C1383.99 432.879 1383.93 430.803 1385.17 429.489C1386.72 427.856 1388.3 426.242 1389.9 424.652C1391.18 423.378 1393.26 423.385 1394.53 424.669C1395.81 425.953 1395.8 428.03 1394.52 429.306C1392.96 430.848 1391.44 432.411 1389.94 433.996C1389.69 434.251 1389.43 434.457 1389.13 434.617ZM1497.68 373.935C1497.36 374.106 1497.02 374.23 1496.65 374.294C1494.5 374.656 1492.37 375.062 1490.24 375.513C1488.47 375.89 1486.73 374.76 1486.35 372.989C1485.97 371.22 1487.1 369.477 1488.88 369.102C1491.09 368.63 1493.32 368.207 1495.55 367.827C1497.34 367.525 1499.03 368.727 1499.33 370.51C1499.57 371.927 1498.86 373.282 1497.68 373.935ZM1403.5 420.753C1402.18 421.473 1400.5 421.218 1399.46 420.046C1398.26 418.688 1398.39 416.614 1399.75 415.419C1401.44 413.929 1403.15 412.465 1404.88 411.026C1406.28 409.842 1408.34 410.064 1409.5 411.452C1410.66 412.844 1410.47 414.913 1409.07 416.068C1407.39 417.467 1405.73 418.888 1404.09 420.335C1403.9 420.499 1403.7 420.64 1403.5 420.753ZM1478.23 378.459C1478.03 378.57 1477.81 378.661 1477.59 378.729C1475.5 379.345 1473.42 380.006 1471.36 380.704C1469.64 381.285 1467.78 380.365 1467.2 378.649C1466.62 376.937 1467.51 375.069 1469.26 374.494C1471.4 373.767 1473.55 373.086 1475.72 372.441C1477.46 371.927 1479.28 372.919 1479.8 374.653C1480.24 376.161 1479.56 377.734 1478.23 378.459ZM1419.05 408.242C1417.63 409.022 1415.82 408.647 1414.83 407.303C1413.76 405.842 1414.08 403.791 1415.54 402.721C1417.36 401.386 1419.2 400.084 1421.06 398.813C1422.63 397.766 1424.59 398.174 1425.62 399.665C1426.64 401.16 1426.26 403.204 1424.77 404.223C1422.96 405.456 1421.18 406.72 1419.41 408.009C1419.3 408.096 1419.17 408.173 1419.05 408.242ZM1459.45 385.197C1459.35 385.251 1459.25 385.299 1459.14 385.346C1457.13 386.192 1455.14 387.076 1453.16 387.997C1451.52 388.759 1449.57 388.047 1448.81 386.407C1448.05 384.765 1448.8 382.851 1450.4 382.05C1452.45 381.097 1454.51 380.179 1456.59 379.301C1458.26 378.597 1460.18 379.38 1460.89 381.05C1461.55 382.613 1460.9 384.398 1459.45 385.197ZM1435.71 397.231C1434.16 398.077 1432.22 397.554 1431.31 396.029C1430.39 394.474 1430.9 392.462 1432.46 391.537C1434.4 390.382 1436.35 389.262 1438.33 388.173L1438.33 388.172C1439.92 387.301 1441.91 387.879 1442.78 389.466C1443.66 391.051 1443.08 393.045 1441.49 393.919C1439.58 394.971 1437.68 396.058 1435.8 397.173C1435.77 397.194 1435.74 397.213 1435.71 397.231Z" fill="white"/>
<path d="M967.348 280.229C954.573 280.229 944.217 290.585 944.217 303.36C944.217 331.763 967.347 356.055 967.347 356.055C967.347 356.055 990.475 331.765 990.477 303.364V303.36C990.479 290.585 980.123 280.229 967.348 280.229ZM967.348 313.657C961.67 313.657 957.051 309.038 957.051 303.36C957.051 297.681 961.67 293.063 967.348 293.063C973.026 293.063 977.645 297.681 977.645 303.36C977.645 309.038 973.026 313.657 967.348 313.657Z" fill="#FF4A4A"/>
<path d="M1360.56 318.759C1347.79 318.759 1337.43 329.115 1337.43 341.89C1337.43 370.293 1360.56 394.585 1360.56 394.585C1360.56 394.585 1383.69 370.297 1383.69 341.894V341.89C1383.69 329.115 1373.34 318.759 1360.56 318.759ZM1360.56 352.187C1354.88 352.187 1350.26 347.568 1350.26 341.89C1350.26 336.212 1354.88 331.593 1360.56 331.593C1366.24 331.593 1370.86 336.212 1370.86 341.89C1370.86 347.568 1366.24 352.187 1360.56 352.187Z" fill="#FF4A4A"/>
<path d="M1122.29 369.525C1109.52 369.525 1099.16 379.882 1099.16 392.656C1099.16 421.06 1122.29 445.352 1122.29 445.352C1122.29 445.352 1145.42 421.062 1145.42 392.661V392.656C1145.42 379.882 1135.07 369.525 1122.29 369.525ZM1122.29 402.953C1116.61 402.953 1111.99 398.335 1111.99 392.655C1111.99 386.978 1116.61 382.358 1122.29 382.358C1127.97 382.358 1132.59 386.978 1132.59 392.655C1132.59 398.335 1127.97 402.953 1122.29 402.953Z" fill="#FF4A4A"/>
<path d="M365.735 366.366C352.96 366.366 342.604 376.722 342.604 389.497C342.604 417.901 365.735 442.193 365.735 442.193C365.735 442.193 388.863 417.903 388.866 389.501V389.496C388.866 376.722 378.51 366.366 365.735 366.366ZM365.735 399.795C360.057 399.795 355.438 395.175 355.438 389.497C355.438 383.819 360.057 379.2 365.735 379.2C371.413 379.2 376.032 383.819 376.032 389.497C376.032 395.175 371.413 399.795 365.735 399.795Z" fill="#FF4A4A"/>
<path d="M522.075 280.599C509.3 280.599 498.944 290.955 498.944 303.729C498.944 332.132 522.075 356.424 522.075 356.424C522.075 356.424 545.202 332.134 545.205 303.733V303.728C545.206 290.955 534.849 280.599 522.075 280.599ZM522.075 314.028C516.396 314.028 511.777 309.408 511.777 303.73C511.777 298.051 516.396 293.433 522.075 293.433C527.753 293.433 532.372 298.051 532.372 303.73C532.372 309.408 527.753 314.028 522.075 314.028Z" fill="#FF4A4A"/>
<path d="M931.242 433.228L950.766 408.188L966.714 405.411L960.071 428.924L931.242 433.228Z" fill="#BAECFE"/>
<path d="M1012.98 392.267L998.137 421.572L1013.95 418.758L1019.53 391.35L1012.98 392.267Z" fill="white"/>
<path d="M1024.76 390.617L1019.53 391.349L1013.95 418.758L1021.73 417.374L1024.76 390.617Z" fill="#5088CE"/>
<path opacity="0.51" d="M1174.31 305.782C1173.51 305.674 1172.69 305.558 1171.86 305.435C1162.89 304.093 1153.61 304.931 1145 307.783C1137.36 310.317 1131.05 311.758 1123.02 308.558C1118.21 306.64 1114.22 302.849 1109.21 301.542C1100.48 299.265 1091 305.068 1082.43 302.268C1074.72 299.748 1070.57 290.401 1072.41 282.502C1074.25 274.602 1080.93 268.459 1088.5 265.541C1096.07 262.624 1104.43 262.518 1112.51 263.296C1120.58 264.075 1128.57 265.697 1136.67 266.104C1150.57 266.803 1164.42 263.915 1178.33 264.103C1185.12 264.195 1191.89 265.022 1198.5 266.565C1203.17 267.655 1208 269.252 1211.2 272.826C1214.54 276.559 1215.55 282.058 1214.36 286.925C1213.17 291.793 1209.98 296.025 1206.01 299.083C1195.72 307.02 1186.14 307.363 1174.31 305.782Z" fill="#1641B7"/>
<path d="M1143.25 290.078C1165.05 291.004 1187.05 283.565 1203.96 269.791C1199.51 277.367 1193.37 284.844 1186.98 289.616C1166.45 297.362 1134.69 302.691 1099.28 287.733C1094.08 283.407 1089.67 276.709 1086.32 270.484C1101.98 283.14 1123.02 289.219 1143.25 290.078Z" fill="white"/>
<path d="M1209.55 257.587C1208.37 261.393 1206.42 265.607 1203.96 269.791C1187.06 283.565 1165.05 291.004 1143.25 290.078C1123.02 289.219 1101.98 283.14 1086.32 270.484C1081.91 262.272 1079.36 254.887 1079.36 254.887L1209.55 257.587Z" fill="#FF4A4A"/>
<path d="M1079.36 254.886C1095.29 272.669 1120.32 280.91 1144.18 281.923C1168.04 282.936 1192.16 273.955 1209.55 257.587C1191.75 244.113 1169.99 238.459 1147.68 239.273C1125.36 240.087 1100.91 249.048 1079.36 254.886Z" fill="#BAECFE"/>
<path d="M1176.73 252.011H1176.72C1177.14 252.756 1177.43 253.558 1177.57 254.414C1178.52 260.39 1172.06 264.719 1166.37 266.771C1145.83 274.174 1122.53 273.607 1102.38 265.214C1097.43 263.154 1091.95 259.473 1092.22 254.122C1092.27 253.151 1092.53 252.23 1092.94 251.37L1092.85 251.369L1099.44 236.114L1169.38 236.353L1176.73 252.011Z" fill="white"/>
<path d="M1169.38 236.353C1168.96 233.689 1166.69 231.612 1164.17 230.64C1161.66 229.668 1158.89 229.601 1156.2 229.546C1142.02 229.255 1127.83 228.965 1113.65 228.675C1110.68 228.614 1107.62 228.567 1104.83 229.629C1102.05 230.691 1099.59 233.142 1099.44 236.114C1099.21 240.499 1103.71 243.515 1107.76 245.204C1124.28 252.082 1143.37 252.547 1160.2 246.48C1164.86 244.799 1170.16 241.25 1169.38 236.353Z" fill="#BAECFE"/>
<path d="M1107.67 227.258C1110.06 227.652 1112.52 227.569 1114.88 227.016C1115.84 226.792 1116.81 226.474 1117.57 225.837C1118.11 225.375 1118.51 224.71 1118.61 224.016C1119.84 229.413 1120.88 234.048 1120.88 234.048C1121.12 235.088 1120.58 236.191 1119.77 236.88C1118.95 237.568 1117.9 237.912 1116.87 238.155C1114.32 238.753 1111.65 238.842 1109.07 238.416C1107.9 238.224 1106.72 237.913 1105.77 237.211C1104.81 236.51 1104.13 235.35 1104.27 234.175C1104.4 231.417 1103.96 227.997 1103.63 225.035C1103.88 225.464 1104.21 225.851 1104.61 226.144C1105.49 226.792 1106.59 227.08 1107.67 227.258Z" fill="white"/>
<path d="M1117.59 219.5C1117.93 221.011 1118.28 222.54 1118.61 224.015C1118.51 224.71 1118.11 225.374 1117.57 225.836C1116.81 226.474 1115.84 226.791 1114.88 227.015C1112.52 227.568 1110.06 227.651 1107.67 227.257C1106.59 227.079 1105.49 226.791 1104.61 226.142C1104.21 225.849 1103.88 225.461 1103.63 225.033C1103.37 222.795 1103.17 220.809 1103.33 219.608L1117.59 219.5Z" fill="#FF4A4A"/>
<path d="M1107.45 223.249C1106.45 223.084 1105.43 222.817 1104.61 222.215C1103.8 221.613 1103.21 220.617 1103.33 219.608C1103.46 218.475 1104.46 217.594 1105.54 217.242C1106.63 216.889 1107.8 216.96 1108.94 217.035C1110.45 217.134 1111.97 217.233 1113.48 217.332C1114.31 217.386 1115.16 217.444 1115.93 217.757C1116.7 218.07 1117.4 218.688 1117.59 219.5C1117.79 220.391 1117.33 221.338 1116.63 221.93C1115.93 222.521 1115.03 222.815 1114.14 223.024C1111.95 223.538 1109.67 223.614 1107.45 223.249Z" fill="#3E3C5F"/>
<path d="M1103.44 214.847C1101.01 209.915 1095.33 206.796 1089.86 207.386C1084.39 207.975 1079.51 212.233 1078.18 217.57C1077.38 220.792 1077.78 224.189 1077.34 227.479C1076.9 230.77 1075.23 234.298 1072.05 235.275C1068.17 236.469 1063.81 233.36 1060.06 234.893C1057.75 235.833 1056.42 238.282 1055.81 240.695C1055.21 243.107 1055.14 245.64 1054.42 248.02C1052.47 254.415 1045.33 258.755 1038.76 257.539C1032.18 256.322 1027.07 249.718 1027.54 243.049C1024.66 248.138 1018.08 250.799 1012.47 249.139C1006.87 247.479 1002.79 241.664 1003.15 235.828C1000.01 233.538 996.832 231.214 994.359 228.216C991.886 225.217 990.152 221.419 990.403 217.54C990.653 213.661 993.235 209.816 997.001 208.856C1000.77 207.895 1005.27 210.622 1005.51 214.502C1010.8 212.357 1018.7 214.221 1021.47 219.211C1024.12 215.658 1028.82 213.75 1033.19 214.445C1037.57 215.141 1041.44 218.409 1042.86 222.608C1042.1 218.233 1046.9 213.927 1051.17 215.15C1049.37 211.986 1051.12 207.382 1054.56 206.211C1058.01 205.039 1062.2 207.622 1062.71 211.226C1065.22 202.925 1074.76 198.043 1083.36 199.158C1091.96 200.272 1102.35 206.92 1103.44 214.847Z" fill="white"/>
<path d="M780.358 299.561C782.03 299.693 783.28 301.155 783.148 302.829C783.017 304.501 781.554 305.751 779.881 305.62L758.266 303.918L758.743 297.859L780.358 299.561Z" fill="white"/>
<path d="M759.054 314.961C760.727 315.093 761.976 316.556 761.845 318.228C761.713 319.901 760.25 321.15 758.577 321.019L736.962 319.317L737.439 313.259L759.054 314.961Z" fill="white"/>
<path d="M787.583 260.304L762.475 243.831L747.348 246.203L760.459 265.232L787.583 260.304Z" fill="#BAECFE"/>
<path d="M693.283 276.878C735.545 278.583 777.808 280.288 820.069 281.993C823.886 282.147 827.97 282.234 831.201 280.195C833.01 279.054 834.3 276.974 834.607 274.897C835.633 275.91 836.373 277.167 836.521 278.519C836.876 281.75 835.131 284.955 832.626 287.026C831.513 287.947 830.189 288.612 828.782 289.129C825.836 290.214 822.666 290.544 819.536 290.326L695.467 281.662C694.152 280.686 693.322 279.083 693.286 277.445C693.282 277.276 693.281 277.079 693.283 276.878Z" fill="#BAECFE"/>
<path d="M820.069 281.992C777.807 280.287 735.545 278.582 693.283 276.878C693.295 275.148 693.553 272.488 694.999 272.234C724.413 267.072 753.895 262.296 783.435 257.908C792.099 256.622 800.98 255.372 809.557 257.151C816.228 258.534 822.762 262.13 826.657 267.563C828.388 269.979 830.447 272.157 833.007 273.667C833.588 274.009 834.129 274.425 834.607 274.897C834.3 276.973 833.01 279.054 831.201 280.195C827.97 282.233 823.886 282.147 820.069 281.992Z" fill="white"/>
<path d="M701.92 248.527L724.137 270.245L709.117 272.542L695.77 249.702L701.92 248.527Z" fill="white"/>
<path d="M690.866 250.639L695.77 249.702L709.117 272.542L701.733 273.672L690.866 250.639Z" fill="#BAECFE"/>
<path d="M716.024 324.843C722.444 325.635 728.92 323.913 734.1 320.036L786.722 280.647L795.244 280.991L735.868 325.435C730.69 329.311 724.212 331.034 717.792 330.241L707.211 328.935L711.802 324.321L716.024 324.843Z" fill="#BAECFE"/>
<path d="M716.024 324.842L711.803 324.321L756.48 279.427L786.723 280.647L734.101 320.036C728.921 323.912 722.444 325.634 716.024 324.842Z" fill="white"/>
<path d="M805.664 272.5C808.053 273.887 811.282 274.213 812.885 273.207C814.512 272.185 813.834 270.193 811.361 268.779C808.902 267.373 805.651 267.102 804.109 268.151C802.588 269.185 803.289 271.123 805.664 272.5Z" fill="#47436C"/>
<path d="M789.746 272.944C791.974 274.264 794.913 274.576 796.317 273.623C797.741 272.656 797.035 270.765 794.732 269.419C792.443 268.081 789.487 267.819 788.137 268.811C786.807 269.79 787.53 271.631 789.746 272.944Z" fill="#47436C"/>
<path d="M775.304 273.345C777.391 274.605 780.079 274.905 781.313 274C782.564 273.081 781.838 271.281 779.686 269.998C777.545 268.722 774.845 268.467 773.659 269.409C772.49 270.338 773.228 272.093 775.304 273.345Z" fill="#47436C"/>
<path d="M762.141 273.712C764.101 274.917 766.571 275.206 767.659 274.343C768.762 273.468 768.022 271.752 766.004 270.526C763.995 269.307 761.517 269.058 760.473 269.954C759.441 270.838 760.19 272.514 762.141 273.712Z" fill="#47436C"/>
<path d="M750.094 274.047C751.943 275.202 754.22 275.48 755.182 274.656C756.158 273.821 755.409 272.18 753.51 271.006C751.619 269.839 749.336 269.597 748.413 270.451C747.501 271.296 748.255 272.899 750.094 274.047Z" fill="#47436C"/>
<path d="M739.029 274.354C740.777 275.462 742.884 275.732 743.737 274.943C744.601 274.144 743.849 272.574 742.055 271.447C740.27 270.328 738.159 270.092 737.341 270.908C736.533 271.714 737.289 273.251 739.029 274.354Z" fill="#47436C"/>
<path d="M728.828 274.639C730.484 275.704 732.441 275.964 733.199 275.208C733.966 274.443 733.213 272.936 731.515 271.854C729.824 270.778 727.865 270.549 727.14 271.331C726.423 272.102 727.18 273.578 728.828 274.639Z" fill="#47436C"/>
</g>
<defs>
<clipPath id="clip0_2029_10198">
<rect width="1920" height="409" fill="white"/>
</clipPath>
</defs>
</svg>
