<svg width="390" height="218" viewBox="0 0 390 218" fill="none" xmlns="http://www.w3.org/2000/svg">
<g clip-path="url(#clip0_2039_81796)">
<path d="M525.72 93.7418C524.796 83.7504 519.149 74.8144 511.914 71.896C504.679 68.9776 496.257 72.2374 491.325 79.8669C491.781 63.7541 483.713 47.8474 472.317 42.3946C460.922 36.9417 447.095 42.3714 439.746 55.1864C424.26 37.9651 394.933 46.7023 386.163 70.8973C378.883 65.6589 369.355 66.5582 362.704 73.1114C360.257 65.2062 354.884 59.0198 348.656 56.938C342.428 54.8562 335.498 56.9298 330.537 62.358C331.093 49.9972 324.888 37.6394 316.098 33.599C307.307 29.5587 291.663 32.814 286.374 42.9996C286.066 36.2276 282.306 29.9748 277.41 28.0954C272.515 26.216 266.832 28.8431 263.864 34.3572C259.04 14.3176 243.705 -0.331189 227.904 0.00569361C212.103 0.342576 197.128 15.6375 192.789 35.8728C176.963 26.9929 151.099 36.0252 144.064 56.8865C140.895 50.2079 135.039 45.9472 129.107 46.0024C123.174 46.0577 117.364 50.4275 114.266 57.1644C98.9426 39.8646 70.0618 38.1959 55.661 56.8476C51.3265 44.9993 42.3069 36.4174 32.484 34.7972C22.6611 33.177 12.3412 38.5686 5.96712 48.6512C-0.134384 31.4007 -15.4445 20.873 -29.5396 24.2358C-43.6347 27.5987 -55.2476 44.5503 -56.4716 63.5487C-64.6717 51.7675 -79.3569 49.2263 -89.5461 57.8254C-99.7353 66.4245 -104.278 85.1928 -99.7779 100.096C-107.935 96.3622 -117.913 103.103 -120.468 114.074C-127.398 102.693 -143.129 104.836 -148.185 117.849C-158.032 101.138 -173.258 93.3168 -189 95.7176V476.45H580V89.0897C563.04 77.7747 541.324 79.1237 525.72 93.7418Z" fill="white"/>
<g opacity="0.3">
<path d="M229.898 88.1805C238.545 82.328 250.148 85.8052 256.078 96.0274C258.328 88.7377 263.949 83.5224 269.863 83.2371C275.778 82.9517 281.668 87.6106 284.308 94.6642C283.207 83.5516 288.702 72.3261 296.367 67.6919C304.032 63.0578 313.279 64.4591 320.682 69.7954C329.135 75.8892 335.459 86.9913 337.587 99.4732C342.422 96.2239 348.458 96.371 353.199 99.8556C357.941 103.339 361.254 110.061 361.767 117.24C359.497 111.018 354.492 108.155 349.357 107.113C344.222 106.071 338.753 108.585 335.195 113.624C332.852 104.906 327.808 97.2562 322.185 91.8085C316.561 86.3602 309.122 83.8996 302.439 86.461C295.755 89.0223 290.202 97.059 289.714 106.297C286.226 100.88 281.59 97.2106 276.564 94.7337C272.386 92.6743 267.557 93.0896 263.612 95.8481C259.667 98.6067 256.669 103.664 255.57 109.415C253.854 103.526 249.587 98.4842 245.565 95.1348C241.543 91.7839 234.625 87.6591 229.898 88.1805Z" fill="#CBD7F9"/>
<path d="M106.655 91.696C110.65 79.3127 120.845 70.999 130.944 71.8871C141.044 72.7753 150.328 82.8033 153.066 95.7781C156.942 91.3195 162.881 90.3604 167.445 93.4558C172.009 96.5513 174.918 103.511 174.489 110.308C172.592 103.928 168.144 100.696 163.027 99.8752C157.91 99.0551 152.541 102.222 149.56 107.821C147.109 97.405 139.97 89.0375 132.088 86.0392C124.206 83.0394 112.868 84.5759 106.655 91.696Z" fill="#CBD7F9"/>
<path d="M13.4806 109.078C15.8731 96.7146 24.0428 86.6918 33.4921 84.5271C42.9414 82.3624 53.1564 88.1738 58.514 98.7628C44.7477 90.892 24.1516 95.0765 13.4806 109.078Z" fill="#CBD7F9"/>
</g>
<path d="M580 453.334V163.457C460.687 127.835 330.708 108.268 194.699 108.268C58.6898 108.268 -69.6865 127.835 -189 163.457V453.334H580Z" fill="#2D5EE6"/>
<path opacity="0.4" d="M269.995 173.02C256.24 163.851 238.481 160.942 222.52 165.242C212.571 167.922 203.504 173.194 195.116 179.176C192.905 180.753 190.646 182.422 187.994 183.003C185.342 183.584 182.16 182.741 180.908 180.332C179.657 177.922 181.636 174.266 184.316 174.702C185.225 167.382 192.535 162.854 199.098 159.489C207.195 155.338 223.649 141.28 205.312 139.49C191.495 138.142 177.329 139.744 163.394 138.411C155.854 137.689 149.132 136.105 141.62 137.304C134.65 138.416 127.791 140.126 120.916 141.696C110.007 144.187 99.3256 141.558 89.2834 148.103C86.0275 150.226 83.2295 153.017 79.8671 154.967C69.768 160.828 58.4742 149.997 47.3352 150.856C41.1534 151.332 35.2448 153.482 29.3481 155.398C21.4673 157.958 13.461 160.131 5.36729 161.907C-4.6546 164.107 -15.5671 165.602 -24.8206 161.17C-29.9462 158.714 -34.331 154.526 -39.8988 153.387C-49.0329 151.517 -57.4961 158.333 -66.5897 160.391C-83.4924 164.216 -103.973 151.358 -119.241 159.558C-127.503 156.417 -136.648 159.999 -144.748 163.537C-153.472 167.346 -162.196 171.156 -170.921 174.966C-184.169 180.752 -198.102 187.085 -206.344 198.962C-208.576 202.18 -210.336 206.445 -208.501 209.904C-206.16 214.318 -199.943 214.321 -194.984 213.714C-185.333 212.532 -175.681 211.349 -166.03 210.167C-164.761 207.008 -158.561 205.617 -155.26 206.447C-151.959 207.279 -149.549 210.755 -149.928 214.138C-150.651 220.585 -158.682 222.679 -164.541 225.464C-177.369 231.562 -183.409 246.13 -188.346 259.447C-190.662 265.692 -192.996 272.019 -193.673 278.644C-194.834 290.013 -190.756 301.81 -182.824 310.035C-173.739 308.377 -165.678 316.523 -157.917 321.527C-152.862 324.788 -147.324 328.768 -146.476 334.723C-145.598 340.888 -150.156 346.417 -154.735 350.636C-159.314 354.856 -164.544 359.217 -165.676 365.339C-166.902 371.961 -162.918 378.311 -161.506 384.895C-160.453 389.804 -160.681 394.179 -159.075 398.807C-157.302 403.916 -155.449 407.155 -158.313 412.673C-160.59 417.06 -164.384 420.431 -167.456 424.303C-173.378 431.768 -171.551 441.258 -175.599 449.778C-180.33 459.736 -184.796 470.26 -184.289 481.517C-183.757 493.344 -181.441 506.835 -171.307 512.955C-166.232 516.02 -159.978 517.074 -154.18 515.842C-145.839 514.069 -138.971 507.812 -134.709 500.427C-139.721 498.705 -142.45 492.773 -141.65 487.535C-140.849 482.297 -137.196 477.855 -132.856 474.815C-122.9 467.842 -109.459 467.146 -99.8296 459.729C-88.7904 451.227 -84.4619 435.174 -71.8781 429.192C-66.0562 426.425 -59.2694 426.296 -53.393 423.646C-47.3396 420.915 -42.7773 415.767 -38.4094 410.765C-30.256 401.429 -22.1026 392.093 -13.9492 382.757C-11.091 379.485 -8.1888 376.143 -6.45267 372.16C-4.71654 368.177 -4.30026 363.377 -6.41887 359.584C-9.24953 354.518 -15.5626 352.656 -21.3129 351.872C-27.0632 351.088 -33.2433 350.788 -37.9097 347.338C-41.2232 344.888 -43.308 341.161 -45.2942 337.551C-48.3136 332.061 -51.3335 326.571 -54.3528 321.08C-58.0887 314.287 -65.8534 316.151 -73.5539 315.254C-68.4261 314.957 -63.6205 311.464 -61.7548 306.678C-59.8891 301.893 -61.063 296.069 -64.6367 292.38C-77.211 279.398 -59.0312 277.732 -49.3585 272.812C-35.892 265.964 -26.6598 254.242 -9.97452 255.512C-2.68694 256.066 6.33282 258.55 10.6608 252.661C12.9112 249.598 13.0024 244.966 16.1604 242.851C19.5645 240.571 24.0231 242.71 27.9832 243.76C38.2073 246.472 49.9912 240.092 53.3086 230.049C54.1091 227.625 51.3781 222.468 52.3943 218.984C53.326 215.789 55.5658 211.768 57.0405 208.713C58.9231 204.821 63.6251 197.835 68.6758 198.045C74.457 198.288 77.1086 205.853 82.7259 206.329C89.7465 206.925 98.7116 198.726 104.692 195.818C112.816 191.868 122.06 191.066 131.064 190.328C139.104 189.669 139.361 190.991 140.625 198.501C138.886 201.502 137.146 204.503 135.407 207.505C131.439 211.978 127.472 216.451 123.505 220.925C122.454 222.11 121.402 223.296 120.351 224.481C116.326 229.018 112.28 233.586 109.11 238.757C105.269 245.026 102.798 252.063 101.22 259.243C91.7124 268.822 81.0236 277.197 69.6976 284.519C64.2859 288.017 57.0952 290.621 52.2191 294.713C47.5262 298.651 47.2383 303.851 44.2781 308.65C41.19 313.656 36.3022 316.27 34.8117 322.519C33.511 327.971 34.2269 333.677 34.9497 339.237C36.0064 347.362 45.2605 358.249 53.1323 360.988C58.7203 362.93 65.5004 359.041 70.302 356.595C72.2032 355.627 75.5679 352.719 77.722 352.865C87.9624 353.569 89.1938 363.883 84.6215 370.727C82.157 374.416 78.8655 377.461 75.9183 380.776C66.7915 391.045 65.4181 403.265 58.1396 414.346C58.9626 422.423 54.0539 430.893 50.4571 438.171C46.8604 445.45 43.7706 453.991 46.8761 461.492C50.3309 469.837 60.5928 473.651 69.5472 472.471C78.5016 471.291 86.4229 466.257 93.9099 461.204C101.396 456.152 109.044 450.837 117.878 448.957C126.785 447.062 136.099 448.845 145.113 447.56C161.455 445.231 174.569 433.354 186.578 422.028C192.247 416.682 198.284 410.61 198.961 402.847C199.519 396.462 196.258 390.017 197.698 383.773C199.25 377.041 205.774 372.675 212.202 370.147C218.631 367.62 225.641 366.136 231.149 361.966C237.303 357.306 240.696 349.98 245.059 343.612C250.912 335.072 258.806 328.202 267.838 323.198C273.007 320.333 281.629 317.768 286.883 322.194C292.81 327.185 290.355 338.83 293.715 345.423C295.348 348.628 298.34 351.371 301.92 351.713C306.943 352.193 311.056 348.118 315.03 345.01C332.3 331.505 333.594 359.671 334.019 370.293C334.309 377.541 334.691 385.45 339.489 390.889C340.23 396.355 348.216 397.016 353.73 396.897C359.245 396.778 366.492 398.022 367.259 403.484C367.994 408.715 361.942 411.954 357.106 414.082C336.896 422.976 320.607 440.401 313.092 461.164C312.132 463.819 311.298 466.662 311.842 469.432C313.085 475.772 321.041 478.656 327.35 477.264C333.658 475.871 338.878 471.626 344.476 468.401C350.074 465.177 357.097 462.935 362.882 465.81C367.954 468.331 370.504 473.954 373.199 478.936C375.894 483.917 379.908 489.129 385.562 489.471C389.811 489.729 393.619 487.125 397.548 485.486C401.476 483.847 406.84 483.541 409.192 487.09C411.484 490.546 409.389 495.314 410.618 499.275C411.841 503.214 416.213 505.482 420.337 505.578C424.461 505.674 428.412 504.07 432.224 502.493C447.568 496.145 462.913 489.796 478.258 483.448C484.934 480.687 491.873 477.738 496.557 472.237C501.241 466.736 502.823 457.867 498.09 452.408C492.614 446.093 482.162 447.634 475.121 452.137C468.08 456.64 462.59 463.423 455.122 467.178C451.079 469.21 445.047 469.646 443.066 465.577C441.546 462.455 443.65 458.645 446.491 456.647C449.331 454.65 452.813 453.787 455.826 452.061C461.062 449.061 464.635 443.341 465.034 437.319C465.432 431.299 462.643 425.157 457.848 421.494C456.271 417.331 460.085 411.737 464.101 409.817C468.118 407.896 472.755 407.369 476.526 405.003C482.317 401.373 484.894 393.761 483.577 387.054C482.259 380.348 477.563 374.633 471.811 370.942C467.134 367.941 461.804 366.144 456.535 364.375C453.603 363.391 450.67 362.407 447.738 361.423C444.296 360.268 440.712 359.025 438.19 356.413C435.668 353.8 434.627 349.371 436.883 346.525C440.135 342.425 447.234 344.293 451.198 340.877C457.64 335.327 452.373 323.2 451.663 316.289C449.824 298.379 466.557 291.996 481.19 291.287C489.843 290.867 498.647 289.724 506.436 285.933C514.226 282.143 520.928 275.329 522.774 266.865C523.87 261.836 523.22 256.586 523.92 251.487C524.619 246.388 527.256 240.951 532.173 239.431C537.165 237.888 542.665 240.904 547.716 239.569C551.825 238.484 554.748 234.647 555.941 230.567C557.133 226.487 556.896 222.145 556.649 217.902C560.631 210.746 569.227 208.553 577.329 207.358C585.431 206.164 594.789 203.773 597.957 196.222C601.545 187.671 594.176 177.851 585.4 174.853C576.625 171.854 567.054 173.463 557.798 174.019C543.224 174.895 528.492 173.04 514.591 168.577C506.882 166.102 499.317 162.81 491.255 162.048C483.633 161.328 479.398 164.053 473.051 167.051C468.652 169.13 462.117 171.106 457.482 168.103C453.547 165.553 454.516 159.72 448.35 160.563C441.897 161.446 435.445 162.329 428.992 163.212C418.639 164.629 409.028 155.743 399.051 152.636C383.512 156.542 367.114 159.133 351.576 163.039C344.195 157.714 334.66 156.19 325.97 158.899C320.178 160.704 315.111 164.236 309.732 167.041C298.339 172.981 280.687 180.148 269.995 173.02Z" fill="#1A4EDB"/>
<path d="M54.5326 162.441L62.8454 163.503C63.3856 163.566 63.6656 163.91 63.5827 164.375L63.1738 166.417C63.1084 166.752 63.247 167.028 63.5371 167.177L69.6474 170.373C70.0496 170.589 70.1403 171.045 69.831 171.558L68.5726 173.645C68.3253 174.055 68.3112 174.457 68.563 174.696L71.1514 177.27L69.5364 180.932L61.405 184.244L59.706 180.574L57.2269 181.026L57.2534 184.517L55.6237 186.791L46.0592 191.37L38.4398 189.037L39.0116 184.833L28.6439 184.256L33.9953 180.454L38.8471 182L41.5071 181.552L42.1555 180.476L50.524 176.897L50.9245 175.375L49.2307 174.624C48.9693 174.527 48.8296 174.33 48.8037 174.095L48.651 172.859C48.6206 172.467 48.2674 172.227 47.7424 172.216L40.1608 172.298C39.7473 172.302 39.2645 172.446 38.8319 172.71L29.2483 178.456L22.7065 180.117C22.0728 180.284 21.4718 180.751 21.2763 181.227L20.4308 183.336C20.3209 183.619 20.3547 183.866 20.5474 184.026C21.1028 184.519 20.936 185.099 20.3727 185.554C19.9457 185.903 19.3993 186.098 18.9605 186.088L16.5631 185.107L9.66248 187.11L5.66408 184.83C4.88953 184.661 4.6028 184.72 4.31889 184.839L-4.33809 188.569C-4.63158 188.696 -4.91943 188.75 -5.1718 188.745L-8.99556 188.013C-9.47156 187.985 -9.77858 188.049 -10.0726 188.184L-19.2941 192.446C-22.3297 193.846 -24.7283 196.259 -25.3288 198.542L-25.8088 200.323L-23.7955 200.366L-17.4672 205.396C-17.2588 205.566 -16.9597 205.659 -16.6014 205.667L-15.1233 205.421L-13.039 205.7C-11.9468 206.009 -12.0797 207.239 -13.3195 208.185L-17.968 211.729C-18.5617 212.183 -18.9386 212.733 -18.9915 213.225L-19.1245 214.454C-19.1904 215.103 -18.6879 215.497 -17.9235 215.513C-17.6509 215.52 -17.3455 215.477 -17.0199 215.382L-13.6671 214.365C-12.9647 214.16 -12.2887 213.721 -11.8375 213.199L-7.60023 208.141C-7.10959 207.554 -6.32828 207.092 -5.53627 206.914L2.40477 205.155C2.98553 205.024 3.57645 204.726 4.05638 204.334L8.26883 200.806C8.604 200.528 8.79723 200.182 8.77919 199.91C8.68794 198.571 10.3007 196.907 12.2948 196.276L14.5385 195.559C15.0821 195.389 15.5767 194.998 15.7412 194.599L16.4425 193.032C16.8323 192.158 17.9054 191.312 19.0754 190.987C19.6117 190.83 20.1057 190.465 20.3226 190.054C20.8341 189.079 21.5703 188.642 22.2243 188.617L32.3133 188.318L35.1659 193.61L31.7347 196.674C31.3686 197.004 31.1974 197.389 31.3128 197.677L31.9928 199.327C32.0812 199.548 32.3245 199.667 32.6349 199.674L42.9976 195.363C44.0499 195.208 44.2927 195.324 44.3851 195.536L45.6446 198.496C45.7246 198.666 45.6987 198.886 45.5596 199.116L41.4186 206.111C41.2181 206.443 41.2429 206.756 41.4879 206.929L44.1248 208.842C44.3918 209.056 44.3856 209.445 44.0786 209.827C43.4426 210.605 43.4432 211.033 43.7857 211.222L44.709 211.735C45.0959 211.952 45.0436 212.443 44.6076 212.888L37.7859 219.784C37.3887 220.191 37.3059 220.656 37.6101 220.883L39.8808 222.671C40.1478 222.884 40.1264 223.273 39.8048 223.656L35.2048 229.29C34.8335 229.741 34.1773 230.051 33.6528 230.04L20.1958 228.534C19.4309 228.439 19.4281 227.687 20.197 227.093L26.3444 222.401C27.1708 221.765 27.1026 220.975 26.2616 220.957L14.7509 221.408C14.3301 221.425 13.8378 221.635 13.4716 221.964L5.36552 229.273C4.8163 229.78 4.77631 230.376 5.2771 230.556L10.3052 232.365C10.7908 232.545 10.7818 233.089 10.2934 233.572C10.0489 233.826 9.70753 234.013 9.36786 234.123L-4.90311 238.378C-5.2794 238.489 -5.63541 238.538 -5.95311 238.531C-6.77667 238.513 -7.34789 238.12 -7.37492 237.455C-7.40646 236.422 -7.96864 236.021 -8.79503 236.003C-9.03105 235.998 -9.28905 236.024 -9.56169 236.084L-19.4861 238.281C-20.7834 238.564 -22.0312 239.522 -22.3923 240.501C-22.7776 241.543 -24.1616 242.551 -25.5249 242.768L-34.9868 244.249C-35.665 244.363 -36.3838 244.672 -36.9922 245.126L-58.5051 261.341L-79.3105 269.592C-79.7262 269.752 -80.085 270.069 -80.24 270.377L-85.9193 281.891L-92.0014 286.247C-92.3388 286.477 -92.7168 286.589 -93.0249 286.583C-93.3071 286.576 -93.5302 286.471 -93.6096 286.264L-94.9864 282.641L-91.7659 274.926C-91.5597 274.489 -91.8059 274.169 -92.31 274.159L-94.4225 274.258C-95.0545 274.247 -95.2894 273.853 -95.0016 273.377C-94.7137 272.9 -94.9351 272.506 -95.486 272.494L-102.927 272.814C-103.221 272.821 -103.553 272.943 -103.85 273.131L-107.472 275.479C-107.788 275.686 -108.163 275.804 -108.473 275.797L-113.234 274.484C-114.046 274.253 -114.941 274.129 -115.893 274.108C-117.791 274.066 -119.921 274.438 -122.09 275.212L-126.844 276.911C-130.125 278.085 -133.23 280.08 -135.486 282.457L-144.492 292.017L-147.555 302.045L-137.349 303.824C-135.805 303.887 -134.381 303.252 -133.492 302.274L-129.598 297.986C-128.733 297.032 -127.34 296.388 -126.168 296.387L-121.277 296.429C-119.453 296.468 -119.143 298.031 -120.642 299.44L-129.127 307.428C-130.44 308.671 -130.402 310.073 -129.025 310.389L-121.755 312.04C-120.58 312.312 -120.349 313.394 -121.216 314.53L-129.459 325.145C-130.035 325.897 -130.144 326.661 -129.762 327.162L-127.994 329.38C-127.737 329.71 -127.259 329.902 -126.673 329.915L-125.321 329.944C-123.773 329.978 -123.282 331.182 -124.28 332.484C-125.129 333.586 -126.708 334.335 -127.936 334.308C-128.229 334.302 -128.502 334.251 -128.74 334.152L-134.466 331.808C-134.772 331.684 -134.994 331.498 -135.11 331.236L-137.329 326.711L-137.5 320.13C-137.491 319.559 -137.868 319.148 -138.481 318.979L-148.38 316.389L-150.157 312.419C-150.68 311.223 -152.035 310.529 -153.853 310.489C-154.126 310.483 -154.409 310.492 -154.703 310.516L-156.185 310.626C-156.463 310.647 -156.736 310.655 -156.999 310.65C-158.121 310.625 -159.086 310.359 -159.771 309.86L-172.823 300.558C-173.269 300.237 -173.214 299.615 -172.694 299.03L-170.136 296.101C-169.868 295.783 -169.713 295.449 -169.723 295.164L-169.617 274.263L-166.907 268.86C-166.508 268.113 -166.911 267.542 -167.744 267.524C-169.166 267.76 -170.056 268.428 -170.338 269.123L-174.264 279.118L-175.387 288.176C-175.449 288.732 -175.992 289.356 -176.758 289.742L-177.561 290.139C-178.014 290.367 -178.467 290.471 -178.848 290.463C-179.384 290.451 -179.777 290.217 -179.832 289.792L-181.419 278.742C-181.479 278.26 -181.094 277.646 -180.44 277.193L-177.887 275.432C-177.256 274.992 -176.871 274.404 -176.923 273.936L-177.116 271.479L-172.617 261.366C-172.391 260.891 -172.497 260.461 -172.892 260.257L-176.066 258.553C-176.49 258.323 -176.565 257.842 -176.286 257.329L-168.273 242.725C-168.111 242.431 -167.82 242.125 -167.463 241.887L-140.293 222.979C-139.678 222.564 -139.3 221.989 -139.322 221.521L-139.507 217.132C-139.523 216.729 -139.245 216.242 -138.757 215.838L-131.141 209.517C-130.836 209.264 -130.621 208.983 -130.496 208.701L-125.084 196.013C-124.982 195.769 -125.016 195.547 -125.194 195.414L-134.991 187.856L-147.445 192.683L-160.686 193.666L-192.702 202.815L-194.465 202.127C-194.94 201.78 -194.423 200.948 -193.546 200.655L-180.34 196.247C-179.449 195.955 -178.931 195.097 -179.444 194.761L-180.932 193.821C-181.155 193.686 -181.204 193.412 -181.033 193.105L-177.618 186.835C-177.409 186.463 -176.938 186.136 -176.455 186.017L-157.627 181.55C-157.152 181.443 -156.673 181.103 -156.479 180.731C-156.239 180.282 -156.466 179.927 -156.992 179.915L-159.313 179.904C-159.913 179.891 -160.119 179.451 -159.741 178.947L-157.768 176.305C-157.498 175.934 -156.99 175.647 -156.531 175.592L-144.537 174.102C-144.146 174.059 -143.706 173.834 -143.423 173.543L-140.298 170.302C-139.992 169.972 -139.507 169.749 -139.086 169.732L-130.747 169.33C-129.882 169.284 -128.969 169.109 -128.033 168.793L-120.092 166.151C-118.959 165.786 -117.859 165.603 -116.852 165.625L-109.401 165.788C-108.349 165.811 -107.174 165.603 -105.995 165.187C-104.812 164.776 -103.642 164.574 -102.6 164.597C-102.216 164.605 -101.851 164.644 -101.508 164.714L-88.1613 167.393C-87.8711 167.448 -87.5641 167.481 -87.2431 167.488C-86.8837 167.495 -86.5074 167.471 -86.1176 167.412L-84.2721 167.154C-83.8857 167.101 -83.5128 167.078 -83.1579 167.085C-82.6143 167.097 -82.1141 167.182 -81.6753 167.34L-74.3308 169.927C-73.8886 170.083 -73.3816 170.17 -72.8234 170.181L-48.9919 168.041C-48.6742 168.011 -48.366 168 -48.0697 168.007C-47.1943 168.026 -46.4204 168.199 -45.7911 168.513L-40.0442 171.376C-39.4161 171.698 -38.6449 171.87 -37.7724 171.889C-37.32 171.899 -36.8407 171.868 -36.3388 171.795L-32.4823 171.23L-26.7055 174.119L-13.6361 172.588L-11.2545 174.016L5.05853 174.528L8.6992 173.842C9.37012 173.714 10.032 173.222 10.2506 172.708L11.3772 169.956C11.5727 169.48 12.1439 169.038 12.7703 168.858L22.8243 166.093C23.8608 166.033 24.1785 166.34 24.0376 166.807L22.804 171.049C22.7077 171.41 22.8688 171.699 23.2355 171.798L24.5672 172.164C25.8802 172.26 26.7173 172.037 27.4919 171.605C28.6669 170.969 29.4866 169.988 29.5987 169.121C29.7457 167.918 30.5349 166.962 31.6503 166.325L38.3694 162.501C38.8173 162.248 39.3079 162.116 39.7231 162.125L51.1758 163.3C51.5893 163.315 51.8783 163.266 52.1627 163.153L53.682 162.602C53.9766 162.493 54.2751 162.435 54.5326 162.441Z" fill="#23D74A"/>
<path d="M179.846 146.295C180.202 146.298 180.368 146.314 180.521 146.335L198.972 149.385C200.029 149.551 199.451 150.888 198.153 151.275L185.096 155.232C184.235 155.499 183.379 155.986 182.745 156.582L174.559 164.201C173.971 164.746 173.228 165.197 172.457 165.466L166.524 167.581C165.308 168.008 164.205 168.853 163.649 169.775L161.68 173.041C160.938 174.271 159.284 175.298 157.733 175.498L136.181 178.271C135.624 178.337 135.02 178.532 134.437 178.817L125.87 183.054C125.09 183.44 124.245 183.654 123.523 183.639L113.653 183.423C112.736 183.403 111.672 183.73 110.738 184.32L91.7581 196.309C90.792 196.92 89.7307 197.233 88.8548 197.214C88.3472 197.203 87.9011 197.08 87.5715 196.84L83.2706 193.749C82.7727 193.388 82.5947 192.8 82.8009 192.129L86.6432 179.446C87.0161 178.222 88.479 176.982 90.1324 176.513L94.4659 175.258C96.2325 174.751 97.7726 173.383 98.0035 172.117L98.724 168.474C98.8068 167.983 99.1087 167.457 99.5752 166.962L103.72 162.511C105.181 160.947 104.808 159.343 102.939 159.212L90.187 158.323C89.1961 158.25 88.5731 157.743 88.5258 156.963C88.4317 155.352 90.8382 153.381 93.0948 153.223L103.574 152.478C103.845 152.459 104.131 152.413 104.418 152.341L116.809 149.109C117.141 149.012 117.472 148.967 117.788 148.948L179.846 146.295Z" fill="#23D74A"/>
<path d="M146.421 209.633C146.485 209.634 146.547 209.64 146.606 209.65L150.406 210.239C150.856 210.301 151.107 210.591 151.032 210.992L150.883 211.897C150.783 212.492 150.051 213.125 149.251 213.34L148.33 213.58C147.734 213.735 147.149 214.15 146.871 214.612L145.952 216.135C145.836 216.328 145.668 216.506 145.462 216.67L144.131 217.718C143.667 218.084 143.099 218.292 142.604 218.281L141.882 218.265C141.687 218.261 141.469 218.295 141.242 218.368L135.767 220.052C135.541 220.12 135.328 220.151 135.139 220.147C134.626 220.136 134.286 219.872 134.326 219.437L134.451 217.792C134.494 217.443 134.763 217.046 135.174 216.744L137.06 215.358C137.387 215.119 137.624 214.825 137.719 214.542L138.089 213.525C138.348 212.817 139.373 212.178 140.214 212.196C140.545 212.204 140.907 212.108 141.255 211.934L145.391 209.896C145.738 209.721 146.108 209.626 146.421 209.633Z" fill="#23D74A"/>
<path d="M162.887 201.028C163.218 201.035 163.402 201.234 163.33 201.504L163.193 202.111L163.247 202.423L164.079 203.467C164.182 203.598 164.18 203.78 164.064 203.973L161.91 207.546L161.815 207.803L161.562 210.898C161.552 211.067 161.64 211.199 161.804 211.254L162.909 211.667C163.096 211.737 163.184 211.894 163.136 212.101L162.402 215.16C162.346 215.379 162.463 215.563 162.711 215.608L164.418 215.982C164.68 216.027 164.782 216.21 164.733 216.444L164.517 217.282C164.453 217.54 164.185 217.807 163.845 217.968L161.081 219.27C160.634 219.481 160.342 219.864 160.413 220.15C160.491 220.451 160.146 220.871 159.646 221.068L155.358 222.778C155.184 222.846 155.01 222.882 154.863 222.878C154.825 222.878 154.789 222.874 154.756 222.868L150.178 222.054L149.779 222.085L144.054 223.426C143.957 223.448 143.868 223.457 143.788 223.455C143.263 223.444 143.138 222.961 143.641 222.522L148.236 218.535L148.459 218.268L149.903 215.873C150.088 215.566 150.483 215.315 150.867 215.258L153.572 214.811C154.039 214.744 154.518 214.378 154.607 214.029L155.126 212.159C155.181 211.992 155.123 211.835 154.989 211.754L150.683 208.974C150.49 208.866 150.478 208.632 150.625 208.389L152.726 204.906C152.811 204.765 152.941 204.625 153.115 204.512L158.256 201.186C158.484 201.036 158.771 200.938 159.012 200.944L162.887 201.028Z" fill="#23D74A"/>
<path d="M392.325 161.589L411.999 165.024C413.033 165.202 413.692 165.774 413.799 166.608L414.206 169.341C414.306 170.109 414.883 170.667 415.804 170.881L419.105 171.693C420.528 171.806 421.197 171.703 421.896 171.482L425.929 170.221C426.615 170.008 427.276 169.902 427.881 169.915L450.138 172.682C450.685 172.759 451.141 172.938 451.49 173.217L456.727 177.432C457.166 177.787 457.792 177.973 458.521 177.989C459.271 178.005 460.131 177.842 461.008 177.5L470.227 173.874C471.094 173.529 471.953 173.362 472.716 173.379L490.498 175.471C490.933 175.533 491.329 175.658 491.656 175.847L496.143 178.553C496.553 178.807 497.086 178.941 497.701 178.955L510.14 178.236L526.374 182.262L544.197 180.874L574.719 188.845L587.145 192.749C587.937 193 587.939 193.857 587.152 194.631L584.976 196.776C584.377 197.377 583.493 197.737 582.796 197.722L572.868 193.631C571.894 193.521 571.368 193.657 570.88 193.925C568.878 195.023 568.407 196.259 569.28 196.68L573.484 198.744C573.984 198.975 574.073 199.51 573.718 200.098C573.27 200.841 572.216 201.454 571.291 201.499L567.163 201.681C566.705 201.71 566.191 201.881 565.72 202.155L558.208 206.662C557.692 206.972 557.115 207.141 556.635 207.131L553.599 206.328L547.382 207.451C546.741 207.58 546.088 207.955 545.653 208.425C545.14 208.972 544.96 209.448 545.089 209.814L548.013 219.103C548.128 219.417 548.009 219.816 547.694 220.212L541.639 228.007C541.083 228.709 540.046 229.22 539.211 229.201L538.014 229.121C537.586 229.099 537.28 228.923 537.135 228.66L529.797 214.047C529.586 213.64 529.798 213.061 530.317 212.553L536.218 206.83C537.012 206.069 537.04 205.214 536.279 204.938L530.243 202.756C529.899 202.63 529.511 202.565 529.095 202.556C527.591 202.523 525.722 203.221 524.302 204.429L526.196 207.221L523.566 209.058L515.35 207.387L499.083 207.732C496.67 207.796 493.845 209.175 492.146 211.11L489.612 214C487.974 215.858 487.755 217.812 489.03 218.878C489.602 219.348 490.436 219.611 491.423 219.633L501.191 219.636C502.763 219.67 503.846 220.197 504.315 221.119L510.462 233.215L508.971 240.383C508.794 241.08 507.896 241.787 506.977 241.949C506.04 241.964 505.68 241.671 505.719 241.208L506.021 237.374L503.491 235.412C502.283 235.248 501.479 235.589 500.969 236.135L488.176 249.803C487.466 250.553 486.36 251.1 485.389 251.17L481.673 251.426C480.304 251.526 478.8 252.505 478.339 253.598L477.675 255.179C477.363 255.899 476.585 256.609 475.639 257.016C473.05 258.153 472.107 259.793 472.982 260.565L474.723 262.095C474.953 262.294 475.054 262.556 475.048 262.868L474.987 269.003C474.97 270.067 473.597 271.334 472.051 271.677L468.574 272.47C466.799 272.535 466.218 271.947 466.462 271.074L467.858 266.084C468.034 265.49 467.808 265.005 467.286 264.76L464.257 263.396C463.533 263.083 463.418 262.288 463.981 261.457C464.458 260.741 464.439 260.04 463.927 259.653L461.751 258.035L455.309 260.01C454.196 260.118 453.907 259.834 454.049 259.398L454.907 256.562C455.042 256.13 454.759 255.848 454.284 255.837L449.983 257.13C449.213 257.372 448.623 258.047 448.766 258.517L450.167 263.439L455.347 264.643C456.306 264.819 455.76 266.053 454.552 266.415L450.653 270.08L452.492 285.08C452.6 285.835 452.149 286.759 451.272 287.558L435.885 301.818C435.259 302.401 434.47 302.877 433.624 303.17L412.049 310.678C411.432 310.892 410.835 310.992 410.308 310.981C409.78 310.969 409.322 310.845 408.984 310.611L406.561 308.975C406.215 308.736 405.751 308.612 405.224 308.601C404.424 308.583 403.477 308.823 402.573 309.303L400.003 310.688C398.169 311.659 397.091 313.296 397.553 314.422L401.421 323.862C401.602 324.294 401.54 324.825 401.275 325.39L397.224 333.825C396.703 334.916 395.424 335.953 393.965 336.453L390.655 337.6L383.17 341.861C382.54 342.234 381.884 342.41 381.343 342.398C380.725 342.384 380.257 342.126 380.153 341.639L378.109 332.357C377.997 331.835 377.605 331.45 376.999 331.268C374.866 331.122 373.176 331.826 372.057 332.951L366.886 338.145C365.886 339.148 365.568 340.257 366.051 340.994L371.388 349.285L369.198 359.708C369.044 360.34 368.402 361.027 367.561 361.462C367.014 361.733 366.453 361.868 365.977 361.858L361.306 358.913C361.061 358.739 360.929 358.476 360.934 358.165L361.24 345.793C361.245 345.482 361.107 345.207 360.846 345.032C359.769 344.296 359.703 343.723 360.074 343.108L368.667 328.855C368.976 328.342 369.112 327.84 369.06 327.397L368.531 323.403C368.425 322.57 367.666 322.092 366.6 322.068C366.117 322.058 365.571 322.141 364.994 322.326C363.569 322.787 362.837 322.901 362.181 322.887C361.586 322.874 361.054 322.755 360.625 322.529C359.582 321.987 359.284 320.891 359.83 319.631L362.249 314.157C362.521 313.553 362.598 312.971 362.464 312.462L361.078 307.086C360.832 306.118 359.858 305.554 358.521 305.525L349.259 307.049C348.339 307.211 347.394 307.566 346.521 308.08L327.897 318.974C324.954 320.7 322.512 322.982 321.076 325.364L316.404 333.111C315.316 334.917 313.32 336.612 310.988 337.703C309.165 338.554 307.381 338.938 305.865 338.906C303.47 338.853 301.746 337.756 301.603 335.798L301.078 328.287C301.054 327.923 301.083 327.548 301.172 327.148L305.048 309.587C305.296 308.474 304.532 307.719 303.199 307.69C301.56 307.684 300.876 307.276 300.685 306.598L297.696 295.349C297.501 294.664 296.811 294.256 295.851 294.235L284.955 295.577L271.669 292.874C271.04 292.73 270.663 292.346 270.604 291.812C270.495 290.707 269.877 290.3 268.998 290.281L266.518 290.815C265.033 290.958 264.7 290.879 264.438 290.731L258.019 287.087C257.647 286.871 257.442 286.529 257.441 286.101L257.359 281.948C257.348 281.199 256.721 280.757 255.801 280.736C252.965 281.358 251.475 282.844 251.599 284.001L252.819 295.484C252.884 296.135 253.44 296.549 254.304 296.581L259.109 296.815C259.883 296.834 260.668 296.62 261.389 296.216L263.436 295.093C264.194 294.681 264.977 294.483 265.633 294.498C266.327 294.513 266.876 294.765 267.1 295.251L268.022 297.282C268.239 297.754 268.776 298.025 269.497 298.041C271.39 298.082 271.984 298.51 272.033 299.186L272.314 302.28C272.378 302.93 271.93 303.725 271.138 304.383L260.575 313.065C260.087 313.47 259.496 313.794 258.884 314.002L224.413 325.329C223.038 325.782 221.743 325.981 220.601 325.956C217.786 325.895 215.906 324.466 216.056 322.097L216.749 310.85C216.829 309.58 216.298 308.518 215.234 307.859L214.341 307.294C212.563 306.178 212.313 304.019 213.71 301.701C214.336 300.664 214.645 299.646 214.615 298.737L214.087 280.781C214.038 279.146 214.842 277.282 216.351 275.511L225.19 265.169C225.887 264.367 225.968 263.525 225.419 263.072C224.943 262.688 224.577 262.582 224.156 262.573C223.406 262.557 222.486 262.85 221.702 263.406C220.933 263.95 220.021 264.253 219.267 264.236L214.57 262.537C213.447 262.397 212.954 262.493 212.456 262.686C211.876 262.903 211.381 262.995 210.947 262.985L205.017 261.719C204.531 261.618 204.166 261.389 203.968 261.06L202.776 259.075C202.491 258.589 202.546 257.941 202.948 257.276L205.557 252.947C206.199 251.884 205.974 250.919 204.987 250.56C203.139 250.323 202.173 250.602 201.281 251.128C200.09 251.842 199.277 252.888 199.217 253.795L199.124 255.817C199.085 256.361 198.782 256.964 198.262 257.524L195.96 259.978C194.966 261.046 193.384 261.751 192.077 261.722C190.019 261.677 189.323 261.039 189.451 260.095L189.944 256.551L189.103 251.887C189.026 251.535 189.047 251.147 189.174 250.734L190.866 245.101L186.229 242.366L181.949 237.524C180.959 237.276 180.488 237.42 180.074 237.704C178.6 238.709 178.315 239.184 178.384 239.548L179.355 244.551L181.807 245.358L187.418 250.112C187.67 250.325 187.657 250.701 187.395 251.085C187.017 251.62 186.227 252.018 185.608 252.005L183.853 251.734C182.971 251.702 182.083 252.205 181.776 252.83L180.167 256.103L175.335 257.503C174.89 257.635 174.449 257.937 174.21 258.282L173.28 259.599C172.911 260.117 172.185 260.458 171.637 260.446L168.947 258.505C168.309 257.972 169.479 256.739 170.606 256.763L175.566 255.328C176.798 254.901 177.843 253.95 178.067 253.047L178.548 251.163L170.487 246.433L168.997 240.069C168.938 239.769 168.655 239.603 168.269 239.594L160.468 242.854L154.39 241.449C153.519 241.405 152.726 241.84 152.398 242.405L150.733 245.417C150.493 245.84 149.969 246.205 149.426 246.349L143.049 248.039C142.521 248.184 141.991 248.432 141.534 248.759L136.958 252.006C136.342 252.447 136.039 253.05 136.266 253.431C136.434 253.733 136.254 254.184 135.835 254.551L132.222 257.69L122.859 260.015C121.774 260.249 120.737 260.353 119.781 260.332C117.995 260.293 116.489 259.817 115.475 258.932L114.275 257.868L108.336 257.57C107.525 257.552 107.37 256.874 108.019 256.226L116.021 248.383L121.727 240.333C122.085 239.809 122.832 239.429 123.435 239.443L137.854 241.204C139.152 241.244 140.477 240.647 141.274 239.748L143.731 236.986L144.69 232.038L139.911 228.754C139.429 227.914 140.413 226.988 141.399 226.893L146.983 226.366L150.284 224.401L154.961 224.646L164.166 220.008L180.678 213.349C181.298 213.103 181.801 212.647 181.996 212.197L183.013 209.728L188.161 205.507C188.635 205.146 189.223 204.935 189.701 204.945L191.959 205.37C192.685 205.528 192.756 206.243 192.091 206.917L188.615 210.434C188.294 210.765 188.131 211.137 188.164 211.437L188.402 212.96C188.451 213.31 188.767 213.519 189.229 213.529L192.021 213.116L193.887 214.389L210.938 212.011C211.495 211.919 212.064 211.608 212.454 211.188L216.4 206.914C216.806 206.469 217.465 206.133 218.044 206.081L222.538 205.621C223.057 205.568 223.625 205.308 224.029 204.94L226.294 202.901C226.896 202.356 227.019 201.723 226.603 201.402L222.096 198.073C221.852 197.874 221.781 197.56 221.96 197.188L223.941 192.716C224.136 192.292 224.609 191.861 225.169 191.614L233.667 187.895C235.136 187.252 235.474 185.806 234.168 185.752L231.653 185.632C231.11 185.618 230.529 185.834 230.073 186.182L225.6 189.587L215.716 194.821C214.845 195.281 214.381 196.076 214.689 196.549L216.185 198.814C216.559 199.38 215.814 200.363 214.726 200.728L210.488 202.127L203.055 209.127C202.673 209.508 202.143 209.782 201.646 209.874L193.83 211.3C192.362 210.528 192.895 209.671 193.834 209.224L195.53 208.431C196.386 208.021 196.932 207.242 196.723 206.731L194.594 201.702C194.478 201.439 194.183 201.288 193.794 201.279L185.697 203.558C184.471 203.632 184.105 203.265 184.276 202.71L186.962 194.14C187.137 193.573 187.837 192.991 188.6 192.788L202.879 188.947L225.73 175.512L246.151 172.442L275.123 181.469C275.439 181.57 275.79 181.624 276.165 181.632C276.927 181.649 277.789 181.477 278.66 181.131L281.799 179.889C282.683 179.54 283.554 179.371 284.319 179.387C284.765 179.397 285.176 179.47 285.531 179.607L287.398 180.348C287.758 180.486 288.174 180.561 288.628 180.571C289.216 180.584 289.869 180.487 290.547 180.275L297.178 178.213C297.851 178.011 298.507 177.913 299.1 177.926L303.966 178.997L319.54 177.326C320.835 177.173 322.243 176.555 323.369 175.671L327.876 172.085C328.865 171.302 330.092 170.732 331.267 170.498L334.117 169.937C334.539 169.856 334.945 169.819 335.324 169.827C335.704 169.836 336.056 169.889 336.37 169.987L341.685 171.699C342.005 171.802 342.364 171.858 342.752 171.867C343.152 171.876 343.584 171.833 344.036 171.738L391.02 161.722C391.475 161.625 391.917 161.58 392.325 161.589Z" fill="#23D74A"/>
<path d="M153.927 181.647C154.486 181.659 154.961 181.806 155.28 182.089C155.61 182.35 156.08 182.502 156.642 182.514C156.71 182.516 156.78 182.515 156.851 182.513L167.189 182.155C167.255 182.153 167.319 182.152 167.383 182.154C168.233 182.172 168.862 182.506 169.097 183.079C169.639 184.427 167.825 186.45 165.561 187.049L156.151 189.556C155.723 189.665 155.313 189.717 154.936 189.708C154.695 189.703 154.467 189.673 154.256 189.618L149.79 188.391C149.244 188.236 148.858 187.917 148.723 187.46L148.265 185.997C147.895 184.769 149.343 183.023 151.354 182.288L152.223 181.957C152.823 181.74 153.411 181.636 153.927 181.647Z" fill="#23D74A"/>
<path d="M-133.417 331.491C-133.879 331.745 -134.449 331.788 -134.967 331.558C-135.85 331.167 -136.25 330.134 -135.858 329.252C-135.387 328.187 -134.911 327.126 -134.426 326.067C-134.025 325.19 -132.986 324.803 -132.108 325.205C-131.23 325.607 -130.844 326.645 -131.246 327.523C-131.724 328.568 -132.196 329.617 -132.661 330.667C-132.823 331.032 -133.093 331.313 -133.417 331.491ZM-129.034 322.044C-129.514 322.308 -130.111 322.342 -130.641 322.085C-131.509 321.662 -131.871 320.616 -131.449 319.748C-130.94 318.702 -130.426 317.658 -129.905 316.617C-129.474 315.751 -128.423 315.404 -127.559 315.834C-126.695 316.266 -126.344 317.316 -126.776 318.18C-127.291 319.211 -127.801 320.242 -128.304 321.276C-128.468 321.614 -128.727 321.876 -129.034 322.044ZM-124.319 312.756C-124.817 313.029 -125.439 313.055 -125.979 312.77C-126.832 312.318 -127.158 311.26 -126.707 310.407C-126.162 309.377 -125.613 308.351 -125.054 307.328C-124.595 306.478 -123.53 306.168 -122.682 306.63C-121.834 307.092 -121.522 308.154 -121.984 309.002C-122.534 310.013 -123.078 311.026 -123.615 312.041C-123.781 312.355 -124.029 312.597 -124.319 312.756ZM170.773 147.227C170.489 147.383 170.158 147.462 169.809 147.437C168.658 147.355 167.509 147.28 166.358 147.211C165.395 147.152 164.66 146.324 164.72 145.359C164.778 144.397 165.607 143.664 166.57 143.719C167.732 143.79 168.894 143.866 170.058 143.948C171.02 144.017 171.746 144.853 171.678 145.816C171.634 146.432 171.276 146.951 170.773 147.227ZM-119.288 303.634C-119.804 303.917 -120.452 303.933 -121.001 303.618C-121.838 303.138 -122.128 302.07 -121.647 301.231C-121.069 300.223 -120.484 299.216 -119.892 298.212C-119.402 297.381 -118.33 297.103 -117.498 297.592C-116.667 298.082 -116.389 299.154 -116.879 299.987C-117.463 300.979 -118.041 301.974 -118.614 302.972C-118.78 303.261 -119.015 303.485 -119.288 303.634ZM160.359 146.665C160.092 146.812 159.783 146.89 159.456 146.879C158.303 146.836 157.154 146.8 156.002 146.771C155.036 146.747 154.273 145.945 154.298 144.979C154.321 144.013 155.123 143.249 156.09 143.275C157.254 143.305 158.419 143.341 159.583 143.383C160.547 143.419 161.302 144.229 161.267 145.195C161.245 145.832 160.882 146.378 160.359 146.665ZM-113.952 294.685C-114.486 294.979 -115.159 294.984 -115.715 294.64C-116.536 294.13 -116.789 293.053 -116.281 292.232C-115.668 291.242 -115.049 290.256 -114.425 289.273C-113.906 288.456 -112.825 288.218 -112.011 288.734C-111.196 289.251 -110.954 290.332 -111.472 291.148C-112.09 292.119 -112.701 293.096 -113.307 294.073C-113.472 294.339 -113.696 294.545 -113.952 294.685ZM149.936 146.462C149.686 146.599 149.398 146.677 149.092 146.677C147.943 146.673 146.79 146.678 145.639 146.688C144.672 146.698 143.882 145.922 143.874 144.955C143.865 143.991 144.64 143.199 145.606 143.191C146.772 143.179 147.937 143.176 149.101 143.179C150.067 143.182 150.848 143.967 150.845 144.933C150.844 145.592 150.476 146.165 149.936 146.462ZM-108.321 285.918C-108.873 286.221 -109.571 286.215 -110.132 285.842C-110.936 285.307 -111.154 284.221 -110.62 283.417C-109.974 282.448 -109.324 281.482 -108.668 280.52C-108.12 279.717 -107.035 279.517 -106.239 280.06C-105.44 280.605 -105.234 281.692 -105.778 282.489C-106.427 283.441 -107.071 284.396 -107.708 285.354C-107.869 285.597 -108.082 285.787 -108.321 285.918ZM139.511 146.618C139.277 146.746 139.011 146.822 138.727 146.832C137.575 146.867 136.423 146.912 135.275 146.962C134.31 147.003 133.492 146.256 133.452 145.291C133.41 144.326 134.158 143.513 135.122 143.467C136.286 143.417 137.451 143.373 138.616 143.336C139.582 143.306 140.389 144.064 140.42 145.029C140.44 145.709 140.07 146.311 139.511 146.618ZM-102.406 277.337C-102.976 277.65 -103.699 277.632 -104.264 277.229C-105.05 276.668 -105.233 275.575 -104.673 274.789C-103.997 273.842 -103.315 272.898 -102.63 271.957C-102.058 271.178 -100.966 271.006 -100.186 271.574C-99.4051 272.143 -99.2333 273.237 -99.8023 274.018C-100.482 274.95 -101.155 275.883 -101.824 276.821C-101.983 277.042 -102.183 277.215 -102.406 277.337ZM129.095 147.131C128.88 147.249 128.634 147.324 128.371 147.342C127.221 147.419 126.073 147.501 124.923 147.59C123.961 147.665 123.12 146.944 123.045 145.981C122.97 145.019 123.69 144.178 124.655 144.103C125.815 144.013 126.979 143.929 128.14 143.852C129.104 143.788 129.936 144.517 130.002 145.481C130.047 146.182 129.673 146.814 129.095 147.131ZM-96.2162 268.952C-96.8043 269.275 -97.5524 269.241 -98.1202 268.808C-98.888 268.222 -99.0345 267.125 -98.4481 266.357C-97.7411 265.431 -97.0302 264.51 -96.3137 263.593C-95.7239 262.828 -94.6215 262.695 -93.8593 263.291C-93.0977 263.885 -92.9631 264.983 -93.5568 265.745C-94.2655 266.653 -94.9685 267.566 -95.6681 268.481C-95.8208 268.68 -96.0083 268.838 -96.2162 268.952ZM118.708 147.994C118.507 148.105 118.283 148.175 118.042 148.2C116.894 148.316 115.749 148.437 114.603 148.564C113.642 148.671 112.778 147.979 112.671 147.02C112.564 146.059 113.259 145.192 114.216 145.089C115.372 144.96 116.532 144.837 117.69 144.719C118.65 144.623 119.509 145.322 119.606 146.283C119.678 147.005 119.304 147.667 118.708 147.994ZM-89.759 260.767C-90.3645 261.099 -91.1374 261.053 -91.7058 260.59C-92.4544 259.979 -92.5671 258.878 -91.957 258.129C-91.2219 257.226 -90.4806 256.328 -89.7347 255.432C-89.1134 254.688 -88.0138 254.59 -87.2719 255.208C-86.5295 255.826 -86.4298 256.93 -87.0477 257.671C-87.7857 258.556 -88.518 259.445 -89.2458 260.338C-89.3917 260.518 -89.5669 260.662 -89.759 260.767ZM108.352 149.21C108.168 149.311 107.964 149.379 107.745 149.409C106.602 149.563 105.462 149.722 104.321 149.89C103.365 150.029 102.478 149.367 102.337 148.412C102.199 147.456 102.865 146.568 103.816 146.428C104.969 146.26 106.122 146.098 107.276 145.943C108.234 145.814 109.114 146.485 109.242 147.443C109.343 148.18 108.968 148.872 108.352 149.21ZM-83.0409 252.792C-83.6645 253.134 -84.4621 253.072 -85.0305 252.577C-85.7589 251.943 -85.8355 250.838 -85.2023 250.11C-84.4379 249.232 -83.669 248.358 -82.8961 247.487C-82.2534 246.762 -81.1504 246.698 -80.4277 247.339C-79.705 247.98 -79.6385 249.085 -80.2795 249.807C-81.0451 250.67 -81.8067 251.536 -82.5632 252.406C-82.7023 252.566 -82.8651 252.695 -83.0409 252.792ZM98.0438 150.773C97.877 150.865 97.6917 150.93 97.4929 150.963C96.3572 151.155 95.2222 151.353 94.0888 151.558C93.1379 151.73 92.2287 151.099 92.0569 150.148C91.8862 149.198 92.5194 148.288 93.4669 148.117C94.6143 147.91 95.7618 147.709 96.9121 147.515C97.8641 147.354 98.7665 147.997 98.9265 148.949C99.0532 149.702 98.6775 150.425 98.0438 150.773ZM-76.0716 245.035C-76.7138 245.388 -77.5362 245.309 -78.1029 244.784C-78.8104 244.126 -78.8515 243.019 -78.1942 242.312C-77.4016 241.458 -76.605 240.608 -75.8023 239.762C-75.1404 239.059 -74.0313 239.032 -73.3305 239.696C-72.6298 240.362 -72.5999 241.468 -73.2652 242.168C-74.0589 243.005 -74.8464 243.846 -75.6305 244.691C-75.7623 244.833 -75.9116 244.948 -76.0716 245.035ZM87.7943 152.68C87.6439 152.763 87.4789 152.824 87.3014 152.86C86.1714 153.09 85.0431 153.326 83.9165 153.569C82.9724 153.772 82.0423 153.171 81.8401 152.226C81.6373 151.282 82.2355 150.352 83.1825 150.15C84.3209 149.905 85.4605 149.667 86.6023 149.433C87.5493 149.24 88.4725 149.851 88.6652 150.797C88.8229 151.567 88.4483 152.321 87.7943 152.68ZM-68.8561 237.503C-69.5174 237.866 -70.3635 237.769 -70.9263 237.212C-71.613 236.532 -71.6192 235.425 -70.9398 234.739C-70.1196 233.91 -69.2949 233.085 -68.4674 232.266C-67.7808 231.583 -66.6744 231.592 -65.9945 232.279C-65.3151 232.965 -65.3202 234.072 -66.0075 234.752C-66.8259 235.563 -67.6416 236.378 -68.4528 237.198C-68.5756 237.322 -68.7119 237.423 -68.8561 237.503ZM77.613 154.931C77.4789 155.005 77.3319 155.061 77.1759 155.099C76.056 155.365 74.9367 155.639 73.8191 155.919C72.8823 156.154 71.932 155.585 71.6982 154.648C71.4639 153.713 72.0283 152.76 72.9691 152.527C74.1002 152.244 75.2319 151.967 76.3653 151.696C77.3049 151.472 78.2473 152.052 78.472 152.992C78.6579 153.775 78.2867 154.561 77.613 154.931ZM-61.4001 230.206C-62.0806 230.58 -62.9515 230.464 -63.5103 229.874C-64.1744 229.173 -64.1446 228.066 -63.4438 227.402C-62.5972 226.6 -61.7466 225.802 -60.8914 225.01C-60.1777 224.359 -59.0765 224.394 -58.4196 225.104C-57.7639 225.812 -57.8056 226.919 -58.5137 227.576C-59.3598 228.359 -60.2003 229.148 -61.0373 229.941C-61.1494 230.047 -61.2711 230.136 -61.4001 230.206ZM67.5134 157.519C67.3956 157.583 67.2683 157.635 67.1343 157.672C66.0228 157.978 64.9131 158.289 63.8056 158.606C62.8773 158.872 61.9095 158.334 61.6436 157.406C61.3783 156.478 61.9124 155.509 62.8435 155.243C63.9628 154.923 65.0849 154.608 66.2076 154.3C67.1382 154.044 68.1009 154.592 68.3566 155.522C68.5763 156.319 68.2074 157.138 67.5134 157.519ZM-53.7115 223.154C-54.4105 223.538 -55.3068 223.403 -55.8588 222.781C-56.4999 222.058 -56.434 220.954 -55.7118 220.312C-54.8392 219.538 -53.9616 218.769 -53.0823 218.005C-52.3516 217.373 -51.2487 217.451 -50.6149 218.179C-49.9818 218.91 -50.0606 220.014 -50.7896 220.647C-51.661 221.402 -52.5274 222.162 -53.3904 222.929C-53.4907 223.017 -53.5982 223.092 -53.7115 223.154ZM57.5061 160.448C57.4059 160.502 57.2977 160.549 57.1839 160.585C56.0838 160.928 54.9853 161.276 53.8885 161.631C52.9692 161.928 51.9834 161.423 51.686 160.505C51.3902 159.585 51.8944 158.605 52.8121 158.302C53.9207 157.944 55.0309 157.592 56.1429 157.246C57.0651 156.958 58.0452 157.472 58.3325 158.395C58.5849 159.203 58.221 160.055 57.5061 160.448ZM-45.7924 216.358C-46.5129 216.753 -47.4339 216.597 -47.9775 215.941C-48.5938 215.198 -48.4918 214.095 -47.7488 213.479C-46.8498 212.733 -45.9485 211.994 -45.0427 211.259C-44.2912 210.653 -43.191 210.766 -42.5827 211.515C-41.9749 212.265 -42.0892 213.367 -42.8395 213.975C-43.7341 214.702 -44.6269 215.433 -45.5147 216.17C-45.6037 216.243 -45.6961 216.305 -45.7924 216.358ZM47.6025 163.711C47.5186 163.757 47.429 163.797 47.3349 163.83C46.2472 164.208 45.1611 164.593 44.0779 164.984C43.1693 165.312 42.1677 164.841 41.8398 163.932C41.512 163.024 41.9807 162.017 42.891 161.694C43.9866 161.299 45.0845 160.91 46.1847 160.527C47.0961 160.21 48.0932 160.691 48.4115 161.603C48.6959 162.421 48.3376 163.307 47.6025 163.711ZM-37.6492 209.829C-38.3905 210.236 -39.3374 210.055 -39.8715 209.366C-40.4629 208.603 -40.3238 207.504 -39.5599 206.913C-38.6367 206.198 -37.7095 205.489 -36.7794 204.786C-36.0037 204.2 -34.9132 204.355 -34.3301 205.126C-33.7477 205.896 -33.9003 206.993 -34.6704 207.575C-35.5891 208.27 -36.5045 208.971 -37.4171 209.678C-37.4926 209.735 -37.5703 209.786 -37.6492 209.829ZM37.8172 167.304C37.7491 167.342 37.6775 167.375 37.6037 167.404C36.5301 167.819 35.4575 168.241 34.3878 168.668C33.4904 169.026 32.4736 168.589 32.1148 167.693C31.7571 166.795 32.2027 165.785 33.0905 165.42C34.1732 164.988 35.257 164.562 36.3436 164.142C37.2443 163.794 38.2572 164.242 38.6048 165.143C38.9247 165.969 38.5732 166.889 37.8172 167.304ZM-29.2896 203.58C-30.0523 203.999 -31.0246 203.792 -31.5468 203.068C-32.1118 202.285 -31.9349 201.192 -31.1514 200.627C-30.2039 199.943 -29.253 199.266 -28.2982 198.595C-27.5146 198.042 -26.4184 198.23 -25.8624 199.021C-25.3076 199.812 -25.498 200.902 -26.2877 201.457C-27.2296 202.119 -28.1692 202.789 -29.106 203.464C-29.1651 203.507 -29.2271 203.545 -29.2896 203.58ZM28.1559 171.228C28.1057 171.256 28.0533 171.281 27.9993 171.305C26.9391 171.756 25.8823 172.214 24.8267 172.678C23.9428 173.066 22.9114 172.664 22.5227 171.779C22.1357 170.896 22.5363 169.877 23.4207 169.475C24.487 169.007 25.5562 168.543 26.6276 168.087C27.5165 167.709 28.544 168.122 28.922 169.01C29.2774 169.844 28.9349 170.801 28.1559 171.228ZM-20.7149 197.624C-21.5013 198.056 -22.5006 197.822 -23.0081 197.062C-23.545 196.259 -23.3292 195.173 -22.5259 194.636C-21.5559 193.987 -20.5808 193.344 -19.6052 192.707C-18.7945 192.184 -17.7124 192.407 -17.1846 193.215C-16.6562 194.024 -16.8838 195.107 -17.6927 195.636C-18.6588 196.266 -19.6215 196.902 -20.5825 197.544C-20.6259 197.573 -20.6704 197.599 -20.7149 197.624ZM18.6364 175.48C18.6038 175.498 18.5694 175.515 18.535 175.531C17.4912 176.019 16.4502 176.513 15.4115 177.013C14.5417 177.431 13.4968 177.066 13.0777 176.195C12.6591 175.325 13.0287 174.275 13.8951 173.861C14.9445 173.356 15.9979 172.856 17.0524 172.363C17.9278 171.954 18.9688 172.331 19.3778 173.206C19.771 174.046 19.4386 175.04 18.6364 175.48ZM-11.9368 191.978C-12.7468 192.423 -13.7721 192.159 -14.2638 191.363C-14.7714 190.542 -14.5173 189.464 -13.6954 188.956C-12.7525 188.373 -11.8055 187.796 -10.8575 187.226L-10.6941 187.128C-9.89196 186.623 -8.79012 186.918 -8.30061 187.75C-7.81165 188.582 -8.08992 189.654 -8.92249 190.143C-9.99166 190.786 -10.9251 191.356 -11.8568 191.931C-11.8833 191.948 -11.9097 191.963 -11.9368 191.978ZM9.26688 180.056C9.2511 180.065 9.23476 180.074 9.21843 180.082C8.19208 180.604 7.17078 181.133 6.15062 181.668C5.29552 182.117 4.23874 181.787 3.78922 180.932C3.34026 180.076 3.69119 179.032 4.52547 178.571C5.55745 178.029 6.59338 177.494 7.63156 176.965C8.49231 176.526 9.54572 176.869 9.98341 177.73C10.4132 178.574 10.0921 179.604 9.26688 180.056ZM-2.96941 186.657C-3.80424 187.115 -4.85594 186.82 -5.32913 185.989C-5.80681 185.15 -5.51445 184.082 -4.67513 183.603C-3.66229 183.027 -2.64607 182.455 -1.62759 181.89C-1.62535 181.889 -1.62309 181.888 -1.62085 181.886C-0.777008 181.423 0.282593 181.729 0.749588 182.572C1.2177 183.416 0.912369 184.481 0.0679626 184.949C-0.938675 185.507 -1.94305 186.072 -2.94406 186.642C-2.95195 186.647 -2.9604 186.652 -2.96941 186.657Z" fill="white"/>
<path d="M179.448 147.975C179.149 148.14 178.798 148.218 178.432 148.181L176.702 148.012C175.741 147.92 175.035 147.067 175.127 146.105C175.218 145.144 176.075 144.439 177.032 144.529L178.785 144.701C179.746 144.799 180.445 145.657 180.348 146.619C180.288 147.212 179.936 147.707 179.448 147.975Z" fill="white"/>
<path d="M79.5371 229.574C78.9231 229.911 78.1401 229.858 77.5723 229.381C76.6912 228.643 75.8012 227.916 74.9033 227.201C74.1479 226.6 74.0234 225.499 74.6244 224.743C75.2232 223.989 76.3256 223.863 77.0816 224.465C78.0026 225.198 78.914 225.943 79.817 226.7C80.5578 227.32 80.6553 228.422 80.0345 229.163C79.8908 229.336 79.7224 229.473 79.5371 229.574ZM71.2665 223.16C70.6959 223.473 69.9726 223.454 69.407 223.05C68.4742 222.382 67.5312 221.725 66.5803 221.08C65.781 220.537 65.572 219.45 66.1145 218.651C66.6575 217.851 67.7447 217.644 68.5429 218.185C69.5186 218.846 70.4841 219.52 71.4417 220.204C72.227 220.766 72.4089 221.859 71.8473 222.645C71.689 222.865 71.4896 223.038 71.2665 223.16ZM62.5335 217.394C62.0034 217.685 61.3376 217.692 60.7833 217.357C59.8014 216.76 58.8123 216.176 57.8152 215.604C56.9781 215.123 56.6874 214.055 57.1691 213.217C57.6501 212.38 58.7182 212.09 59.5564 212.571C60.5777 213.157 61.5916 213.757 62.5988 214.367C63.4241 214.869 63.6872 215.944 63.1864 216.77C63.0208 217.041 62.7932 217.251 62.5335 217.394ZM53.3932 212.294C52.902 212.563 52.2908 212.593 51.7551 212.32C50.7321 211.797 49.7029 211.288 48.6675 210.792C47.7967 210.374 47.4283 209.33 47.8457 208.459C48.2642 207.587 49.308 207.221 50.1784 207.637C51.2408 208.147 52.2964 208.669 53.3464 209.205C54.2066 209.644 54.548 210.697 54.1086 211.557C53.9418 211.881 53.6889 212.132 53.3932 212.294ZM43.8997 207.886C43.4485 208.134 42.8919 208.18 42.3799 207.965C41.3203 207.519 40.2562 207.087 39.187 206.668C38.2879 206.316 37.8441 205.301 38.1973 204.402C38.5488 203.503 39.5627 203.059 40.4629 203.412C41.5597 203.842 42.6508 204.285 43.7357 204.741C44.6258 205.116 45.0443 206.141 44.6697 207.031C44.5109 207.409 44.2337 207.703 43.8997 207.886ZM34.1093 204.189C33.6953 204.416 33.1917 204.476 32.71 204.313C31.6211 203.946 30.5277 203.594 29.4298 203.255C28.5066 202.97 27.99 201.991 28.2751 201.069C28.5607 200.145 29.5414 199.628 30.4618 199.914C31.5879 200.262 32.7089 200.623 33.8248 200.998C34.7408 201.306 35.2325 202.298 34.925 203.213C34.7791 203.647 34.4805 203.985 34.1093 204.189ZM24.0699 201.224C23.6942 201.43 23.2436 201.499 22.7957 201.385C21.6826 201.101 20.5667 200.83 19.448 200.574C18.5067 200.359 17.918 199.421 18.1332 198.48C18.3501 197.538 19.288 196.951 20.2281 197.165C21.3767 197.428 22.5214 197.706 23.6627 197.998C24.5978 198.237 25.1622 199.189 24.9228 200.125C24.7983 200.612 24.4795 200.999 24.0699 201.224ZM13.8402 199.013C13.5033 199.198 13.1034 199.273 12.695 199.202C11.5633 199.001 10.4299 198.815 9.29424 198.643C8.33942 198.499 7.68204 197.608 7.82681 196.653C7.97046 195.697 8.8605 195.04 9.817 195.185C10.9814 195.36 12.1435 195.552 13.3045 195.756C14.2548 195.925 14.8902 196.832 14.7223 197.783C14.6254 198.327 14.2886 198.767 13.8402 199.013ZM3.47184 197.581C3.17329 197.745 2.82404 197.823 2.45901 197.787C1.31549 197.673 0.171959 197.574 -0.972694 197.489C-1.93539 197.419 -2.65924 196.581 -2.58771 195.617C-2.51729 194.654 -1.68134 193.928 -0.71582 194.002C0.458687 194.089 1.63319 194.19 2.80544 194.308C3.76702 194.403 4.4689 195.26 4.37258 196.221C4.31287 196.817 3.9608 197.312 3.47184 197.581ZM-6.97478 196.948C-7.2356 197.092 -7.53641 197.17 -7.85468 197.162C-8.42588 197.15 -8.99596 197.141 -9.56546 197.137C-10.1423 197.132 -10.7197 197.131 -11.2965 197.134C-12.262 197.138 -13.049 196.36 -13.0529 195.393C-13.0569 194.427 -12.2789 193.638 -11.3129 193.637C-10.7214 193.633 -10.1305 193.634 -9.53842 193.639C-8.9492 193.644 -8.36109 193.652 -7.77412 193.667C-6.80861 193.689 -6.04363 194.49 -6.06673 195.455C-6.08138 196.102 -6.44527 196.658 -6.97478 196.948ZM-17.4389 197.132C-17.6603 197.253 -17.9115 197.328 -18.1791 197.344C-19.326 197.409 -20.4723 197.489 -21.6164 197.583C-22.5791 197.662 -23.4235 196.947 -23.5024 195.984C-23.5818 195.021 -22.8675 194.176 -21.9031 194.098C-20.7292 194.001 -19.5547 193.92 -18.3785 193.852C-17.4141 193.798 -16.5883 194.535 -16.5325 195.498C-16.4931 196.194 -16.8666 196.818 -17.4389 197.132ZM-27.8557 198.125C-28.0393 198.225 -28.2443 198.294 -28.464 198.324C-29.6025 198.477 -30.7398 198.644 -31.8749 198.825C-32.8286 198.977 -33.7248 198.327 -33.8769 197.374C-34.029 196.42 -33.3772 195.522 -32.4252 195.372C-31.2626 195.186 -30.0976 195.015 -28.9305 194.858C-27.9734 194.73 -27.0929 195.4 -26.9639 196.358C-26.8648 197.095 -27.2405 197.787 -27.8557 198.125ZM-38.1688 199.905C-38.3158 199.985 -38.4775 200.046 -38.6493 200.082C-39.7731 200.319 -40.8935 200.571 -42.0111 200.837C-42.9502 201.06 -43.8932 200.479 -44.1174 199.54C-44.3416 198.601 -43.7659 197.658 -42.82 197.434C-41.6743 197.162 -40.5246 196.904 -39.372 196.661C-38.4268 196.461 -37.499 197.064 -37.3002 198.009C-37.1368 198.782 -37.5108 199.544 -38.1688 199.905ZM-48.3197 202.449C-48.4306 202.509 -48.5484 202.558 -48.6746 202.595C-49.777 202.916 -50.8771 203.249 -51.9716 203.598C-52.8926 203.89 -53.8756 203.381 -54.1674 202.46C-54.4609 201.54 -53.9551 200.55 -53.0307 200.264C-51.908 199.908 -50.7819 199.565 -49.6502 199.237C-48.7224 198.967 -47.7524 199.5 -47.4832 200.428C-47.2499 201.23 -47.6178 202.063 -48.3197 202.449ZM-97.5138 228.079C-98.2416 228.478 -99.1716 228.313 -99.7118 227.646C-100.32 226.896 -100.204 225.795 -99.4538 225.186C-98.539 224.445 -97.6135 223.714 -96.6795 222.997C-95.9016 222.407 -94.8138 222.552 -94.2274 223.318C-93.6387 224.084 -93.7829 225.181 -94.5485 225.77C-95.4594 226.469 -96.3607 227.181 -97.2518 227.904C-97.3352 227.971 -97.4231 228.029 -97.5138 228.079ZM-58.2559 205.736C-58.3303 205.777 -58.408 205.813 -58.4892 205.843C-59.5668 206.245 -60.6382 206.658 -61.7045 207.085C-62.6002 207.444 -63.6187 207.009 -63.9781 206.112C-64.3369 205.215 -63.8896 204.203 -63.0047 203.838C-61.9124 203.401 -60.8139 202.976 -59.7099 202.565C-58.8052 202.228 -57.798 202.688 -57.4605 203.593C-57.153 204.417 -57.5073 205.325 -58.2559 205.736ZM-89.1356 221.806C-89.9119 222.232 -90.8993 222.01 -91.4136 221.266C-91.9629 220.472 -91.764 219.383 -90.9692 218.834C-90.0003 218.164 -89.0224 217.508 -88.0372 216.862C-87.2316 216.325 -86.1461 216.56 -85.616 217.368C-85.0871 218.175 -85.3135 219.26 -86.1213 219.789C-87.0823 220.418 -88.036 221.058 -88.9813 221.711C-89.0308 221.746 -89.0832 221.778 -89.1356 221.806ZM-67.923 209.748C-67.9596 209.768 -67.9973 209.787 -68.0356 209.805C-69.0794 210.284 -70.1187 210.777 -71.1507 211.281C-72.0188 211.706 -73.066 211.347 -73.4902 210.479C-73.9138 209.611 -73.5127 208.583 -72.6875 208.139C-71.629 207.622 -70.5655 207.118 -69.4952 206.627C-68.6175 206.224 -67.5793 206.609 -67.176 207.486C-66.7913 208.325 -67.1259 209.311 -67.923 209.748ZM-80.304 216.187C-81.1315 216.641 -82.1753 216.356 -82.6541 215.536C-83.142 214.702 -82.8609 213.63 -82.0272 213.144C-81.0104 212.549 -79.9869 211.969 -78.956 211.399C-78.9543 211.398 -78.9526 211.397 -78.9515 211.396C-78.1071 210.933 -77.0458 211.24 -76.5799 212.084C-76.1135 212.93 -76.42 213.994 -77.2655 214.46C-78.2716 215.016 -79.2709 215.584 -80.2629 216.163C-80.2758 216.171 -80.2899 216.179 -80.304 216.187Z" fill="white"/>
<path d="M87.3971 226.917C87.0405 227.112 86.6152 227.185 86.186 227.092C85.2424 226.888 84.6425 225.957 84.8476 225.013C85.0943 223.874 85.3658 222.739 85.6627 221.608C85.9071 220.674 86.8648 220.116 87.7976 220.36C88.7316 220.604 89.2904 221.56 89.0459 222.495C88.7631 223.577 88.5018 224.663 88.2657 225.753C88.1548 226.268 87.8264 226.681 87.3971 226.917ZM90.212 217.038C89.7906 217.269 89.2757 217.327 88.7868 217.154C87.8765 216.832 87.3994 215.832 87.7216 214.922C88.1097 213.825 88.522 212.735 88.9541 211.651C89.3129 210.756 90.3291 210.318 91.2271 210.676C92.1239 211.035 92.5604 212.053 92.2022 212.949C91.7864 213.989 91.3921 215.036 91.0192 216.09C90.8694 216.511 90.5753 216.839 90.212 217.038ZM94.2132 207.578C93.7299 207.843 93.1282 207.876 92.5965 207.614C91.7307 207.186 91.3746 206.137 91.8028 205.271C92.3176 204.229 92.8539 203.195 93.4093 202.171C93.869 201.321 94.9314 201.006 95.7792 201.467C96.6281 201.926 96.9441 202.988 96.4833 203.837C95.9499 204.822 95.4344 205.816 94.9393 206.819C94.7742 207.153 94.5162 207.412 94.2132 207.578ZM99.2796 198.643C98.7349 198.943 98.0482 198.941 97.4894 198.581C96.6777 198.058 96.4445 196.975 96.9678 196.163C97.5981 195.185 98.2465 194.219 98.9118 193.266C99.4616 192.472 100.555 192.28 101.346 192.832C102.138 193.385 102.333 194.475 101.78 195.266C101.139 196.185 100.514 197.117 99.9071 198.059C99.7432 198.312 99.5258 198.508 99.2796 198.643ZM170.766 157.926C170.529 158.055 170.259 158.132 169.97 158.14C168.854 158.168 167.735 158.221 166.62 158.295C165.656 158.359 164.823 157.629 164.76 156.665C164.694 155.703 165.421 154.87 166.389 154.805C167.552 154.728 168.716 154.673 169.882 154.643C170.847 154.619 171.65 155.382 171.674 156.347C171.691 157.024 171.321 157.621 170.766 157.926ZM105.314 190.33C104.708 190.662 103.937 190.615 103.368 190.152C102.619 189.543 102.506 188.442 103.115 187.693C103.85 186.789 104.602 185.9 105.368 185.026C106.003 184.303 107.109 184.228 107.837 184.865C108.562 185.502 108.635 186.607 107.998 187.333C107.259 188.174 106.536 189.031 105.828 189.9C105.681 190.08 105.505 190.224 105.314 190.33ZM160.536 158.81C160.358 158.907 160.16 158.976 159.948 159.006C158.841 159.168 157.738 159.352 156.639 159.56C155.689 159.738 154.775 159.112 154.597 158.163C154.418 157.216 155.042 156.296 155.992 156.122C157.138 155.907 158.287 155.715 159.441 155.547C160.396 155.406 161.285 156.068 161.425 157.023C161.533 157.766 161.157 158.469 160.536 158.81ZM112.229 182.736C111.56 183.103 110.702 182.999 110.141 182.427C109.464 181.737 109.474 180.63 110.163 179.954C110.995 179.138 111.841 178.338 112.703 177.555C113.413 176.903 114.522 176.958 115.173 177.672C115.822 178.386 115.77 179.492 115.056 180.142C114.228 180.895 113.414 181.664 112.614 182.45C112.497 182.565 112.367 182.661 112.229 182.736ZM150.476 160.896C150.356 160.962 150.226 161.016 150.089 161.052C149.009 161.343 147.934 161.655 146.866 161.988C145.944 162.275 144.963 161.762 144.676 160.84C144.388 159.917 144.906 158.929 145.826 158.649C146.936 158.303 148.056 157.978 149.179 157.675C150.112 157.424 151.072 157.976 151.322 158.909C151.536 159.704 151.167 160.518 150.476 160.896ZM119.961 175.974C119.22 176.381 118.272 176.201 117.739 175.51C117.147 174.747 117.286 173.649 118.051 173.057C118.974 172.344 119.912 171.648 120.861 170.975C121.662 170.407 122.74 170.601 123.299 171.388C123.858 172.176 123.673 173.267 122.885 173.826C121.975 174.472 121.076 175.139 120.192 175.824C120.118 175.88 120.04 175.931 119.961 175.974ZM140.734 164.142C140.672 164.175 140.608 164.206 140.539 164.234C139.498 164.649 138.469 165.084 137.446 165.538C136.563 165.931 135.53 165.533 135.138 164.651C134.745 163.771 135.125 162.737 136.024 162.342C137.087 161.869 138.162 161.416 139.244 160.984C140.141 160.627 141.157 161.064 141.515 161.961C141.846 162.79 141.497 163.723 140.734 164.142ZM128.453 170.196C127.632 170.646 126.594 170.369 126.111 169.557C125.617 168.727 125.889 167.654 126.719 167.16C127.607 166.631 128.504 166.118 129.41 165.622L129.759 165.431C130.608 164.972 131.67 165.289 132.129 166.139C132.585 166.986 132.273 168.041 131.431 168.503C131.428 168.505 131.425 168.507 131.421 168.509L131.092 168.688C130.222 169.165 129.361 169.658 128.508 170.166C128.49 170.176 128.472 170.185 128.453 170.196Z" fill="white"/>
<path d="M179.408 158.142C179.12 158.3 178.784 158.38 178.434 158.351C177.864 158.307 177.295 158.27 176.723 158.238C175.759 158.185 175.022 157.358 175.075 156.395C175.128 155.43 175.957 154.69 176.92 154.747C177.514 154.781 178.109 154.82 178.702 154.866C179.666 154.939 180.387 155.78 180.311 156.744C180.265 157.354 179.908 157.868 179.408 158.142Z" fill="white"/>
<path d="M163.729 274.211C163.361 274.413 162.92 274.484 162.479 274.378C161.54 274.151 160.962 273.207 161.189 272.268C161.474 271.086 161.781 269.91 162.109 268.741C162.369 267.811 163.337 267.27 164.265 267.531C165.195 267.792 165.737 268.758 165.475 269.687C165.159 270.814 164.863 271.948 164.588 273.087C164.469 273.585 164.147 273.982 163.729 274.211ZM166.82 263.93C166.396 264.162 165.877 264.219 165.385 264.041C164.477 263.713 164.006 262.712 164.335 261.803C164.747 260.661 165.181 259.526 165.636 258.398C165.995 257.501 167.015 257.07 167.912 257.431C168.807 257.792 169.24 258.811 168.878 259.707C168.44 260.794 168.023 261.889 167.624 262.991C167.474 263.407 167.181 263.732 166.82 263.93ZM171.012 254.046C170.53 254.31 169.931 254.345 169.401 254.085C168.533 253.66 168.175 252.613 168.599 251.745C169.132 250.655 169.688 249.572 170.261 248.502C170.721 247.645 171.779 247.33 172.629 247.786C173.481 248.242 173.801 249.302 173.345 250.153C172.791 251.187 172.256 252.23 171.741 253.282C171.577 253.619 171.318 253.879 171.012 254.046ZM176.248 244.672C175.709 244.968 175.028 244.97 174.471 244.618C173.655 244.103 173.411 243.023 173.927 242.206C174.575 241.179 175.241 240.163 175.928 239.161C176.476 238.36 177.562 238.16 178.36 238.705C179.156 239.251 179.36 240.339 178.815 241.136C178.153 242.104 177.51 243.083 176.884 244.073C176.72 244.333 176.499 244.534 176.248 244.672ZM250.011 199.699C249.807 199.811 249.576 199.884 249.329 199.906C248.16 200.012 246.996 200.14 245.833 200.289C244.875 200.411 243.999 199.733 243.877 198.776C243.756 197.816 244.436 196.939 245.39 196.819C246.593 196.665 247.802 196.533 249.012 196.423C249.975 196.336 250.825 197.044 250.913 198.006C250.978 198.721 250.602 199.375 250.011 199.699ZM182.464 235.921C181.865 236.25 181.102 236.208 180.532 235.756C179.777 235.153 179.653 234.053 180.255 233.298C181.012 232.347 181.785 231.41 182.578 230.487C183.207 229.756 184.309 229.671 185.044 230.3C185.776 230.931 185.859 232.035 185.23 232.767C184.466 233.657 183.721 234.56 182.989 235.477C182.841 235.664 182.662 235.813 182.464 235.921ZM239.39 201.258C239.24 201.341 239.075 201.402 238.898 201.437C237.749 201.672 236.603 201.927 235.463 202.203C234.524 202.43 233.58 201.852 233.353 200.914C233.124 199.975 233.702 199.032 234.642 198.803C235.824 198.518 237.008 198.255 238.199 198.012C239.144 197.819 240.069 198.429 240.261 199.376C240.419 200.145 240.044 200.899 239.39 201.258ZM189.599 227.902C188.936 228.266 188.088 228.168 187.525 227.608C186.84 226.927 186.836 225.82 187.517 225.136C188.374 224.273 189.248 223.427 190.139 222.598C190.84 221.937 191.951 221.981 192.611 222.686C193.268 223.393 193.228 224.5 192.521 225.157C191.664 225.956 190.823 226.77 189.999 227.6C189.876 227.722 189.741 227.824 189.599 227.902ZM229.001 203.967C228.904 204.02 228.802 204.065 228.692 204.099C227.572 204.458 226.462 204.835 225.359 205.231C224.451 205.557 223.448 205.087 223.123 204.176C222.794 203.269 223.27 202.273 224.176 201.94C225.318 201.529 226.468 201.139 227.625 200.77C228.544 200.475 229.529 200.982 229.823 201.902C230.083 202.712 229.72 203.572 229.001 203.967ZM197.589 220.732C196.856 221.134 195.922 220.964 195.383 220.29C194.78 219.536 194.903 218.435 195.657 217.832C196.608 217.073 197.573 216.331 198.55 215.609C199.334 215.036 200.422 215.198 200.996 215.975C201.57 216.752 201.405 217.847 200.63 218.42C199.686 219.118 198.757 219.832 197.842 220.564C197.76 220.628 197.676 220.685 197.589 220.732ZM218.967 207.781C218.924 207.805 218.879 207.827 218.834 207.847C217.761 208.323 216.697 208.817 215.643 209.331C214.775 209.754 213.729 209.392 213.305 208.524C212.883 207.655 213.244 206.615 214.113 206.186C215.205 205.655 216.305 205.143 217.416 204.65C218.3 204.258 219.333 204.657 219.724 205.541C220.094 206.377 219.756 207.348 218.967 207.781ZM206.336 214.511C205.532 214.952 204.513 214.696 204.017 213.909C203.502 213.092 203.747 212.014 204.564 211.498C205.592 210.849 206.632 210.221 207.682 209.611C207.695 209.603 207.707 209.596 207.719 209.59C208.548 209.135 209.594 209.422 210.073 210.244C210.557 211.08 210.273 212.151 209.438 212.634C208.424 213.224 207.421 213.83 206.428 214.456C206.398 214.475 206.367 214.493 206.336 214.511Z" fill="white"/>
<path d="M258.951 199.308C258.699 199.446 258.411 199.525 258.105 199.524C257.531 199.521 256.957 199.525 256.384 199.533C255.419 199.545 254.625 198.773 254.613 197.807C254.6 196.842 255.369 196.05 256.339 196.036C256.931 196.028 257.525 196.024 258.118 196.026C259.084 196.03 259.864 196.815 259.86 197.782C259.857 198.44 259.489 199.013 258.951 199.308Z" fill="white"/>
<path d="M360.121 324.075C359.556 324.384 358.844 324.37 358.28 323.978C357.319 323.31 356.375 322.622 355.445 321.914C354.677 321.329 354.528 320.232 355.113 319.463C355.699 318.695 356.795 318.546 357.564 319.131C358.455 319.809 359.36 320.468 360.277 321.108C361.07 321.658 361.265 322.749 360.714 323.541C360.554 323.771 360.35 323.949 360.121 324.075ZM352.066 317.671C351.431 318.02 350.62 317.949 350.053 317.436C349.186 316.654 348.335 315.852 347.5 315.034C346.812 314.358 346.803 313.251 347.479 312.56C348.159 311.874 349.263 311.864 349.953 312.539C350.75 313.323 351.566 314.089 352.397 314.841C353.114 315.488 353.169 316.594 352.522 317.31C352.388 317.46 352.232 317.58 352.066 317.671ZM344.864 310.321C344.157 310.708 343.254 310.568 342.704 309.934C341.937 309.051 341.19 308.154 340.46 307.243C339.857 306.489 339.979 305.387 340.734 304.785C341.501 304.181 342.589 304.305 343.192 305.059C343.889 305.933 344.609 306.794 345.344 307.639C345.978 308.369 345.9 309.473 345.17 310.107C345.076 310.192 344.972 310.262 344.864 310.321ZM338.59 302.168C337.808 302.597 336.816 302.369 336.305 301.618C335.648 300.654 335.009 299.675 334.393 298.687C333.882 297.869 334.13 296.79 334.95 296.278C335.753 295.775 336.846 296.014 337.358 296.834C337.953 297.783 338.566 298.722 339.195 299.65C339.739 300.449 339.532 301.535 338.734 302.078C338.687 302.112 338.639 302.141 338.59 302.168ZM333.302 293.339C333.293 293.344 333.282 293.35 333.272 293.356C332.417 293.803 331.36 293.473 330.911 292.617C330.37 291.584 329.85 290.541 329.35 289.491C328.933 288.618 329.325 287.574 330.175 287.16C331.047 286.744 332.091 287.114 332.505 287.986C332.987 288.995 333.491 290 334.011 290.995C334.452 291.839 334.136 292.882 333.302 293.339ZM329.057 283.965C328.99 284.002 328.919 284.036 328.844 284.064C327.943 284.413 326.931 283.963 326.583 283.063C326.163 281.974 325.763 280.877 325.386 279.773C325.076 278.86 325.552 277.872 326.476 277.552C327.389 277.24 328.384 277.729 328.696 278.642C329.059 279.704 329.441 280.757 329.845 281.803C330.165 282.629 329.813 283.551 329.057 283.965ZM325.917 274.165C325.791 274.234 325.654 274.289 325.509 274.326C324.573 274.567 323.621 274.002 323.38 273.067C323.09 271.937 322.823 270.801 322.577 269.66C322.374 268.718 322.97 267.785 323.917 267.583C324.861 267.379 325.792 267.978 325.994 268.923C326.231 270.019 326.49 271.111 326.768 272.198C326.971 272.988 326.6 273.79 325.917 274.165ZM323.953 264.066C323.768 264.166 323.563 264.236 323.342 264.266C322.386 264.393 321.506 263.721 321.378 262.763C321.223 261.605 321.093 260.441 320.99 259.279C320.902 258.316 321.61 257.46 322.574 257.381C323.535 257.293 324.386 258.003 324.472 258.965C324.573 260.079 324.697 261.19 324.846 262.302C324.944 263.039 324.567 263.729 323.953 264.066ZM323.231 253.803C322.985 253.938 322.703 254.017 322.404 254.017C321.437 254.023 320.649 253.246 320.643 252.281C320.635 251.113 320.652 249.943 320.694 248.774C320.729 247.812 321.535 247.059 322.506 247.091C323.469 247.126 324.224 247.937 324.189 248.902C324.149 250.019 324.132 251.138 324.139 252.256C324.145 252.922 323.776 253.504 323.231 253.803ZM323.828 243.532C323.516 243.703 323.152 243.78 322.771 243.734C321.814 243.614 321.134 242.741 321.252 241.782C321.325 241.198 321.404 240.613 321.489 240.029C321.572 239.453 321.663 238.88 321.76 238.308C321.924 237.357 322.826 236.715 323.777 236.876C324.729 237.039 325.371 237.942 325.209 238.893C325.117 239.439 325.03 239.983 324.949 240.532C324.869 241.092 324.793 241.652 324.723 242.215C324.652 242.794 324.304 243.271 323.828 243.532ZM325.773 233.426C325.394 233.634 324.939 233.703 324.489 233.585C323.554 233.34 322.996 232.384 323.239 231.45C323.536 230.32 323.856 229.194 324.2 228.078C324.483 227.157 325.461 226.638 326.386 226.921C327.309 227.204 327.827 228.184 327.543 229.108C327.215 230.176 326.907 231.251 326.624 232.336C326.497 232.821 326.179 233.204 325.773 233.426ZM329.012 223.658C328.567 223.902 328.021 223.952 327.517 223.748C326.619 223.387 326.187 222.367 326.547 221.472C326.984 220.39 327.441 219.317 327.92 218.254C328.314 217.369 329.35 216.98 330.231 217.375C331.112 217.772 331.505 218.807 331.11 219.687C330.65 220.707 330.21 221.741 329.792 222.778C329.634 223.169 329.353 223.471 329.012 223.658ZM333.43 214.368C332.921 214.647 332.286 214.666 331.742 214.365C330.896 213.899 330.591 212.835 331.058 211.99C331.621 210.97 332.205 209.961 332.806 208.962C333.303 208.135 334.378 207.868 335.206 208.366C336.033 208.865 336.301 209.939 335.802 210.766C335.223 211.728 334.661 212.699 334.117 213.681C333.953 213.982 333.71 214.215 333.43 214.368ZM338.922 205.668C338.35 205.981 337.627 205.962 337.062 205.557C336.276 204.994 336.096 203.903 336.658 203.117C337.338 202.168 338.034 201.234 338.749 200.313C339.349 199.549 340.441 199.414 341.203 200.005C341.965 200.598 342.104 201.696 341.512 202.459C340.824 203.343 340.154 204.242 339.501 205.153C339.343 205.374 339.144 205.546 338.922 205.668ZM345.384 197.659C344.75 198.008 343.937 197.936 343.369 197.423C342.652 196.774 342.599 195.668 343.247 194.953C344.03 194.088 344.831 193.239 345.649 192.404C346.327 191.712 347.43 191.703 348.121 192.38C348.811 193.056 348.823 194.163 348.145 194.852C347.359 195.654 346.592 196.47 345.84 197.301C345.705 197.449 345.551 197.569 345.384 197.659ZM352.718 190.446C352.015 190.832 351.114 190.692 350.564 190.065C349.928 189.339 349.999 188.235 350.725 187.596C351.602 186.827 352.495 186.076 353.4 185.342C354.147 184.729 355.25 184.847 355.859 185.598C356.469 186.346 356.354 187.448 355.603 188.056C354.733 188.763 353.875 189.487 353.033 190.226C352.933 190.312 352.828 190.386 352.718 190.446ZM382.268 173.446C382.176 173.497 382.075 173.541 381.972 173.576C380.908 173.923 379.851 174.294 378.805 174.688C377.9 175.026 376.892 174.57 376.552 173.666C376.214 172.763 376.675 171.754 377.573 171.414C378.668 171.002 379.771 170.617 380.88 170.252C381.798 169.951 382.786 170.451 383.088 171.368C383.355 172.18 382.992 173.049 382.268 173.446ZM360.838 184.12C360.06 184.546 359.071 184.323 358.558 183.578C358.01 182.782 358.212 181.694 359.005 181.145C359.967 180.484 360.94 179.84 361.924 179.217C362.731 178.716 363.819 178.942 364.338 179.759C364.855 180.574 364.611 181.654 363.795 182.172C362.851 182.769 361.915 183.389 360.991 184.026C360.94 184.059 360.889 184.092 360.838 184.12ZM372.715 177.259C372.685 177.275 372.654 177.291 372.622 177.306C371.611 177.786 370.608 178.288 369.616 178.808C368.761 179.258 367.703 178.929 367.255 178.074C366.804 177.219 367.181 176.134 367.988 175.712C369.022 175.169 370.069 174.647 371.123 174.147C371.994 173.733 373.037 174.103 373.452 174.977C373.85 175.818 373.52 176.817 372.715 177.259Z" fill="white"/>
<path d="M390.626 171.215C390.476 171.298 390.311 171.359 390.136 171.395C389.579 171.509 389.025 171.632 388.471 171.761C387.531 171.982 386.59 171.397 386.371 170.457C386.15 169.516 386.733 168.575 387.675 168.356C388.259 168.219 388.845 168.09 389.434 167.97C390.381 167.775 391.304 168.385 391.497 169.331C391.656 170.101 391.282 170.856 390.626 171.215Z" fill="white"/>
<path d="M482.547 157.624C482.182 157.825 481.743 157.896 481.305 157.793C480.161 157.525 479.013 157.272 477.86 157.04C476.913 156.849 476.3 155.926 476.49 154.981C476.681 154.037 477.6 153.419 478.55 153.611C479.739 153.851 480.925 154.11 482.106 154.389C483.046 154.61 483.629 155.552 483.408 156.491C483.291 156.995 482.967 157.394 482.547 157.624ZM358.001 223.853C357.57 224.09 357.041 224.144 356.543 223.956C355.639 223.616 355.183 222.606 355.524 221.702C355.954 220.567 356.401 219.437 356.869 218.316C357.241 217.422 358.264 217.004 359.156 217.375C360.047 217.747 360.468 218.77 360.096 219.662C359.645 220.747 359.21 221.839 358.797 222.938C358.643 223.343 358.355 223.659 358.001 223.853ZM471.975 155.686C471.66 155.858 471.29 155.937 470.908 155.885C469.741 155.733 468.575 155.599 467.405 155.485C466.444 155.392 465.74 154.538 465.833 153.576C465.925 152.614 466.783 151.913 467.743 152.004C468.95 152.121 470.157 152.259 471.362 152.418C472.319 152.543 472.994 153.422 472.869 154.379C472.793 154.955 472.446 155.427 471.975 155.686ZM362.305 214.002C361.82 214.268 361.216 214.3 360.683 214.035C359.817 213.604 359.467 212.553 359.897 211.69C360.439 210.602 361 209.525 361.578 208.456C362.039 207.609 363.098 207.289 363.949 207.751C364.799 208.213 365.113 209.273 364.655 210.123C364.095 211.155 363.552 212.199 363.027 213.25C362.863 213.582 362.606 213.837 362.305 214.002ZM461.26 154.821C460.995 154.966 460.69 155.043 460.366 155.034C459.191 154.999 458.016 154.983 456.841 154.985C455.874 154.988 455.089 154.207 455.088 153.242C455.085 152.275 455.869 151.488 456.831 151.489C458.045 151.485 459.26 151.502 460.474 151.539C461.439 151.567 462.197 152.374 462.168 153.341C462.15 153.982 461.785 154.532 461.26 154.821ZM367.579 204.637C367.04 204.932 366.36 204.935 365.802 204.583C364.985 204.067 364.741 202.987 365.257 202.17C365.905 201.145 366.569 200.13 367.248 199.125C367.79 198.319 368.876 198.115 369.677 198.655C370.476 199.197 370.687 200.283 370.146 201.084C369.486 202.06 368.843 203.044 368.214 204.039C368.051 204.298 367.83 204.499 367.579 204.637ZM450.512 155.023C450.296 155.142 450.053 155.217 449.791 155.234C448.618 155.314 447.445 155.412 446.276 155.532C445.316 155.628 444.457 154.929 444.36 153.967C444.264 153.005 444.966 152.151 445.925 152.051C447.133 151.93 448.342 151.827 449.553 151.745C450.516 151.679 451.351 152.406 451.417 153.37C451.465 154.072 451.092 154.706 450.512 155.023ZM373.754 195.84C373.16 196.166 372.405 196.13 371.837 195.688C371.075 195.093 370.938 193.996 371.532 193.234C372.278 192.275 373.038 191.33 373.818 190.396C374.437 189.657 375.539 189.553 376.28 190.173C377.022 190.79 377.122 191.893 376.503 192.635C375.751 193.539 375.013 194.456 374.292 195.381C374.139 195.576 373.956 195.729 373.754 195.84ZM439.841 156.279C439.673 156.37 439.488 156.437 439.29 156.47C438.129 156.665 436.973 156.878 435.822 157.112C434.876 157.304 433.952 156.693 433.76 155.746C433.569 154.799 434.184 153.879 435.125 153.684C436.316 153.444 437.509 153.221 438.709 153.021C439.662 152.861 440.564 153.504 440.724 154.456C440.851 155.211 440.474 155.932 439.841 156.279ZM380.763 187.692C380.113 188.049 379.283 187.964 378.718 187.427C378.016 186.762 377.988 185.656 378.654 184.955C379.49 184.074 380.341 183.208 381.204 182.357C381.888 181.676 382.998 181.686 383.677 182.373C384.354 183.061 384.348 184.169 383.66 184.846C382.822 185.673 381.998 186.512 381.19 187.363C381.061 187.497 380.917 187.608 380.763 187.692ZM429.343 158.581C429.223 158.647 429.096 158.699 428.96 158.737C427.823 159.044 426.695 159.373 425.573 159.718C424.65 160.003 423.67 159.484 423.387 158.563C423.102 157.64 423.627 156.662 424.542 156.377C425.703 156.018 426.869 155.68 428.042 155.36C428.975 155.108 429.935 155.658 430.189 156.59C430.405 157.385 430.035 158.201 429.343 158.581ZM388.54 180.276C387.832 180.664 386.926 180.521 386.378 179.884C385.745 179.154 385.827 178.049 386.559 177.419C387.477 176.624 388.411 175.847 389.357 175.085C390.112 174.476 391.21 174.596 391.816 175.348C392.421 176.101 392.304 177.202 391.552 177.807C390.636 178.545 389.734 179.297 388.844 180.064C388.749 180.148 388.647 180.217 388.54 180.276ZM419.125 161.925C419.056 161.963 418.984 161.996 418.909 162.025C417.813 162.446 416.725 162.887 415.644 163.345C414.754 163.722 413.728 163.308 413.35 162.42C412.974 161.532 413.412 160.509 414.275 160.127C415.393 159.651 416.521 159.197 417.654 158.759C418.555 158.413 419.567 158.863 419.914 159.765C420.231 160.591 419.881 161.511 419.125 161.925ZM397.025 173.675C396.253 174.098 395.269 173.882 394.752 173.143C394.199 172.352 394.392 171.262 395.183 170.708C396.176 170.013 397.185 169.333 398.204 168.67C399.025 168.124 400.098 168.376 400.623 169.184C401.149 169.994 400.919 171.077 400.11 171.603C399.124 172.243 398.15 172.9 397.188 173.573C397.135 173.611 397.081 173.644 397.025 173.675ZM409.307 166.294C409.292 166.302 409.277 166.311 409.262 166.319C408.741 166.586 408.222 166.855 407.706 167.129C407.319 167.333 406.934 167.54 406.553 167.749L406.14 167.977C405.293 168.442 404.231 168.133 403.766 167.285C403.301 166.438 403.611 165.376 404.458 164.911L404.854 164.692C404.861 164.688 404.866 164.685 404.874 164.681C405.28 164.458 405.675 164.245 406.071 164.036C406.601 163.755 407.134 163.478 407.668 163.204C408.529 162.765 409.583 163.105 410.023 163.964C410.454 164.81 410.131 165.842 409.307 166.294Z" fill="white"/>
<path d="M382.288 316.976C381.919 317.179 381.475 317.249 381.034 317.142C380.096 316.913 379.521 315.968 379.748 315.029C380.029 313.876 380.316 312.721 380.609 311.567C380.85 310.633 381.798 310.067 382.736 310.303C383.671 310.541 384.238 311.493 384 312.43C383.708 313.571 383.425 314.712 383.147 315.856C383.026 316.354 382.703 316.749 382.288 316.976ZM384.975 306.671C384.589 306.883 384.123 306.949 383.666 306.822C382.735 306.564 382.191 305.6 382.449 304.669C382.769 303.52 383.096 302.375 383.43 301.231C383.701 300.301 384.674 299.778 385.602 300.046C386.529 300.318 387.058 301.29 386.788 302.217C386.456 303.344 386.134 304.475 385.819 305.606C385.687 306.08 385.374 306.452 384.975 306.671ZM388.031 296.466C387.626 296.689 387.132 296.751 386.657 296.599C385.737 296.304 385.23 295.32 385.525 294.4C385.889 293.265 386.26 292.133 386.641 291.002C386.95 290.089 387.941 289.595 388.856 289.902C389.771 290.21 390.264 291.202 389.956 292.117C389.582 293.232 389.214 294.347 388.857 295.467C388.714 295.911 388.41 296.259 388.031 296.466ZM391.505 286.398C391.077 286.633 390.551 286.687 390.056 286.505C389.151 286.168 388.688 285.161 389.023 284.257C389.438 283.139 389.86 282.023 390.292 280.911C390.645 280.009 391.661 279.564 392.556 279.913C393.457 280.262 393.903 281.276 393.554 282.176C393.129 283.273 392.712 284.37 392.304 285.472C392.151 285.883 391.861 286.202 391.505 286.398ZM395.451 276.502C394.994 276.753 394.432 276.798 393.918 276.577C393.031 276.195 392.621 275.168 393 274.279C393.472 273.183 393.953 272.09 394.443 271.001C394.838 270.116 395.874 269.725 396.754 270.123C397.636 270.519 398.028 271.554 397.633 272.434C397.15 273.507 396.678 274.581 396.216 275.659C396.056 276.032 395.78 276.321 395.451 276.502ZM399.918 266.835C399.433 267.101 398.831 267.133 398.298 266.868C397.431 266.44 397.08 265.39 397.509 264.525C398.041 263.453 398.584 262.387 399.14 261.328C399.588 260.468 400.645 260.144 401.501 260.592C402.356 261.04 402.685 262.097 402.236 262.953C401.694 263.988 401.163 265.032 400.641 266.08C400.477 266.413 400.22 266.669 399.918 266.835ZM404.959 257.452C404.44 257.737 403.791 257.751 403.241 257.433C402.405 256.951 402.12 255.88 402.604 255.043C403.203 254.008 403.815 252.979 404.438 251.956C404.944 251.132 406.018 250.87 406.842 251.374C407.668 251.878 407.927 252.955 407.424 253.778C406.816 254.777 406.218 255.782 405.63 256.796C405.465 257.081 405.23 257.304 404.959 257.452ZM410.608 248.428C410.051 248.733 409.347 248.724 408.785 248.343C407.986 247.801 407.776 246.715 408.318 245.915C408.988 244.924 409.672 243.939 410.367 242.966C410.928 242.182 412.022 241.995 412.805 242.557C413.591 243.117 413.774 244.211 413.214 244.996C412.535 245.949 411.869 246.908 411.213 247.876C411.053 248.113 410.844 248.299 410.608 248.428ZM416.902 239.843C416.305 240.171 415.543 240.131 414.974 239.679C414.218 239.08 414.091 237.981 414.69 237.223C415.075 236.74 415.464 236.256 415.854 235.774L416.961 234.439C417.578 233.699 418.682 233.596 419.423 234.216C420.166 234.835 420.265 235.938 419.646 236.678L418.566 237.986C418.188 238.45 417.807 238.922 417.432 239.396C417.282 239.584 417.101 239.734 416.902 239.843ZM492.342 198.337C492.112 198.463 491.849 198.54 491.57 198.55C490.411 198.596 489.255 198.665 488.103 198.76C487.14 198.84 486.294 198.123 486.217 197.161C486.137 196.199 486.853 195.349 487.815 195.275C489.019 195.175 490.224 195.103 491.434 195.056C492.398 195.018 493.212 195.769 493.249 196.735C493.277 197.421 492.905 198.029 492.342 198.337ZM423.871 231.796C423.223 232.152 422.394 232.069 421.828 231.535C421.127 230.869 421.096 229.762 421.759 229.062C422.584 228.19 423.425 227.329 424.278 226.482C424.963 225.802 426.071 225.806 426.751 226.491C427.431 227.176 427.429 228.283 426.742 228.964C425.914 229.786 425.101 230.62 424.301 231.465C424.171 231.601 424.027 231.711 423.871 231.796ZM481.76 199.432C481.594 199.524 481.41 199.59 481.213 199.624C480.068 199.817 478.929 200.034 477.795 200.274C476.849 200.475 475.921 199.872 475.722 198.928C475.519 197.985 476.118 197.055 477.068 196.855C478.25 196.603 479.436 196.378 480.626 196.175C481.58 196.014 482.483 196.655 482.644 197.606C482.771 198.362 482.395 199.084 481.76 199.432ZM431.531 224.402C430.83 224.786 429.932 224.65 429.38 224.025C428.741 223.301 428.811 222.195 429.533 221.557C430.434 220.763 431.346 219.982 432.271 219.214C433.017 218.583 434.116 218.701 434.732 219.441C435.35 220.184 435.248 221.287 434.505 221.904C433.607 222.649 432.722 223.408 431.848 224.179C431.749 224.267 431.641 224.342 431.531 224.402ZM471.391 201.845C471.283 201.904 471.168 201.953 471.046 201.989C469.932 202.318 468.824 202.67 467.724 203.043C466.811 203.353 465.817 202.862 465.508 201.947C465.198 201.033 465.672 200.037 466.604 199.73C467.747 199.343 468.895 198.98 470.051 198.636C470.977 198.362 471.951 198.891 472.225 199.816C472.463 200.62 472.096 201.459 471.391 201.845ZM439.827 217.729C439.069 218.146 438.101 217.946 437.577 217.229C437.006 216.45 437.175 215.356 437.955 214.785C438.926 214.073 439.908 213.378 440.898 212.701C441.735 212.142 442.784 212.36 443.329 213.155C443.876 213.952 443.671 215.042 442.875 215.586C441.913 216.244 440.962 216.918 440.021 217.606C439.959 217.652 439.893 217.693 439.827 217.729ZM461.371 205.439C461.319 205.468 461.265 205.493 461.208 205.518C460.138 205.97 459.076 206.441 458.021 206.932C457.145 207.339 456.105 206.959 455.697 206.084C455.291 205.209 455.695 204.188 456.545 203.76C457.638 203.252 458.741 202.763 459.849 202.295C460.74 201.919 461.765 202.336 462.141 203.227C462.491 204.061 462.149 205.013 461.371 205.439ZM448.71 211.857C447.888 212.308 446.851 212.029 446.367 211.216C445.873 210.387 446.145 209.314 446.977 208.82C448.011 208.204 449.054 207.607 450.109 207.026L450.111 207.025C450.957 206.561 452.017 206.869 452.484 207.716C452.95 208.561 452.641 209.624 451.794 210.091C450.775 210.652 449.765 211.232 448.763 211.826C448.746 211.837 448.728 211.847 448.71 211.857Z" fill="white"/>
<path d="M198.919 149.457C192.106 149.457 186.582 154.98 186.582 161.794C186.582 176.942 198.918 189.898 198.918 189.898C198.918 189.898 211.253 176.943 211.254 161.796V161.794C211.256 154.98 205.732 149.457 198.919 149.457ZM198.919 167.285C195.891 167.285 193.427 164.822 193.427 161.794C193.427 158.765 195.891 156.302 198.919 156.302C201.947 156.302 204.411 158.765 204.411 161.794C204.411 164.822 201.947 167.285 198.919 167.285Z" fill="#FF4A4A"/>
<path d="M281.555 197.082C274.742 197.082 269.218 202.605 269.218 209.419C269.218 224.567 281.555 237.523 281.555 237.523C281.555 237.523 293.89 224.568 293.891 209.421V209.419C293.891 202.605 288.368 197.082 281.555 197.082ZM281.555 214.91C278.526 214.91 276.063 212.447 276.063 209.418C276.063 206.39 278.526 203.926 281.555 203.926C284.583 203.926 287.047 206.39 287.047 209.418C287.047 212.447 284.583 214.91 281.555 214.91Z" fill="#FF4A4A"/>
<path d="M179.663 231.056L190.075 217.702L198.581 216.221L195.038 228.761L179.663 231.056Z" fill="#BAECFE"/>
<path d="M223.256 209.21L215.34 224.839L223.775 223.339L226.752 208.721L223.256 209.21Z" fill="white"/>
<path d="M229.54 208.33L226.752 208.721L223.775 223.338L227.923 222.6L229.54 208.33Z" fill="#5088CE"/>
<path opacity="0.51" d="M309.3 163.082C308.87 163.025 308.434 162.963 307.992 162.897C303.207 162.182 298.258 162.628 293.666 164.15C289.589 165.501 286.226 166.269 281.944 164.563C279.378 163.54 277.251 161.518 274.579 160.821C269.924 159.606 264.866 162.701 260.293 161.208C256.181 159.864 253.971 154.879 254.953 150.666C255.934 146.453 259.498 143.176 263.534 141.62C267.571 140.065 272.032 140.008 276.337 140.423C280.643 140.838 284.904 141.704 289.225 141.921C296.635 142.293 304.024 140.753 311.443 140.853C315.062 140.902 318.676 141.343 322.201 142.166C324.692 142.748 327.267 143.6 328.974 145.506C330.757 147.497 331.292 150.43 330.659 153.025C330.025 155.621 328.324 157.879 326.208 159.51C320.717 163.742 315.606 163.925 309.3 163.082Z" fill="#1641B7"/>
<path d="M292.732 154.708C304.358 155.202 316.095 151.235 325.11 143.889C322.736 147.929 319.464 151.917 316.058 154.462C305.107 158.593 288.168 161.435 269.284 153.458C266.511 151.15 264.158 147.578 262.373 144.258C270.723 151.008 281.946 154.251 292.732 154.708Z" fill="white"/>
<path d="M328.094 137.38C327.463 139.409 326.421 141.657 325.11 143.888C316.096 151.234 304.359 155.202 292.732 154.708C281.946 154.25 270.722 151.008 262.373 144.258C260.018 139.878 258.656 135.939 258.656 135.939L328.094 137.38Z" fill="#FF4A4A"/>
<path d="M258.656 135.94C267.156 145.424 280.505 149.82 293.229 150.36C305.953 150.9 318.82 146.11 328.093 137.381C318.598 130.195 306.994 127.179 295.094 127.613C283.194 128.047 270.15 132.826 258.656 135.94Z" fill="#BAECFE"/>
<path d="M310.59 134.406H310.586C310.806 134.803 310.965 135.231 311.038 135.688C311.544 138.875 308.099 141.184 305.063 142.278C294.109 146.226 281.684 145.924 270.935 141.448C268.297 140.349 265.372 138.386 265.518 135.532C265.544 135.014 265.685 134.523 265.903 134.064L265.855 134.063L269.367 125.928L306.669 126.055L310.59 134.406Z" fill="white"/>
<path d="M306.668 126.055C306.442 124.634 305.234 123.526 303.892 123.008C302.549 122.489 301.076 122.453 299.638 122.424C292.075 122.269 284.511 122.114 276.948 121.959C275.361 121.927 273.728 121.902 272.245 122.468C270.761 123.034 269.446 124.342 269.366 125.927C269.247 128.266 271.643 129.874 273.805 130.775C282.613 134.443 292.795 134.691 301.771 131.456C304.26 130.559 307.083 128.666 306.668 126.055Z" fill="#BAECFE"/>
<path d="M273.755 121.202C275.03 121.412 276.345 121.368 277.603 121.073C278.115 120.953 278.633 120.784 279.034 120.444C279.326 120.197 279.54 119.843 279.594 119.473C280.247 122.351 280.802 124.824 280.802 124.824C280.929 125.378 280.643 125.966 280.209 126.334C279.774 126.701 279.215 126.884 278.661 127.014C277.303 127.332 275.881 127.38 274.504 127.153C273.881 127.051 273.25 126.884 272.742 126.51C272.233 126.136 271.867 125.518 271.943 124.891C272.015 123.42 271.781 121.596 271.6 120.016C271.733 120.245 271.912 120.452 272.125 120.608C272.596 120.953 273.179 121.107 273.755 121.202Z" fill="white"/>
<path d="M279.046 117.064C279.231 117.87 279.416 118.686 279.594 119.472C279.54 119.843 279.326 120.197 279.035 120.443C278.633 120.784 278.116 120.953 277.603 121.073C276.346 121.368 275.03 121.412 273.756 121.201C273.18 121.107 272.596 120.953 272.126 120.607C271.913 120.45 271.735 120.244 271.601 120.015C271.465 118.822 271.358 117.763 271.442 117.122L279.046 117.064Z" fill="#FF4A4A"/>
<path d="M273.64 119.064C273.105 118.976 272.563 118.833 272.127 118.512C271.691 118.191 271.376 117.66 271.441 117.122C271.514 116.517 272.045 116.048 272.624 115.86C273.203 115.672 273.828 115.71 274.436 115.749C275.242 115.802 276.049 115.855 276.856 115.908C277.299 115.937 277.752 115.968 278.163 116.135C278.575 116.302 278.947 116.631 279.046 117.064C279.156 117.54 278.91 118.045 278.537 118.36C278.164 118.675 277.684 118.832 277.209 118.944C276.042 119.218 274.822 119.259 273.64 119.064Z" fill="#3E3C5F"/>
<path d="M271.504 114.585C270.205 111.954 267.176 110.291 264.259 110.605C261.343 110.92 258.738 113.19 258.029 116.037C257.602 117.755 257.817 119.567 257.583 121.322C257.348 123.077 256.454 124.958 254.762 125.479C252.693 126.116 250.368 124.458 248.363 125.276C247.135 125.777 246.424 127.083 246.1 128.37C245.777 129.657 245.741 131.008 245.355 132.277C244.317 135.688 240.51 138.002 237.003 137.353C233.497 136.705 230.77 133.182 231.02 129.625C229.485 132.34 225.975 133.759 222.985 132.873C219.995 131.988 217.823 128.887 218.013 125.774C216.338 124.553 214.643 123.314 213.324 121.715C212.006 120.115 211.081 118.09 211.215 116.021C211.348 113.952 212.725 111.901 214.734 111.389C216.743 110.877 219.146 112.331 219.273 114.401C222.095 113.257 226.305 114.251 227.786 116.912C229.199 115.017 231.702 113.999 234.036 114.37C236.371 114.741 238.435 116.484 239.191 118.724C238.788 116.391 241.347 114.094 243.623 114.746C242.664 113.059 243.597 110.603 245.434 109.979C247.272 109.354 249.508 110.731 249.777 112.653C251.115 108.226 256.205 105.622 260.791 106.217C265.378 106.811 270.919 110.357 271.504 114.585Z" fill="white"/>
<path d="M99.1906 159.767C100.083 159.837 100.749 160.617 100.679 161.51C100.609 162.402 99.8289 163.068 98.9363 162.998L87.4082 162.09L87.6629 158.859L99.1906 159.767Z" fill="white"/>
<path d="M87.8287 167.982C88.7208 168.052 89.3871 168.832 89.3171 169.725C89.2466 170.617 88.4665 171.283 87.5744 171.213L76.0463 170.305L76.301 167.074L87.8287 167.982Z" fill="white"/>
<path d="M103.044 138.831L89.6527 130.045L81.5853 131.31L88.5777 141.459L103.044 138.831Z" fill="#BAECFE"/>
<path d="M52.7507 147.67C75.2906 148.579 97.8305 149.488 120.37 150.397C122.405 150.48 124.584 150.526 126.307 149.439C127.271 148.83 127.96 147.721 128.123 146.613C128.671 147.153 129.065 147.824 129.144 148.545C129.334 150.268 128.403 151.977 127.067 153.082C126.473 153.573 125.767 153.928 125.017 154.204C123.446 154.782 121.755 154.958 120.085 154.842L53.9157 150.221C53.2139 149.7 52.7715 148.845 52.7525 147.972C52.7499 147.882 52.7494 147.777 52.7507 147.67Z" fill="#BAECFE"/>
<path d="M120.37 150.398C97.8303 149.488 75.2909 148.579 52.751 147.67C52.7575 146.747 52.895 145.329 53.666 145.193C69.3536 142.44 85.0772 139.893 100.832 137.553C105.453 136.867 110.19 136.2 114.764 137.149C118.321 137.887 121.806 139.804 123.884 142.702C124.807 143.99 125.905 145.152 127.27 145.957C127.58 146.14 127.869 146.362 128.124 146.613C127.96 147.721 127.272 148.831 126.307 149.439C124.584 150.526 122.406 150.48 120.37 150.398Z" fill="white"/>
<path d="M57.3573 132.551L69.2063 144.133L61.1955 145.358L54.0773 133.177L57.3573 132.551Z" fill="white"/>
<path d="M51.4619 133.677L54.0773 133.178L61.1955 145.359L57.2573 145.962L51.4619 133.677Z" fill="#BAECFE"/>
<path d="M64.8798 173.25C68.3037 173.673 71.758 172.754 74.5203 170.687L102.586 149.68L107.131 149.863L75.4635 173.567C72.7015 175.634 69.2469 176.553 65.8229 176.13L60.1797 175.433L62.6281 172.972L64.8798 173.25Z" fill="#BAECFE"/>
<path d="M64.8797 173.251L62.6285 172.973L86.4566 149.029L102.586 149.68L74.5207 170.687C71.7583 172.755 68.3037 173.673 64.8797 173.251Z" fill="white"/>
<path d="M112.687 145.335C113.962 146.075 115.684 146.249 116.539 145.712C117.406 145.167 117.045 144.105 115.726 143.351C114.414 142.601 112.68 142.456 111.858 143.016C111.047 143.567 111.421 144.601 112.687 145.335Z" fill="#47436C"/>
<path d="M104.198 145.571C105.386 146.275 106.954 146.442 107.702 145.933C108.462 145.418 108.086 144.409 106.857 143.691C105.636 142.978 104.06 142.838 103.34 143.367C102.63 143.889 103.016 144.871 104.198 145.571Z" fill="#47436C"/>
<path d="M96.4952 145.787C97.6083 146.459 99.0418 146.619 99.7 146.136C100.367 145.646 99.9802 144.686 98.8321 144.002C97.6905 143.321 96.2505 143.185 95.6178 143.687C94.9943 144.183 95.3882 145.119 96.4952 145.787Z" fill="#47436C"/>
<path d="M89.4751 145.982C90.5207 146.625 91.8378 146.779 92.4182 146.318C93.0063 145.852 92.6119 144.937 91.5356 144.283C90.464 143.633 89.1425 143.5 88.5855 143.978C88.0355 144.449 88.4346 145.343 89.4751 145.982Z" fill="#47436C"/>
<path d="M83.0507 146.16C84.0367 146.776 85.2509 146.925 85.7642 146.485C86.2844 146.04 85.8853 145.165 84.8721 144.539C83.8637 143.916 82.646 143.787 82.1539 144.242C81.6674 144.693 82.0696 145.548 83.0507 146.16Z" fill="#47436C"/>
<path d="M77.1492 146.323C78.0811 146.914 79.2049 147.058 79.6599 146.637C80.1208 146.211 79.7195 145.374 78.763 144.773C77.8108 144.176 76.6848 144.05 76.2484 144.485C75.8177 144.915 76.2212 145.735 77.1492 146.323Z" fill="#47436C"/>
<path d="M71.7082 146.476C72.5917 147.044 73.6351 147.183 74.0394 146.78C74.4485 146.372 74.0468 145.568 73.1413 144.991C72.2397 144.417 71.1949 144.295 70.8079 144.712C70.4256 145.124 70.8291 145.911 71.7082 146.476Z" fill="#47436C"/>
</g>
<defs>
<clipPath id="clip0_2039_81796">
<rect width="390" height="218" fill="white"/>
</clipPath>
</defs>
</svg>
