<svg width="23" height="23" viewBox="0 0 23 23" fill="none" xmlns="http://www.w3.org/2000/svg">
<path d="M7.90625 3.39062V5.1875V3.39062V5.1875H15.0938V3.39062C15.0638 3.18099 14.944 3.0612 14.7344 3.03125H8.26562C8.05599 3.0612 7.9362 3.18099 7.90625 3.39062ZM5.75 5.1875V3.39062V5.1875V3.39062C5.77995 2.67188 6.01953 2.07292 6.46875 1.59375C6.94792 1.14453 7.54688 0.904948 8.26562 0.875H14.7344C15.4531 0.904948 16.0521 1.14453 16.5312 1.59375C16.9805 2.07292 17.2201 2.67188 17.25 3.39062V5.1875H20.125C20.9336 5.21745 21.6074 5.50195 22.1465 6.04102C22.6855 6.58008 22.9701 7.25391 23 8.0625V13.4531V19.5625C22.9701 20.3711 22.6855 21.0449 22.1465 21.584C21.6074 22.123 20.9336 22.4076 20.125 22.4375H2.875C2.06641 22.4076 1.39258 22.123 0.853516 21.584C0.314453 21.0449 0.0299479 20.3711 0 19.5625V13.4531V8.0625C0.0299479 7.25391 0.314453 6.58008 0.853516 6.04102C1.39258 5.50195 2.06641 5.21745 2.875 5.1875H5.75ZM2.15625 14.5312V19.5625V14.5312V19.5625C2.1862 20.0117 2.42578 20.2513 2.875 20.2812H20.125C20.5742 20.2513 20.8138 20.0117 20.8438 19.5625V14.5312H14.375V15.25C14.375 15.6693 14.2402 16.0137 13.9707 16.2832C13.7012 16.5527 13.3568 16.6875 12.9375 16.6875H10.0625C9.64323 16.6875 9.29883 16.5527 9.0293 16.2832C8.75977 16.0137 8.625 15.6693 8.625 15.25V14.5312H2.15625ZM8.625 12.375H14.375H8.625H20.8438V8.0625C20.8138 7.61328 20.5742 7.3737 20.125 7.34375H16.1719H2.875C2.42578 7.3737 2.1862 7.61328 2.15625 8.0625V12.375H8.625Z" fill="#1C1C1C"/>
</svg>
