<svg width="1920" height="816" viewBox="0 0 1920 816" fill="none" xmlns="http://www.w3.org/2000/svg">
<path d="M1784.48 175.766C1782.17 157.032 1768.07 140.277 1750.01 134.805C1731.94 129.333 1710.91 135.445 1698.6 149.751C1699.74 119.539 1679.6 89.714 1651.14 79.4899C1622.69 69.2657 1588.17 79.4464 1569.82 103.474C1531.16 71.1845 1457.93 87.5669 1436.04 132.933C1417.86 123.11 1394.07 124.797 1377.47 137.084C1371.36 122.262 1357.94 110.662 1342.39 106.759C1326.84 102.855 1309.54 106.743 1297.15 116.921C1298.54 93.7448 1283.05 70.5739 1261.1 62.9982C1239.15 55.4226 1200.1 61.5262 1186.89 80.6243C1186.12 67.9268 1176.73 56.2027 1164.51 52.6789C1152.29 49.155 1138.1 54.0808 1130.69 64.4198C1118.64 26.8455 1080.36 -0.620978 1040.91 0.0106755C1001.45 0.64233 964.065 29.3203 953.232 67.2615C913.718 50.6116 849.142 67.5472 831.576 106.662C823.664 94.1397 809.045 86.1509 794.233 86.2546C779.42 86.3582 764.915 94.5515 757.178 107.183C718.92 74.7461 646.812 71.6173 610.857 106.589C600.035 84.3736 577.515 68.2825 552.99 65.2447C528.465 62.2069 502.699 72.3162 486.784 91.221C471.55 58.8763 433.324 39.1368 398.133 45.4421C362.941 51.7475 333.946 83.5319 330.89 119.154C310.417 97.0641 273.751 92.2994 248.311 108.423C222.872 124.546 211.53 159.737 222.765 187.681C202.398 180.679 177.486 193.318 171.108 213.888C153.806 192.549 114.528 196.567 101.905 220.968C77.3181 189.634 39.3026 174.969 0 179.47V893.343H1920V167.043C1877.66 145.828 1823.44 148.357 1784.48 175.766Z" fill="white"/>
</svg>
