<svg width="19" height="24" viewBox="0 0 19 24" fill="currentColor" xmlns="http://www.w3.org/2000/svg">
<path d="M8.73633 1.18945C9.24544 0.770182 9.75456 0.770182 10.2637 1.18945L13.8574 4.7832C14.0371 4.96289 14.1419 5.17253 14.1719 5.41211L16.0137 20.2812H13.8574L12.0605 6.04102L9.5 3.48047L6.93945 6.04102L5.14258 20.2812H2.98633L4.82812 5.41211C4.85807 5.17253 4.96289 4.96289 5.14258 4.7832L8.73633 1.18945ZM2.80664 21.7188H4.96289H2.80664H17.0469C17.7057 21.7786 18.0651 22.138 18.125 22.7969C18.0651 23.4557 17.7057 23.8151 17.0469 23.875H15.25H1.95312C1.29427 23.8151 0.934896 23.4557 0.875 22.7969C0.934896 22.138 1.29427 21.7786 1.95312 21.7188H2.80664ZM7.34375 14.8906C7.40365 14.2318 7.76302 13.8724 8.42188 13.8125H10.5781C11.237 13.8724 11.5964 14.2318 11.6562 14.8906C11.5964 15.5495 11.237 15.9089 10.5781 15.9688H8.42188C7.76302 15.9089 7.40365 15.5495 7.34375 14.8906Z"/>
</svg>
