<svg width="29" height="24" viewBox="0 0 29 24" fill="none" xmlns="http://www.w3.org/2000/svg">
<path d="M5.15625 1.95312C5.15625 2.52214 5.26107 2.98633 5.4707 3.3457C5.68034 3.73503 5.96484 4.10938 6.32422 4.46875V4.51367C6.71354 4.90299 7.08789 5.39714 7.44727 5.99609C7.80664 6.625 8.0013 7.43359 8.03125 8.42188C7.97135 9.08073 7.61198 9.4401 6.95312 9.5C6.29427 9.4401 5.9349 9.08073 5.875 8.42188C5.875 7.85286 5.77018 7.38867 5.56055 7.0293C5.35091 6.63997 5.06641 6.26562 4.70703 5.90625C4.31771 5.48698 3.94336 4.97786 3.58398 4.37891C3.22461 3.75 3.02995 2.94141 3 1.95312C3.0599 1.29427 3.41927 0.934896 4.07812 0.875C4.73698 0.934896 5.09635 1.29427 5.15625 1.95312ZM10.1875 1.95312C10.1875 2.52214 10.2923 2.98633 10.502 3.3457C10.7116 3.73503 10.9961 4.10938 11.3555 4.46875V4.51367C11.7448 4.90299 12.1191 5.39714 12.4785 5.99609C12.8379 6.625 13.0326 7.43359 13.0625 8.42188C13.0026 9.08073 12.6432 9.4401 11.9844 9.5C11.3255 9.4401 10.9661 9.08073 10.9062 8.42188C10.9062 7.85286 10.8014 7.38867 10.5918 7.0293C10.3822 6.63997 10.0977 6.26562 9.73828 5.90625C9.34896 5.48698 8.97461 4.97786 8.61523 4.37891C8.25586 3.75 8.0612 2.94141 8.03125 1.95312C8.09115 1.29427 8.45052 0.934896 9.10938 0.875C9.76823 0.934896 10.1276 1.29427 10.1875 1.95312ZM19.5312 5.90625C20.6992 5.9362 21.7174 6.2806 22.5859 6.93945C23.4245 7.59831 24.0085 8.45182 24.3379 9.5H14.7246C15.054 8.45182 15.638 7.59831 16.4766 6.93945C17.3451 6.2806 18.3633 5.9362 19.5312 5.90625ZM0.84375 13.4531C0.903646 12.7943 1.26302 12.4349 1.92188 12.375H3.13477C3.49414 11.4766 4.16797 10.9974 5.15625 10.9375H23.8438C24.832 10.9974 25.5059 11.4766 25.8652 12.375H27.0781C27.737 12.4349 28.0964 12.7943 28.1562 13.4531C28.0964 14.112 27.737 14.4714 27.0781 14.5312H25.9102C25.6406 16.2682 24.9818 17.8105 23.9336 19.1582C22.9154 20.5059 21.6276 21.5391 20.0703 22.2578C19.651 23.276 18.8724 23.8151 17.7344 23.875H11.2656C10.1276 23.8151 9.34896 23.276 8.92969 22.2578C7.3724 21.5391 6.06966 20.5059 5.02148 19.1582C4.00326 17.8105 3.35938 16.2682 3.08984 14.5312H1.92188C1.26302 14.4714 0.903646 14.112 0.84375 13.4531ZM10.9512 21.4941C11.0111 21.6439 11.1159 21.7188 11.2656 21.7188H17.7344C17.8841 21.7188 18.0039 21.6439 18.0938 21.4941C18.3034 20.9551 18.6777 20.5658 19.2168 20.3262C20.5944 19.6673 21.7025 18.709 22.541 17.4512C23.3796 16.1634 23.8138 14.7109 23.8438 13.0938H5.15625C5.1862 14.7109 5.62044 16.1634 6.45898 17.4512C7.29753 18.709 8.42057 19.6673 9.82812 20.3262C10.3372 20.5658 10.7116 20.9551 10.9512 21.4941Z" fill="#FF6690"/>
</svg>
