<svg width="23" height="21" viewBox="0 0 23 21" fill="none" xmlns="http://www.w3.org/2000/svg">
<path d="M10.1523 19.8984L10.0176 19.8086L10.1523 19.8984L10.0176 19.8086L2.15625 12.4863C0.748698 11.1387 0.0299479 9.49154 0 7.54492V7.41016C0.0299479 5.79297 0.539062 4.38542 1.52734 3.1875C2.48568 2.01953 3.75846 1.27083 5.3457 0.941406C7.20247 0.611979 8.87956 0.971354 10.377 2.01953C10.7962 2.28906 11.1706 2.61849 11.5 3.00781C11.6797 2.79818 11.8893 2.60352 12.1289 2.42383C12.2786 2.27409 12.4434 2.13932 12.623 2.01953C14.1204 0.971354 15.7975 0.597005 17.6543 0.896484C19.2415 1.22591 20.5143 1.98958 21.4727 3.1875C22.4609 4.38542 22.9701 5.79297 23 7.41016V7.54492C22.9701 9.49154 22.2513 11.1387 20.8438 12.4863L12.9824 19.8086L12.8477 19.8984C12.4583 20.2578 12.0091 20.4375 11.5 20.4375C10.9909 20.4375 10.5417 20.2578 10.1523 19.8984ZM10.7363 5.38867C10.7363 5.38867 10.7214 5.3737 10.6914 5.34375L9.88281 4.44531C9.34375 3.84635 8.71484 3.42708 7.99609 3.1875C7.27734 2.94792 6.52865 2.90299 5.75 3.05273C4.70182 3.26237 3.84831 3.77148 3.18945 4.58008C2.5306 5.35872 2.1862 6.30208 2.15625 7.41016V7.54492C2.1862 8.86263 2.68034 9.98568 3.63867 10.9141L11.5 18.2363L19.3613 10.9141C20.3197 9.98568 20.8138 8.86263 20.8438 7.54492V7.41016C20.8138 6.30208 20.4694 5.35872 19.8105 4.58008C19.1517 3.77148 18.2982 3.26237 17.25 3.05273C16.4714 2.90299 15.7227 2.94792 15.0039 3.1875C14.2852 3.42708 13.6562 3.84635 13.1172 4.44531L12.3086 5.34375C12.3086 5.34375 12.2936 5.35872 12.2637 5.38867C12.054 5.59831 11.7995 5.70312 11.5 5.70312C11.2005 5.70312 10.946 5.59831 10.7363 5.38867Z" fill="#FF6690"/>
</svg>
