<svg width="161" height="48" viewBox="0 0 161 48" fill="none" xmlns="http://www.w3.org/2000/svg">
<path d="M43.9458 20.4823C43.9458 20.4823 30.4439 18.9641 19.6582 0H4.39868L13.6658 24.0011L43.9458 20.4823Z" fill="#FFA3BC"/>
<path d="M12.3181 20.509L13.6662 24.0008L43.9463 20.482C43.9463 20.482 41.7497 20.2343 38.421 18.6953H23.0403C19.4604 18.6953 15.2503 19.1409 12.3181 20.509Z" fill="#FFB3C7"/>
<path d="M152.31 28.9685C147.622 23.2578 142.414 20.4844 137.153 20.4844H25.4872C19.2659 20.4844 11.1313 21.825 11.1313 27.0278C11.1313 33.2487 34.806 41.9021 46.4778 41.9021L140.348 42.2333C140.507 42.2333 140.665 42.2278 140.823 42.2211C141.19 42.2286 141.56 42.2333 141.936 42.2333C154.979 42.2333 160.25 40.0708 160.25 35.9579C160.25 32.9924 158.162 31.2281 152.31 28.9685Z" fill="#FFD1DD"/>
<path d="M157.975 31.7933C157.984 31.9282 157.991 32.0645 157.991 32.2048C157.991 36.3177 152.72 38.4798 139.677 38.4798C139.301 38.4798 138.93 38.4751 138.564 38.4681C138.406 38.4743 138.248 38.4798 138.089 38.4798L44.2189 38.1491C34.951 38.1491 16.7385 33.1034 11.165 27.4531C12.0323 33.6834 35.0701 41.8999 46.4778 41.8999L140.348 42.231C140.507 42.231 140.665 42.2255 140.823 42.2189C141.19 42.2263 141.56 42.231 141.936 42.231C154.979 42.231 160.25 40.0686 160.25 35.9556C160.25 34.2893 159.59 33.0023 157.975 31.7933Z" fill="#FFA3BC"/>
<path d="M29.0053 27.9961H11.3152C11.651 28.9268 12.4435 29.8968 13.5846 30.8722H29.0053C29.8 30.8722 30.4439 30.2283 30.4439 29.434C30.4439 28.64 29.8 27.9961 29.0053 27.9961Z" fill="#FF85A5"/>
<path d="M141.937 40.6039C141.561 40.6039 141.191 40.5988 140.823 40.5917C140.666 40.5984 140.507 40.6039 140.348 40.6039L46.4782 40.2727C37.3071 40.2727 20.6222 34.9626 13.9804 29.643C12.8576 28.9302 11.8991 28.1969 11.165 27.4531C12.0323 33.6834 35.0701 41.8999 46.4778 41.8999L140.348 42.231C140.507 42.231 140.665 42.2255 140.823 42.2189C141.19 42.2263 141.56 42.231 141.936 42.231C154.979 42.231 160.25 40.0686 160.25 35.9556C160.25 35.657 160.228 35.3709 160.184 35.0946C159.542 38.7095 154.145 40.6039 141.937 40.6039Z" fill="#FF85A5"/>
<path d="M97.2167 39.0204C97.2167 42.2264 94.069 44.8259 90.1861 44.8259H80.0953C76.212 44.8259 73.0647 42.2264 73.0647 39.0204C73.0647 35.8139 76.212 33.2148 80.0953 33.2148H90.1861C94.069 33.2148 97.2167 35.8139 97.2167 39.0204Z" fill="#FFB3C7"/>
<path d="M89.6746 32.5117H80.0959V45.5347H89.6746V32.5117Z" fill="#FF1F5A"/>
<path d="M79.7655 30.875C79.0233 30.875 78.4221 31.4762 78.4221 32.218V45.83C78.4221 46.5719 79.0233 47.1727 79.7655 47.1727C80.507 47.1727 81.1082 46.5715 81.1082 45.83V32.218C81.1082 31.4762 80.507 30.875 79.7655 30.875Z" fill="#FF6690"/>
<path d="M90.5163 30.875C89.7744 30.875 89.1729 31.4762 89.1729 32.218V45.83C89.1729 46.5719 89.7744 47.1727 90.5163 47.1727C91.2577 47.1727 91.8593 46.5715 91.8593 45.83V32.218C91.8589 31.4762 91.2573 30.875 90.5163 30.875Z" fill="#FF6690"/>
<path d="M141.321 27.9758H149.324C145.622 23.8397 141.566 21.8242 137.471 21.8242H137.019L141.321 27.9758Z" fill="#212121" fill-opacity="0.6"/>
<path d="M131.122 22.3242L134.833 27.7351L139.194 27.9749L135.242 22.3242H131.122Z" fill="#212121" fill-opacity="0.6"/>
<path d="M124.644 26.0794C124.763 26.8005 124.274 27.482 123.553 27.6003C122.832 27.7187 122.151 27.2296 122.032 26.5085L121.657 24.2222C121.538 23.5007 122.027 22.8196 122.748 22.7013C123.47 22.5829 124.15 23.0716 124.269 23.7935L124.644 26.0794Z" fill="#212121" fill-opacity="0.6"/>
<path d="M120.753 26.1789C120.822 26.9067 120.286 27.5521 119.559 27.6207C118.831 27.6885 118.185 27.1539 118.117 26.4262L117.901 24.1191C117.833 23.3914 118.367 22.7459 119.095 22.6777C119.823 22.6095 120.469 23.1441 120.538 23.8722L120.753 26.1789Z" fill="#212121" fill-opacity="0.6"/>
<path d="M116.821 26.2861C116.834 27.0174 116.251 27.6197 115.52 27.6323C114.789 27.6444 114.187 27.0617 114.175 26.3304L114.135 24.0139C114.124 23.283 114.706 22.6807 115.437 22.6682C116.168 22.656 116.771 23.2388 116.783 23.9696L116.821 26.2861Z" fill="#212121" fill-opacity="0.6"/>
<path d="M113.024 26.2861C113.035 27.0174 112.454 27.6197 111.723 27.6323C110.991 27.6444 110.389 27.0617 110.376 26.3304L110.338 24.0139C110.326 23.283 110.909 22.6807 111.639 22.6682C112.37 22.656 112.973 23.2388 112.985 23.9696L113.024 26.2861Z" fill="#212121" fill-opacity="0.6"/>
<path d="M109.045 26.2861C109.058 27.0174 108.475 27.6197 107.744 27.6323C107.013 27.6444 106.411 27.0617 106.398 26.3304L106.36 24.0139C106.347 23.283 106.93 22.6807 107.661 22.6682C108.392 22.656 108.994 23.2388 109.007 23.9696L109.045 26.2861Z" fill="#212121" fill-opacity="0.6"/>
<path d="M105.247 26.2861C105.259 27.0174 104.677 27.6197 103.946 27.6323C103.215 27.6444 102.613 27.0617 102.6 26.3304L102.562 24.0139C102.55 23.283 103.132 22.6807 103.864 22.6682C104.594 22.656 105.196 23.2388 105.209 23.9696L105.247 26.2861Z" fill="#212121" fill-opacity="0.6"/>
<path d="M42.343 26.0794C42.2242 26.8005 42.7133 27.482 43.4344 27.6003C44.1559 27.7187 44.8366 27.2296 44.9553 26.5085L45.3308 24.2222C45.4491 23.5007 44.9608 22.8196 44.2397 22.7013C43.5179 22.5829 42.8371 23.0716 42.7188 23.7935L42.343 26.0794Z" fill="#212121" fill-opacity="0.6"/>
<path d="M46.235 26.1789C46.166 26.9067 46.7013 27.5521 47.4291 27.6207C48.1568 27.6885 48.8023 27.1539 48.8705 26.4262L49.0864 24.1191C49.155 23.3914 48.6201 22.7459 47.8923 22.6777C47.1642 22.6095 46.5187 23.1441 46.4505 23.8722L46.235 26.1789Z" fill="#212121" fill-opacity="0.6"/>
<path d="M50.1667 26.2861C50.1542 27.0174 50.7365 27.6197 51.4678 27.6323C52.1983 27.6444 52.801 27.0617 52.8132 26.3304L52.852 24.0139C52.8641 23.283 52.2814 22.6807 51.5505 22.6682C50.8196 22.656 50.2169 23.2388 50.2047 23.9696L50.1667 26.2861Z" fill="#212121" fill-opacity="0.6"/>
<path d="M53.9638 26.2861C53.9517 27.0174 54.534 27.6197 55.2653 27.6323C55.9962 27.6444 56.5981 27.0617 56.6106 26.3304L56.6494 24.0139C56.6616 23.283 56.0789 22.6807 55.348 22.6682C54.6171 22.656 54.0147 23.2388 54.0018 23.9696L53.9638 26.2861Z" fill="#212121" fill-opacity="0.6"/>
<path d="M57.9423 26.2861C57.9302 27.0174 58.5129 27.6197 59.2438 27.6323C59.9747 27.6444 60.577 27.0617 60.5892 26.3304L60.6276 24.0139C60.6401 23.283 60.0574 22.6807 59.3265 22.6682C58.5952 22.656 57.9933 23.2388 57.9803 23.9696L57.9423 26.2861Z" fill="#212121" fill-opacity="0.6"/>
<path d="M61.7397 26.2861C61.7275 27.0174 62.3103 27.6197 63.0412 27.6323C63.7716 27.6444 64.374 27.0617 64.3869 26.3304L64.4253 24.0139C64.4375 23.283 63.8551 22.6807 63.1235 22.6682C62.3934 22.656 61.791 23.2388 61.7781 23.9696L61.7397 26.2861Z" fill="#212121" fill-opacity="0.6"/>
<path d="M95.3411 26.2861C95.3529 27.0174 94.7709 27.6197 94.0396 27.6323C93.3087 27.6444 92.7068 27.0617 92.6939 26.3304L92.6555 24.0139C92.6433 23.283 93.2261 22.6807 93.9569 22.6682C94.6874 22.656 95.2902 23.2388 95.3027 23.9696L95.3411 26.2861Z" fill="#212121" fill-opacity="0.6"/>
<path d="M91.3089 26.2861C91.3207 27.0174 90.7379 27.6197 90.0066 27.6323C89.2762 27.6444 88.6738 27.0617 88.6617 26.3304L88.6232 24.0139C88.6107 23.283 89.1935 22.6807 89.9243 22.6682C90.6552 22.656 91.2576 23.2388 91.2701 23.9696L91.3089 26.2861Z" fill="#212121" fill-opacity="0.6"/>
<path d="M87.2758 26.2861C87.2879 27.0174 86.7052 27.6197 85.9747 27.6323C85.2442 27.6444 84.6414 27.0617 84.6289 26.3304L84.5905 24.0139C84.5784 23.283 85.1611 22.6807 85.892 22.6682C86.6229 22.656 87.2252 23.2388 87.2374 23.9696L87.2758 26.2861Z" fill="#212121" fill-opacity="0.6"/>
<path d="M83.2433 26.2861C83.2559 27.0174 82.6735 27.6197 81.9422 27.6323C81.2114 27.6444 80.609 27.0617 80.5968 26.3304L80.558 24.0139C80.5459 23.283 81.1287 22.6807 81.8595 22.6682C82.59 22.656 83.1931 23.2388 83.2049 23.9696L83.2433 26.2861Z" fill="#212121" fill-opacity="0.6"/>
<path d="M79.2116 26.2861C79.2237 27.0174 78.641 27.6197 77.9101 27.6323C77.1796 27.6444 76.5773 27.0617 76.5647 26.3304L76.5263 24.0139C76.5138 23.283 77.0961 22.6807 77.8274 22.6682C78.5583 22.656 79.1606 23.2388 79.1728 23.9696L79.2116 26.2861Z" fill="#212121" fill-opacity="0.6"/>
<path d="M75.179 26.2861C75.1911 27.0174 74.6084 27.6197 73.8775 27.6323C73.1466 27.6444 72.5443 27.0617 72.5318 26.3304L72.4933 24.0139C72.4816 23.283 73.0639 22.6807 73.7948 22.6682C74.5253 22.656 75.128 23.2388 75.1406 23.9696L75.179 26.2861Z" fill="#212121" fill-opacity="0.6"/>
<path d="M30.4439 27.9968C30.4439 28.7908 29.8 29.4347 29.0053 29.4347H10.3108C9.51643 29.4347 8.87256 28.7908 8.87256 27.9968C8.87256 27.2025 9.51643 26.5586 10.3108 26.5586H29.0053C29.8 26.5586 30.4439 27.2025 30.4439 27.9968Z" fill="#FFA3BC"/>
<path d="M107.62 31.9899C107.62 33.4019 106.476 34.5466 105.064 34.5466H64.6382C63.2266 34.5466 62.0815 33.4019 62.0815 31.9899C62.0815 30.5779 63.2266 29.4336 64.6382 29.4336H105.064C106.476 29.4336 107.62 30.5779 107.62 31.9899Z" fill="#FF85A5"/>
<path d="M101.583 31.9738C101.583 33.3011 100.68 34.3773 99.5664 34.3773H64.0969C62.9832 34.3773 62.0811 33.3011 62.0811 31.9738C62.0811 30.6465 62.9836 29.5703 64.0969 29.5703H99.5664C100.68 29.5703 101.583 30.6465 101.583 31.9738Z" fill="#FFB3C7"/>
<path d="M96.2521 31.9924C96.2521 32.9655 95.4632 33.7548 94.4897 33.7548H66.6257C65.6531 33.7548 64.8638 32.9659 64.8638 31.9924C64.8638 31.019 65.6531 30.2305 66.6257 30.2305H94.4901C95.4636 30.2305 96.2521 31.019 96.2521 31.9924Z" fill="#FFD1DD"/>
<path d="M22.3389 11.9997C22.3389 14.7524 20.1074 16.9838 17.3548 16.9838C14.6021 16.9838 12.3699 14.7524 12.3699 11.9997C12.3699 9.24707 14.6017 7.01562 17.3548 7.01562C20.1074 7.01562 22.3389 9.24667 22.3389 11.9997Z" fill="#FF6690"/>
<path opacity="0.3" d="M79.7656 33.7539L0 42.2321L79.7656 47.1712V33.7539Z" fill="#212121" fill-opacity="0.2"/>
<path opacity="0.3" d="M79.7655 33.7539L39.3853 41.5357L79.7655 47.1712V33.7539Z" fill="#212121" fill-opacity="0.28"/>
</svg>
