<svg width="27" height="21" viewBox="0 0 27 21" fill="none" xmlns="http://www.w3.org/2000/svg">
<path d="M15.6562 9.65625V8.21875V9.65625V8.21875C15.6263 6.60156 15.0723 5.23893 13.9941 4.13086C12.8861 3.05273 11.5234 2.4987 9.90625 2.46875C8.28906 2.4987 6.92643 3.05273 5.81836 4.13086C4.74023 5.23893 4.1862 6.60156 4.15625 8.21875V9.65625H15.6562ZM17.8125 8.21875V10.0605V8.21875V10.0605C17.8125 10.5697 17.6478 10.9889 17.3184 11.3184C16.9889 11.6478 16.5697 11.8125 16.0605 11.8125H3.75195C3.24284 11.8125 2.82357 11.6478 2.49414 11.3184C2.16471 10.9889 2 10.5697 2 10.0605V8.21875C2.0599 5.97266 2.83854 4.11589 4.33594 2.64844C5.80339 1.15104 7.66016 0.372396 9.90625 0.3125C12.1523 0.372396 14.0091 1.15104 15.4766 2.64844C16.974 4.11589 17.7526 5.97266 17.8125 8.21875ZM22.125 11.8125C21.7357 11.8125 21.3763 11.7526 21.0469 11.6328C20.6875 12.6211 20.0885 13.4596 19.25 14.1484C18.4414 14.8073 17.4831 15.2116 16.375 15.3613V15.4062V18.6406C16.375 19.1497 16.1953 19.569 15.8359 19.8984C15.5065 20.2578 15.0872 20.4375 14.5781 20.4375H12.4219C11.9128 20.4375 11.4935 20.2578 11.1641 19.8984C10.8047 19.569 10.625 19.1497 10.625 18.6406V15.4062H9.1875V18.6406C9.1875 19.1497 9.00781 19.569 8.64844 19.8984C8.31901 20.2578 7.89974 20.4375 7.39062 20.4375H5.23438C4.72526 20.4375 4.30599 20.2578 3.97656 19.8984C3.61719 19.569 3.4375 19.1497 3.4375 18.6406V15.4062H1.64062C0.981771 15.3464 0.622396 14.987 0.5625 14.3281C0.622396 13.6693 0.981771 13.3099 1.64062 13.25H3.4375H15.6562C16.6745 13.2201 17.528 12.8757 18.2168 12.2168C18.8757 11.528 19.2201 10.6745 19.25 9.65625V8.9375V7.5V6.78125C19.2799 5.97266 19.5645 5.29883 20.1035 4.75977C20.6426 4.2207 21.3164 3.9362 22.125 3.90625C23.3529 3.9362 24.3711 4.35547 25.1797 5.16406C25.9883 5.97266 26.4076 6.99089 26.4375 8.21875V8.9375C26.4076 9.74609 26.123 10.4199 25.584 10.959C25.0449 11.498 24.3711 11.7826 23.5625 11.8125H22.125ZM12.7812 15.4062V18.2812V15.4062V18.2812H14.2188V15.4062H12.7812ZM5.59375 15.4062V18.2812V15.4062V18.2812H7.03125V15.4062H5.59375ZM22.8438 8.9375C23.293 8.90755 23.5326 8.66797 23.5625 8.21875C23.5326 7.76953 23.293 7.52995 22.8438 7.5C22.3945 7.52995 22.1549 7.76953 22.125 8.21875C22.1549 8.66797 22.3945 8.90755 22.8438 8.9375Z" fill="#1C1C1C"/>
</svg>
