<svg width="23" height="24" viewBox="0 0 23 24" fill="none" xmlns="http://www.w3.org/2000/svg">
<path d="M11.0957 3.03125L9.16406 7.0293L11.0957 3.03125L9.16406 7.0293L12.5781 5.23242V3.03125H11.0957ZM7.5918 10.3086L5.83984 13.9023L7.5918 10.3086L5.83984 13.9023L7.14258 15.2051L10.5566 11.791L11.7246 8.15234L7.5918 10.3086ZM14.7344 2.67188V4.46875V2.67188V4.46875H17.9688C18.388 4.46875 18.7324 4.60352 19.002 4.87305C19.2715 5.14258 19.4062 5.48698 19.4062 5.90625V9.14062H21.2031C21.7122 9.14062 22.1315 9.32031 22.4609 9.67969C22.8203 10.0091 23 10.4284 23 10.9375V13.0039C22.9701 13.7227 22.6406 14.2617 22.0117 14.6211L11.1406 19.9219C11.0807 19.9818 11.0358 20.0267 11.0059 20.0566L8.66992 22.3926C7.68164 23.3509 6.48372 23.8451 5.07617 23.875C3.63867 23.8451 2.44076 23.3509 1.48242 22.3926C0.524089 21.4342 0.0299479 20.2363 0 18.7988C0.0299479 17.3913 0.524089 16.1934 1.48242 15.2051L3.81836 12.8691C3.84831 12.8392 3.89323 12.8092 3.95312 12.7793L9.25391 1.9082C9.61328 1.24935 10.1523 0.904948 10.8711 0.875H12.9375C13.4466 0.875 13.8659 1.05469 14.1953 1.41406C14.5547 1.74349 14.7344 2.16276 14.7344 2.67188ZM9.97266 18.0352L13.5664 16.2832L9.97266 18.0352L13.5664 16.2832L15.7227 12.1504L12.084 13.3184L8.66992 16.7324L9.97266 18.0352ZM13.1621 10.7129L17.25 9.41016L13.1621 10.7129L17.25 9.41016V6.625H14.4648L13.1621 10.7129ZM8.44531 19.5625L4.3125 15.4297L8.44531 19.5625L4.3125 15.4297L3.2793 16.4629L7.41211 20.5957L8.44531 19.5625ZM6.28906 21.4492L2.42578 17.5859L6.28906 21.4492L2.42578 17.5859C2.24609 17.9753 2.15625 18.3796 2.15625 18.7988C2.1862 19.6374 2.4707 20.3262 3.00977 20.8652C3.54883 21.4043 4.23763 21.6888 5.07617 21.7188C5.49544 21.7188 5.89974 21.6289 6.28906 21.4492ZM16.8457 14.7109L20.8438 12.7793L16.8457 14.7109L20.8438 12.7793V11.2969H18.6426L16.8457 14.7109Z" fill="#1C1C1C"/>
</svg>
