<svg width="478" height="192" viewBox="0 0 478 192" fill="none" xmlns="http://www.w3.org/2000/svg">
<path d="M0 16C0 7.16344 7.16344 0 16 0H462C470.837 0 478 7.16344 478 16V164C478 172.837 470.837 180 462 180H16C7.16343 180 0 172.837 0 164V16Z" fill="#FFF0F4"/>
<path d="M140.362 140.185C133.617 129.696 129.688 116.938 131.796 104.648C133.903 92.3572 142.868 80.9166 154.995 78.0118C163.383 76.0026 172.183 78.0707 180.791 77.5247C189.399 76.9786 199.102 72.1791 200.101 63.6121C200.9 56.7583 195.767 50.4264 195.814 43.5261C195.855 37.4306 200.09 31.9403 205.386 28.9228C210.683 25.9053 216.903 24.9779 222.986 24.5836C263.609 21.9483 304.954 42.3308 327.6 76.1581C336.548 89.523 342.776 105.223 342.312 121.3C341.847 137.376 333.848 153.713 319.824 161.587C309.601 167.328 297.443 168.173 285.74 168.89C263.909 170.227 242.078 171.563 220.247 172.9C204.41 173.87 185.921 175.169 170.776 169.182C158.516 164.336 147.233 150.872 140.362 140.185Z" fill="#FFC2D2"/>
<path d="M163.247 33.4086C158.351 33.9202 152.636 35.4078 149.431 38.9104C145.959 42.7065 143.744 47.8352 145.105 53.0236C146.608 58.7526 152.115 62.7258 157.87 64.1263C165.584 66.0033 174.469 63.6989 179.801 57.6796C184.876 51.9506 184.912 43.0075 179.038 37.6044C175.356 34.2187 170.09 32.9587 165.098 33.2572C164.5 33.2925 163.881 33.3422 163.247 33.4086Z" fill="#FFC2D2"/>
<path d="M368.765 24.2856C368.716 24.2856 368.667 24.2753 368.62 24.2541C368.441 24.1733 368.263 24.0912 368.085 24.0087C367.909 23.927 367.833 23.7185 367.915 23.5427C367.997 23.3669 368.205 23.291 368.381 23.3727C368.557 23.4544 368.733 23.5352 368.909 23.6152C369.086 23.6952 369.164 23.903 369.084 24.0796C369.026 24.2089 368.898 24.2856 368.765 24.2856Z" fill="white"/>
<path d="M293.827 98.9268C293.783 98.9268 293.738 98.9185 293.694 98.9007C293.515 98.8273 293.429 98.6225 293.503 98.4429C293.652 98.0798 293.81 97.7137 293.975 97.355C294.055 97.1784 294.264 97.1017 294.44 97.1817C294.616 97.2626 294.693 97.4707 294.613 97.6469C294.452 97.9972 294.298 98.3542 294.152 98.7087C294.096 98.8451 293.965 98.9268 293.827 98.9268ZM295.945 94.7513C295.883 94.7513 295.82 94.7347 295.762 94.6999C295.597 94.5991 295.545 94.3831 295.646 94.2177C295.851 93.8823 296.065 93.546 296.283 93.2181C296.391 93.0568 296.609 93.0128 296.77 93.1202C296.931 93.2276 296.975 93.4453 296.868 93.6066C296.654 93.9271 296.445 94.2558 296.245 94.583C296.179 94.6916 296.063 94.7513 295.945 94.7513ZM298.686 90.9535C298.606 90.9535 298.526 90.9266 298.46 90.871C298.312 90.7462 298.294 90.5248 298.418 90.3764C298.671 90.077 298.934 89.7773 299.2 89.4854C299.33 89.3423 299.553 89.3316 299.695 89.4622C299.839 89.5928 299.849 89.8146 299.719 89.9576C299.459 90.2433 299.201 90.536 298.955 90.8291C298.885 90.9116 298.786 90.9535 298.686 90.9535ZM301.967 87.6105C301.869 87.6105 301.772 87.5699 301.703 87.4911C301.575 87.3456 301.589 87.1238 301.735 86.9961C302.029 86.7378 302.333 86.4803 302.64 86.2311C302.79 86.1092 303.011 86.1316 303.133 86.2821C303.256 86.4326 303.233 86.6532 303.083 86.7759C302.783 87.0197 302.485 87.271 302.198 87.5239C302.131 87.5819 302.049 87.6105 301.967 87.6105ZM305.707 84.7933C305.591 84.7933 305.479 84.7365 305.411 84.632C305.307 84.4691 305.354 84.2518 305.518 84.1473C305.851 83.9338 306.19 83.7248 306.527 83.5267C306.694 83.428 306.909 83.4844 307.008 83.651C307.106 83.8181 307.05 84.0333 306.883 84.1316C306.554 84.3252 306.222 84.5292 305.897 84.7377C305.838 84.7755 305.772 84.7933 305.707 84.7933ZM309.832 82.576C309.697 82.576 309.568 82.498 309.51 82.3666C309.432 82.1891 309.512 81.9823 309.69 81.9039C310.05 81.7455 310.418 81.5917 310.784 81.4478C310.965 81.3765 311.168 81.4657 311.239 81.646C311.31 81.8264 311.221 82.0299 311.041 82.1008C310.683 82.2418 310.324 82.3915 309.973 82.5465C309.927 82.5664 309.879 82.576 309.832 82.576ZM314.254 81.0407C314.098 81.0407 313.955 80.9354 313.915 80.777C313.867 80.5892 313.98 80.398 314.167 80.3499C314.551 80.2513 314.94 80.1601 315.323 80.0792C315.512 80.0406 315.698 80.1605 315.738 80.3495C315.779 80.539 315.658 80.7256 315.468 80.7658C315.095 80.845 314.716 80.9337 314.342 81.0299C314.313 81.0374 314.283 81.0407 314.254 81.0407ZM318.87 80.2455C318.692 80.2455 318.54 80.1111 318.521 79.9304C318.501 79.7376 318.642 79.5655 318.834 79.5456C319.226 79.5054 319.618 79.471 320.01 79.4403C320.203 79.4262 320.372 79.5697 320.387 79.7629C320.402 79.9561 320.258 80.1248 320.064 80.1402C319.678 80.1704 319.291 80.2044 318.906 80.2438C318.893 80.2446 318.882 80.2455 318.87 80.2455ZM323.547 79.9465C323.36 79.9465 323.205 79.7989 323.197 79.6103C323.189 79.4167 323.339 79.2533 323.533 79.2454L324.704 79.1978C324.901 79.1907 325.061 79.3404 325.069 79.534C325.077 79.7276 324.926 79.891 324.733 79.8989L323.562 79.9465C323.557 79.9465 323.552 79.9465 323.547 79.9465ZM328.228 79.7127C328.046 79.7127 327.893 79.5721 327.879 79.3876C327.865 79.1944 328.01 79.0261 328.203 79.012C328.59 78.9834 328.976 78.9511 329.362 78.9133C329.551 78.8955 329.727 79.0356 329.746 79.2284C329.764 79.4212 329.623 79.5929 329.43 79.6115C329.039 79.6493 328.647 79.6824 328.255 79.7115C328.246 79.7123 328.237 79.7127 328.228 79.7127ZM332.873 79.1065C332.711 79.1065 332.565 78.9929 332.53 78.8275C332.491 78.638 332.612 78.4519 332.802 78.4121C333.178 78.3333 333.556 78.2442 333.926 78.1467C334.114 78.0978 334.305 78.2093 334.355 78.3967C334.404 78.5841 334.292 78.7761 334.105 78.8254C333.723 78.9258 333.334 79.0178 332.946 79.0991C332.921 79.104 332.897 79.1065 332.873 79.1065ZM337.329 77.6695C337.195 77.6695 337.068 77.5928 337.009 77.463C336.929 77.2864 337.007 77.0787 337.184 76.9987C337.536 76.8395 337.883 76.6691 338.216 76.492C338.387 76.4008 338.599 76.4663 338.69 76.6371C338.781 76.8084 338.716 77.0207 338.545 77.1119C338.2 77.2955 337.839 77.4726 337.473 77.638C337.426 77.6596 337.377 77.6695 337.329 77.6695ZM341.276 75.1748C341.178 75.1748 341.081 75.1346 341.012 75.0554C340.884 74.9099 340.898 74.6881 341.044 74.5604C341.333 74.3071 341.608 74.0413 341.864 73.771C341.997 73.6304 342.219 73.6238 342.36 73.7569C342.5 73.89 342.507 74.1122 342.374 74.2527C342.103 74.5388 341.811 74.8195 341.507 75.0873C341.441 75.1462 341.358 75.1748 341.276 75.1748ZM344.094 71.4757C344.045 71.4757 343.995 71.4653 343.947 71.4434C343.771 71.3621 343.695 71.1536 343.776 70.9778C343.868 70.7783 343.955 70.5744 344.032 70.3708C344.089 70.2232 344.142 70.0748 344.191 69.9259C344.252 69.7418 344.451 69.6423 344.634 69.7033C344.819 69.7642 344.918 69.9628 344.857 70.1469C344.804 70.3057 344.748 70.4645 344.688 70.6225C344.604 70.8405 344.511 71.059 344.413 71.2725C344.354 71.4002 344.227 71.4757 344.094 71.4757ZM345.109 66.9329C345.105 66.9329 345.101 66.9329 345.097 66.9324C344.904 66.9262 344.752 66.7641 344.758 66.5705C344.763 66.4055 344.766 66.2401 344.766 66.0742C344.766 65.8578 344.762 65.641 344.753 65.4237C344.746 65.2301 344.897 65.0671 345.091 65.0597C345.288 65.0568 345.447 65.2035 345.455 65.3968C345.463 65.6231 345.468 65.8491 345.467 66.0742C345.467 66.2471 345.465 66.4204 345.459 66.5929C345.453 66.7832 345.297 66.9329 345.109 66.9329ZM344.708 62.2702C344.54 62.2702 344.392 62.1496 344.362 61.9783C344.297 61.5969 344.227 61.2146 344.153 60.8319C344.117 60.6416 344.241 60.4576 344.431 60.4211C344.622 60.385 344.806 60.509 344.842 60.6993C344.917 61.0869 344.988 61.4737 345.054 61.8602C345.087 62.0513 344.958 62.2325 344.767 62.2652C344.747 62.2686 344.727 62.2702 344.708 62.2702ZM343.804 57.6693C343.639 57.6693 343.492 57.5528 343.459 57.3853C343.384 56.9985 343.312 56.6121 343.245 56.2265C343.212 56.0358 343.339 55.8542 343.53 55.8206C343.72 55.7882 343.903 55.9147 343.936 56.1058C344.002 56.4869 344.074 56.8687 344.148 57.251C344.185 57.4413 344.061 57.6254 343.871 57.6623C343.848 57.6672 343.826 57.6693 343.804 57.6693ZM343.176 53.0286C342.989 53.0286 342.834 52.8819 342.826 52.6936C342.814 52.4237 342.807 52.1555 342.807 51.8955C342.807 51.7628 342.809 51.6302 342.812 51.4979C342.817 51.3043 342.975 51.1509 343.171 51.1559C343.365 51.1608 343.518 51.3217 343.513 51.5153C343.51 51.6418 343.509 51.7682 343.509 51.8951C343.509 52.1447 343.515 52.4026 343.526 52.6621C343.535 52.8557 343.385 53.0195 343.192 53.0282C343.186 53.0282 343.181 53.0286 343.176 53.0286ZM343.724 48.4C343.688 48.4 343.651 48.3942 343.615 48.3825C343.43 48.3224 343.33 48.1243 343.39 47.9402C343.496 47.6147 343.619 47.2926 343.754 46.982C343.779 46.9248 343.805 46.868 343.831 46.8116C343.911 46.6354 344.119 46.5583 344.296 46.6391C344.472 46.72 344.549 46.9281 344.468 47.1043C344.444 47.1566 344.421 47.2096 344.397 47.2627C344.27 47.5529 344.156 47.8539 344.057 48.1578C344.008 48.3054 343.871 48.4 343.724 48.4ZM346.135 44.4305C346.047 44.4305 345.96 44.3978 345.891 44.3319C345.752 44.1971 345.749 43.9749 345.883 43.8356C346.158 43.5524 346.454 43.2754 346.764 43.0126C346.912 42.8874 347.134 42.9056 347.259 43.0536C347.384 43.2016 347.366 43.423 347.218 43.5482C346.925 43.7962 346.646 44.0574 346.387 44.3244C346.319 44.3949 346.227 44.4305 346.135 44.4305ZM349.931 41.7173C349.803 41.7173 349.679 41.6464 349.618 41.5237C349.531 41.3504 349.601 41.1398 349.774 41.0527C350.121 40.8786 350.486 40.7103 350.859 40.5523C351.037 40.4768 351.243 40.5602 351.319 40.7385C351.394 40.9167 351.311 41.1228 351.133 41.1983C350.774 41.3504 350.422 41.5125 350.088 41.6796C350.038 41.7053 349.985 41.7173 349.931 41.7173ZM354.334 40.1294C354.176 40.1294 354.033 40.0224 353.993 39.8624C353.947 39.6742 354.062 39.4843 354.25 39.4378C354.63 39.3446 355.02 39.2579 355.41 39.1808C355.601 39.1439 355.785 39.267 355.822 39.4569C355.86 39.6468 355.736 39.8317 355.546 39.869C355.167 39.9441 354.787 40.0282 354.418 40.119C354.39 40.1261 354.362 40.1294 354.334 40.1294ZM358.957 39.3852C358.779 39.3852 358.627 39.2504 358.608 39.0697C358.589 38.8769 358.729 38.7048 358.922 38.6853C359.312 38.6459 359.703 38.6103 360.095 38.5771C360.289 38.5601 360.458 38.704 360.474 38.8968C360.491 39.0896 360.348 39.2596 360.154 39.2761C359.767 39.3093 359.38 39.3445 358.993 39.3835C358.981 39.3848 358.969 39.3852 358.957 39.3852ZM363.63 39.0058C363.448 39.0058 363.295 38.8665 363.28 38.6828C363.265 38.4896 363.409 38.3209 363.602 38.3055C363.99 38.2749 364.378 38.2425 364.766 38.2073C364.961 38.1882 365.129 38.3317 365.147 38.5249C365.165 38.7177 365.022 38.8885 364.829 38.9059C364.439 38.9411 364.048 38.9739 363.657 39.005C363.648 39.0054 363.639 39.0058 363.63 39.0058ZM368.285 38.4772C368.117 38.4772 367.968 38.3557 367.94 38.1841C367.908 37.9929 368.037 37.8122 368.228 37.7807C368.617 37.716 369 37.6451 369.367 37.5692C369.557 37.5302 369.743 37.6521 369.782 37.8416C369.821 38.0315 369.699 38.2168 369.509 38.2562C369.133 38.3342 368.741 38.4067 368.344 38.4726C368.324 38.4755 368.304 38.4772 368.285 38.4772ZM372.816 37.3034C372.673 37.3034 372.54 37.2164 372.487 37.075C372.419 36.8934 372.511 36.6915 372.693 36.6239C373.048 36.4916 373.407 36.3465 373.76 36.1927C373.938 36.1156 374.144 36.1969 374.222 36.3743C374.299 36.5518 374.218 36.7586 374.04 36.8362C373.676 36.995 373.305 37.1446 372.938 37.2815C372.898 37.2964 372.856 37.3034 372.816 37.3034ZM377.006 35.2287C376.889 35.2287 376.774 35.1699 376.708 35.0629C376.606 34.8983 376.656 34.6819 376.821 34.5799C377.143 34.3805 377.47 34.1686 377.792 33.9501C377.952 33.8415 378.17 33.8834 378.279 34.0438C378.388 34.2043 378.346 34.4223 378.185 34.531C377.855 34.7549 377.52 34.9721 377.19 35.1765C377.133 35.2118 377.069 35.2287 377.006 35.2287ZM380.789 32.4671C380.689 32.4671 380.59 32.4243 380.52 32.3414C380.396 32.193 380.415 31.9716 380.564 31.8472C380.861 31.5989 381.155 31.346 381.446 31.0889C381.591 30.9604 381.813 30.9745 381.941 31.1196C382.069 31.2647 382.056 31.4865 381.91 31.6146C381.614 31.8758 381.316 32.1329 381.015 32.3854C380.949 32.4401 380.869 32.4671 380.789 32.4671ZM395.425 30.0002C395.251 30.0002 395.078 29.9993 394.904 29.9981C394.711 29.9964 394.555 29.838 394.556 29.6444C394.558 29.4508 394.72 29.2895 394.91 29.2966C395.299 29.2995 395.687 29.299 396.076 29.2953C396.077 29.2953 396.078 29.2953 396.079 29.2953C396.272 29.2953 396.428 29.45 396.43 29.6428C396.432 29.8364 396.276 29.9952 396.083 29.9972C395.863 29.9989 395.644 30.0002 395.425 30.0002ZM391.394 29.8758C391.387 29.8758 391.38 29.8754 391.372 29.8749C390.98 29.8509 390.589 29.8231 390.197 29.7916C390.004 29.7763 389.86 29.6071 389.875 29.4139C389.891 29.2207 390.06 29.0752 390.253 29.0922C390.64 29.1228 391.028 29.1506 391.416 29.1747C391.609 29.1867 391.756 29.3529 391.744 29.5466C391.733 29.7323 391.578 29.8758 391.394 29.8758ZM399.591 29.8662C399.408 29.8662 399.253 29.7236 399.241 29.5379C399.229 29.3442 399.376 29.1776 399.569 29.1651C399.957 29.1403 400.344 29.1116 400.732 29.0797C400.924 29.0648 401.094 29.2074 401.11 29.4006C401.126 29.5934 400.982 29.763 400.789 29.7792C400.398 29.8115 400.006 29.8401 399.614 29.8654C399.607 29.8662 399.599 29.8662 399.591 29.8662ZM386.73 29.4189C386.715 29.4189 386.699 29.418 386.683 29.416C386.294 29.3637 385.905 29.3082 385.517 29.2489C385.325 29.2194 385.194 29.0408 385.223 28.8492C385.252 28.6577 385.431 28.5262 385.622 28.5552C386.006 28.6137 386.391 28.6688 386.776 28.7207C386.968 28.7464 387.103 28.923 387.077 29.115C387.054 29.2912 386.903 29.4189 386.73 29.4189ZM404.254 29.3952C404.082 29.3952 403.931 29.268 403.907 29.0926C403.88 28.9006 404.015 28.7236 404.207 28.697C404.592 28.644 404.976 28.5872 405.359 28.5266C405.551 28.4976 405.73 28.6274 405.761 28.8185C405.791 29.0101 405.66 29.1896 405.469 29.2199C405.081 29.2808 404.692 29.3384 404.303 29.3919C404.286 29.394 404.27 29.3952 404.254 29.3952ZM384.239 29.2932C384.149 29.2932 384.059 29.2584 383.99 29.1896C383.853 29.0519 383.855 28.8301 383.992 28.6937C384.268 28.4197 384.542 28.1435 384.815 27.8653C384.95 27.7269 385.173 27.7248 385.311 27.8604C385.45 27.9959 385.452 28.2182 385.316 28.3566C385.041 28.6369 384.765 28.916 384.486 29.1917C384.418 29.2592 384.328 29.2932 384.239 29.2932ZM382.111 28.6295C382.087 28.6295 382.063 28.627 382.039 28.622C381.655 28.542 381.271 28.4586 380.888 28.3716C380.699 28.3285 380.58 28.1406 380.623 27.952C380.666 27.7629 380.854 27.6439 381.043 27.6875C381.422 27.7733 381.801 27.8558 382.182 27.9354C382.372 27.9748 382.493 28.1605 382.454 28.3504C382.419 28.5159 382.273 28.6295 382.111 28.6295ZM408.87 28.5822C408.708 28.5822 408.563 28.4694 408.527 28.3048C408.486 28.1153 408.607 27.9288 408.796 27.8881C409.176 27.8069 409.555 27.7215 409.933 27.6327C410.121 27.5896 410.311 27.7057 410.355 27.8944C410.399 28.083 410.282 28.2717 410.093 28.316C409.711 28.4056 409.328 28.4918 408.944 28.5743C408.919 28.5797 408.894 28.5822 408.87 28.5822ZM377.56 27.5092C377.528 27.5092 377.496 27.5051 377.464 27.4955C377.086 27.3881 376.71 27.277 376.334 27.1622C376.149 27.1058 376.044 26.9097 376.101 26.7243C376.157 26.539 376.354 26.4345 376.538 26.4909C376.91 26.6041 377.283 26.714 377.656 26.8205C377.843 26.8736 377.951 27.0676 377.898 27.2542C377.853 27.4084 377.713 27.5092 377.56 27.5092ZM413.392 27.3562C413.249 27.3562 413.114 27.2679 413.062 27.1253C412.996 26.9433 413.09 26.7418 413.272 26.6758C413.64 26.5415 414.001 26.3985 414.343 26.2509C414.521 26.1737 414.727 26.2558 414.804 26.4337C414.881 26.6116 414.799 26.818 414.621 26.8947C414.267 27.0482 413.894 27.1962 413.512 27.3346C413.472 27.3496 413.432 27.3562 413.392 27.3562ZM373.103 26.0601C373.063 26.0601 373.022 26.0531 372.982 26.0386C372.614 25.9034 372.246 25.7649 371.88 25.6231C371.699 25.5531 371.61 25.3499 371.68 25.1692C371.75 24.9888 371.953 24.8988 372.134 24.9689C372.496 25.109 372.86 25.2463 373.224 25.3798C373.406 25.4465 373.499 25.648 373.433 25.83C373.38 25.9722 373.246 26.0601 373.103 26.0601ZM387.495 25.9192C387.409 25.9192 387.323 25.8877 387.255 25.8238C387.114 25.6911 387.107 25.4689 387.24 25.328L388.041 24.4739C388.174 24.3325 388.396 24.325 388.537 24.4577C388.679 24.59 388.686 24.8122 388.553 24.9536L387.751 25.8085C387.682 25.8823 387.589 25.9192 387.495 25.9192ZM417.525 25.1799C417.42 25.1799 417.316 25.1331 417.247 25.0431C417.129 24.8897 417.157 24.6696 417.311 24.551C417.619 24.3138 417.905 24.0651 418.163 23.8113C418.301 23.6757 418.523 23.6774 418.659 23.8151C418.795 23.9531 418.793 24.1753 418.655 24.3113C418.378 24.585 418.069 24.8524 417.739 25.107C417.675 25.1559 417.6 25.1799 417.525 25.1799ZM390.713 22.5107C390.626 22.5107 390.538 22.4779 390.47 22.4124C390.331 22.2781 390.327 22.0559 390.461 21.9162C390.634 21.7362 390.808 21.5571 390.982 21.3788C391.081 21.2772 391.181 21.1757 391.282 21.0741C391.418 20.9364 391.64 20.9356 391.778 21.072C391.916 21.2084 391.917 21.4307 391.78 21.5683C391.681 21.6682 391.582 21.7686 391.484 21.8689C391.311 22.0459 391.139 22.2238 390.966 22.4025C390.897 22.4746 390.805 22.5107 390.713 22.5107ZM420.227 21.4526C420.195 21.4526 420.163 21.4485 420.131 21.4394C419.945 21.3867 419.836 21.1931 419.889 21.0065C419.972 20.7109 420.032 20.4037 420.066 20.094C420.073 20.0372 420.078 19.9804 420.082 19.9236C420.098 19.7303 420.265 19.5865 420.46 19.6014C420.653 19.6167 420.797 19.7859 420.782 19.9787C420.777 20.043 420.77 20.1068 420.763 20.1711C420.725 20.5193 420.658 20.8643 420.564 21.1964C420.521 21.3515 420.38 21.4526 420.227 21.4526ZM394.087 19.2585C393.989 19.2585 393.893 19.2183 393.823 19.1395C393.695 18.994 393.709 18.7726 393.855 18.6445C394.15 18.3845 394.449 18.1279 394.751 17.875C394.9 17.7506 395.121 17.7705 395.245 17.9189C395.37 18.0678 395.35 18.2888 395.202 18.4131C394.904 18.6623 394.609 18.9152 394.319 19.171C394.252 19.2295 394.169 19.2585 394.087 19.2585ZM419.67 16.9235C419.546 16.9235 419.426 16.8575 419.362 16.741C419.188 16.4235 418.982 16.1096 418.75 15.8078C418.631 15.6544 418.66 15.4338 418.813 15.3156C418.967 15.1975 419.187 15.2261 419.306 15.3795C419.56 15.7099 419.786 16.0544 419.977 16.4035C420.07 16.5735 420.008 16.7866 419.838 16.8799C419.785 16.9094 419.727 16.9235 419.67 16.9235ZM397.768 16.3567C397.656 16.3567 397.547 16.3045 397.479 16.2062C397.369 16.0474 397.408 15.8285 397.567 15.7178C397.893 15.4914 398.223 15.2696 398.55 15.0586C398.713 14.9541 398.93 15.0005 399.035 15.163C399.14 15.326 399.094 15.5428 398.931 15.6481C398.611 15.855 398.287 16.0719 397.968 16.2937C397.906 16.3364 397.837 16.3567 397.768 16.3567ZM401.799 13.9764C401.669 13.9764 401.543 13.9035 401.483 13.7783C401.398 13.6037 401.471 13.3939 401.646 13.3098C402.006 13.1356 402.37 12.9702 402.727 12.818C402.906 12.7422 403.111 12.8255 403.187 13.0038C403.263 13.1821 403.18 13.3881 403.002 13.464C402.654 13.6116 402.301 13.772 401.951 13.9416C401.902 13.9652 401.85 13.9764 401.799 13.9764ZM416.405 13.6307C416.343 13.6307 416.28 13.6141 416.222 13.5788C415.902 13.3823 415.566 13.2007 415.225 13.039C415.05 12.9561 414.975 12.7467 415.058 12.5718C415.142 12.3968 415.351 12.3222 415.526 12.4051C415.89 12.5776 416.247 12.7712 416.589 12.9806C416.754 13.0817 416.806 13.2977 416.705 13.4632C416.638 13.5714 416.523 13.6307 416.405 13.6307ZM406.196 12.3906C406.037 12.3906 405.893 12.2815 405.855 12.1194C405.81 11.9308 405.928 11.7421 406.116 11.6978C406.506 11.6066 406.9 11.5278 407.288 11.4643C407.48 11.4332 407.66 11.5622 407.691 11.7537C407.723 11.9449 407.593 12.1252 407.402 12.1567C407.029 12.2181 406.651 12.2931 406.277 12.381C406.25 12.3873 406.223 12.3906 406.196 12.3906ZM412.013 12.0929C411.997 12.0929 411.98 12.0916 411.964 12.0896C411.588 12.0361 411.205 11.9975 410.826 11.9743C410.632 11.9627 410.485 11.796 410.497 11.6028C410.509 11.4096 410.676 11.2628 410.868 11.274C411.266 11.2985 411.667 11.3391 412.062 11.3947C412.253 11.4221 412.387 11.5995 412.36 11.7915C412.335 11.9664 412.185 12.0929 412.013 12.0929Z" fill="white"/>
<path d="M292.545 102.862C292.517 102.862 292.489 102.858 292.461 102.852C292.273 102.806 292.157 102.616 292.203 102.428C292.25 102.236 292.299 102.044 292.35 101.854C292.4 101.667 292.593 101.556 292.78 101.605C292.967 101.656 293.078 101.848 293.028 102.035C292.978 102.221 292.931 102.407 292.885 102.594C292.846 102.755 292.703 102.862 292.545 102.862Z" fill="white"/>
<path d="M377.768 23.9314C375.941 26.1309 373.009 27.0799 370.239 26.3688L346.185 20.192C343.822 19.5855 341.529 18.7372 339.34 17.6609L337.641 16.825C336.345 16.1874 335.871 14.5774 336.616 13.3394C337.021 12.6657 337.723 12.2254 338.506 12.1541L341.074 11.9198C341.516 11.8796 341.954 11.8079 342.386 11.7059C344.262 11.2618 346.229 11.4053 348.021 12.1172L377.768 23.9314Z" fill="white"/>
<path d="M367.694 23.1445L382.637 21.207L384.657 22.0093L364.452 27.6027L363.035 27.0397L367.694 23.1445Z" fill="white"/>
<path d="M377.447 21.8808L379.917 19.4575L377.943 18.6328L370.186 20.9185L373.8 22.3539L377.447 21.8808Z" fill="white"/>
<path d="M348.012 16.3971L379.964 12.2539L384.283 13.9695L341.079 25.9305L338.048 24.7265L348.012 16.3971Z" fill="white"/>
<path d="M373.103 14.9943C372.762 15.4495 372.157 15.6166 371.631 15.4006L366.623 13.3425C365.706 12.9785 365.583 11.7305 366.412 11.1949C366.742 10.9813 367.154 10.9407 367.519 11.0858L372.565 13.0896C373.327 13.3927 373.594 14.3372 373.103 14.9943Z" fill="white"/>
<path d="M342.361 22.5681L340.384 21.7832C339.677 21.5025 339.583 20.5402 340.222 20.1269C340.476 19.9623 340.794 19.9308 341.076 20.0427L346.135 22.0519L342.361 22.5681Z" fill="white"/>
<path d="M344.169 19.6094L354.291 22.2732L353.254 22.5722L343.704 19.9983L344.169 19.6094Z" fill="#8FCBFD"/>
<path d="M345.219 11.765C345.04 11.9014 344.869 12.0499 344.71 12.2095C344.346 12.1378 343.977 12.0764 343.605 12.0254C343.777 11.8492 343.963 11.6871 344.161 11.5391C344.517 11.5984 344.87 11.6738 345.219 11.765Z" fill="#47436C"/>
<path d="M346.516 12.181C346.404 12.3054 346.279 12.4356 346.167 12.5596C345.821 12.4588 345.461 12.3709 345.096 12.2905C345.252 12.1392 345.416 11.9965 345.591 11.8672C345.903 11.9596 346.212 12.0641 346.516 12.181Z" fill="#47436C"/>
<path d="M341.502 11.8682L342.913 11.5485C343.135 11.4938 343.47 11.4412 343.795 11.4851C343.593 11.6352 343.403 11.801 343.227 11.9806C342.38 11.881 342.309 11.852 341.502 11.8682Z" fill="#47436C"/>
<path d="M367.808 13.8281L371.212 15.227L366.822 13.9562L367.808 13.8281Z" fill="#8FCBFD"/>
<path d="M341.186 22.1016L344.145 23.2766L340.75 22.466L341.186 22.1016Z" fill="#8FCBFD"/>
<path d="M355.263 14.9941L349.485 12.6992L350.785 13.5964C351.503 14.0923 351.955 14.8888 352.012 15.7594L355.263 14.9941Z" fill="#BAECFE"/>
<path d="M348.902 12.861C349.029 12.9066 349.109 13.0106 349.079 13.094L349.011 13.2864C348.981 13.3697 348.854 13.4 348.726 13.3548C348.598 13.3092 348.519 13.2051 348.549 13.1218L348.617 12.9294C348.647 12.846 348.774 12.8154 348.902 12.861Z" fill="#47436C"/>
<path d="M350.194 13.3412C350.322 13.3868 350.401 13.4908 350.372 13.5742L350.303 13.7666C350.274 13.8499 350.146 13.8802 350.019 13.835C349.891 13.7898 349.812 13.6853 349.841 13.602L349.91 13.4096C349.939 13.3267 350.066 13.296 350.194 13.3412Z" fill="#47436C"/>
<path d="M351.486 13.8216C351.614 13.8672 351.693 13.9713 351.664 14.0546L351.595 14.247C351.566 14.3304 351.438 14.3606 351.311 14.3154C351.183 14.2698 351.104 14.1658 351.133 14.0824L351.202 13.8901C351.231 13.8071 351.359 13.7764 351.486 13.8216Z" fill="#47436C"/>
<path d="M352.779 14.3021C352.907 14.3473 352.986 14.4518 352.957 14.5351L352.888 14.7275C352.858 14.8108 352.731 14.8411 352.603 14.7959C352.476 14.7507 352.396 14.6462 352.426 14.5629L352.494 14.3705C352.524 14.2876 352.651 14.2569 352.779 14.3021Z" fill="#47436C"/>
<path d="M354.072 14.7866C354.199 14.8322 354.279 14.9362 354.249 15.0196L354.181 15.212C354.151 15.2953 354.024 15.3256 353.896 15.2804C353.768 15.2348 353.689 15.1307 353.718 15.0474L353.787 14.855C353.817 14.7716 353.944 14.7414 354.072 14.7866Z" fill="#47436C"/>
<path d="M362.502 20.0065L370.186 20.919L366.534 19.4688L362.502 20.0065Z" fill="#BAECFE"/>
<path d="M365.933 19.4782C366.061 19.5234 366.14 19.6278 366.11 19.7112L366.042 19.9035C366.013 19.9869 365.885 20.0171 365.758 19.972C365.63 19.9263 365.551 19.8223 365.58 19.7389L365.649 19.5466C365.678 19.4632 365.805 19.4326 365.933 19.4782Z" fill="#47436C"/>
<path d="M367.219 20.017C367.346 20.0626 367.425 20.1666 367.396 20.25L367.328 20.4423C367.298 20.5257 367.17 20.5559 367.043 20.5108C366.915 20.4656 366.836 20.3611 366.865 20.2777L366.934 20.0854C366.964 20.0024 367.091 19.9718 367.219 20.017Z" fill="#47436C"/>
<path d="M368.505 20.5563C368.633 20.6019 368.712 20.706 368.682 20.7893L368.614 20.9817C368.584 21.065 368.457 21.0953 368.329 21.0501C368.202 21.0045 368.123 20.9004 368.152 20.8171L368.22 20.6247C368.25 20.5414 368.377 20.5107 368.505 20.5563Z" fill="#47436C"/>
<path d="M377.447 21.8803L371.494 22.6523L378.022 21.3164L377.447 21.8803Z" fill="#8FCBFD"/>
<path d="M365.344 25.1094L369.724 26.2342L368.613 26.5277L364.814 25.5522L365.344 25.1094Z" fill="#8FCBFD"/>
<path d="M364.814 25.5547L363.812 26.3926L365.458 27.3271L368.613 26.5303L364.814 25.5547Z" fill="#BAECFE"/>
<path d="M379.917 19.4575L378.022 21.317L371.494 22.6528L377.523 20.9127L379.091 19.4844L377.943 18.6328L379.917 19.4575Z" fill="#BAECFE"/>
<path d="M377.787 23.9141C377.137 24.094 374.38 24.9079 374.38 24.9079L377.215 24.5281C377.215 24.5281 377.525 24.2802 377.787 23.9141Z" fill="#8FCBFD"/>
<path d="M340.729 15.4114L370.586 24.9672C372.589 25.6082 374.729 25.5999 376.709 24.9672C374.915 26.4084 372.523 26.9532 370.239 26.3665L346.185 20.1897C343.822 19.5832 341.529 18.7349 339.34 17.6586L337.641 16.8227C337.602 16.8036 337.567 16.7808 337.529 16.7601C336.463 16.0967 336.001 13.7783 340.729 15.4114Z" fill="#BAECFE"/>
<path d="M384.283 13.9675L383.047 13.4766L355.65 18.3071L362.502 20.0045L384.283 13.9675Z" fill="#BAECFE"/>
<path d="M348.67 21.3359L340.084 25.5666L341.079 25.9302L353.254 22.5715L348.67 21.3359Z" fill="#BAECFE"/>
<path d="M366.562 19.4591L366.534 19.4669L362.502 20.0047L365.71 19.1133L366.562 19.4591Z" fill="#8FCBFD"/>
<path d="M355.443 14.9492L356.346 15.3153L350.877 16.0243L355.443 14.9492Z" fill="#8FCBFD"/>
<path d="M309.511 170.505C302.417 166.19 271.398 162.941 234.204 162.941C191.77 162.941 157.371 167.17 157.371 172.386C157.371 173.042 157.918 173.683 158.955 174.302C141.887 175.75 130 178.986 130 182.746C130 187.857 151.954 192 179.036 192C206.117 192 228.072 187.857 228.072 182.746C228.072 182.426 227.985 182.109 227.817 181.797C229.923 181.818 232.052 181.83 234.204 181.83C247.212 181.83 259.463 181.432 270.201 180.731C273.626 184.522 287.27 187.355 303.581 187.355C322.475 187.355 337.791 183.554 337.791 178.866C337.792 174.679 325.578 171.201 309.511 170.505Z" fill="#FFA3BC"/>
<path d="M251.356 162.941H248.923V163.611C247.533 164.441 246.601 165.96 246.601 167.696C246.601 169.433 247.533 170.952 248.923 171.781V172.451H251.356C253.982 172.451 256.111 170.322 256.111 167.696C256.111 165.07 253.982 162.941 251.356 162.941Z" fill="#2F2D46"/>
<path d="M250.026 172.323C252.582 171.717 254.161 169.154 253.555 166.599C252.949 164.044 250.386 162.464 247.83 163.07C245.275 163.676 243.695 166.239 244.302 168.795C244.908 171.35 247.471 172.93 250.026 172.323Z" fill="#47436C"/>
<path d="M251.334 167.697C251.334 169.028 250.255 170.108 248.923 170.108C247.591 170.108 246.511 169.028 246.511 167.697C246.511 166.365 247.591 165.285 248.923 165.285C250.255 165.285 251.334 166.365 251.334 167.697Z" fill="#8D8EC4"/>
<path d="M249.186 165.301C249.458 165.568 249.657 165.912 249.751 166.283C249.888 166.825 249.809 167.414 249.561 167.914C249.25 168.541 248.672 169.029 248.003 169.231C247.729 169.314 247.441 169.346 247.155 169.334C247.595 169.809 248.223 170.109 248.922 170.109C250.254 170.109 251.334 169.029 251.334 167.697C251.334 166.454 250.394 165.432 249.186 165.301Z" fill="#69699A"/>
<path d="M267.051 162.938H264.618V163.607C263.228 164.437 262.296 165.956 262.296 167.692C262.296 169.429 263.228 170.948 264.618 171.777V172.447H267.051C269.677 172.447 271.807 170.318 271.807 167.692C271.807 165.067 269.677 162.938 267.051 162.938Z" fill="#2F2D46"/>
<path d="M266.462 172.084C268.886 171.072 270.03 168.287 269.018 165.863C268.006 163.44 265.221 162.296 262.797 163.308C260.374 164.32 259.23 167.105 260.242 169.529C261.254 171.952 264.039 173.096 266.462 172.084Z" fill="#2F2D46"/>
<path d="M267.03 167.693C267.03 169.024 265.95 170.104 264.618 170.104C263.287 170.104 262.207 169.024 262.207 167.693C262.207 166.361 263.287 165.281 264.618 165.281C265.95 165.281 267.03 166.361 267.03 167.693Z" fill="#2F2D46"/>
<path d="M264.881 165.297C265.153 165.564 265.352 165.908 265.446 166.279C265.583 166.821 265.504 167.41 265.256 167.911C264.945 168.537 264.367 169.025 263.698 169.227C263.424 169.31 263.136 169.342 262.85 169.33C263.29 169.805 263.919 170.105 264.618 170.105C265.949 170.105 267.029 169.025 267.029 167.693C267.029 166.45 266.089 165.428 264.881 165.297Z" fill="#2F2D46"/>
<path d="M214.489 162.938H212.056V163.607C210.666 164.437 209.734 165.956 209.734 167.692C209.734 169.429 210.666 170.948 212.056 171.777V172.447H214.489C217.115 172.447 219.245 170.318 219.245 167.692C219.244 165.067 217.115 162.938 214.489 162.938Z" fill="#2F2D46"/>
<path d="M213.898 172.084C216.322 171.072 217.466 168.287 216.454 165.863C215.442 163.44 212.656 162.296 210.233 163.308C207.81 164.32 206.665 167.105 207.678 169.529C208.69 171.952 211.475 173.096 213.898 172.084Z" fill="#47436C"/>
<path d="M214.468 167.693C214.468 169.024 213.388 170.104 212.056 170.104C210.725 170.104 209.645 169.024 209.645 167.693C209.645 166.361 210.725 165.281 212.056 165.281C213.388 165.281 214.468 166.361 214.468 167.693Z" fill="#8D8EC4"/>
<path d="M212.319 165.297C212.591 165.564 212.79 165.908 212.884 166.279C213.021 166.821 212.942 167.41 212.693 167.911C212.382 168.537 211.805 169.025 211.136 169.227C210.862 169.31 210.574 169.342 210.288 169.33C210.728 169.805 211.356 170.105 212.055 170.105C213.387 170.105 214.467 169.025 214.467 167.693C214.467 166.45 213.527 165.428 212.319 165.297Z" fill="#69699A"/>
<path d="M230.184 162.938H227.751V163.607C226.361 164.437 225.429 165.956 225.429 167.692C225.429 169.429 226.361 170.948 227.751 171.777V172.447H230.184C232.81 172.447 234.939 170.318 234.939 167.692C234.939 165.067 232.81 162.938 230.184 162.938Z" fill="#2F2D46"/>
<path d="M229.477 172.125C231.922 171.167 233.128 168.408 232.17 165.963C231.212 163.518 228.454 162.312 226.008 163.27C223.563 164.227 222.357 166.986 223.315 169.431C224.273 171.877 227.032 173.082 229.477 172.125Z" fill="#2F2D46"/>
<path d="M230.162 167.693C230.162 169.024 229.083 170.104 227.751 170.104C226.419 170.104 225.339 169.024 225.339 167.693C225.339 166.361 226.419 165.281 227.751 165.281C229.083 165.281 230.162 166.361 230.162 167.693Z" fill="#2F2D46"/>
<path d="M228.014 165.297C228.286 165.564 228.485 165.908 228.579 166.279C228.716 166.821 228.637 167.41 228.389 167.911C228.078 168.537 227.5 169.025 226.831 169.227C226.557 169.31 226.269 169.342 225.983 169.33C226.423 169.805 227.051 170.105 227.75 170.105C229.082 170.105 230.162 169.025 230.162 167.693C230.162 166.45 229.222 165.428 228.014 165.297Z" fill="#2F2D46"/>
<path d="M272.561 165.978H226.384C220.143 165.978 215.084 160.919 215.084 154.678V73.8161C215.084 67.5751 220.143 62.5156 226.384 62.5156H272.561C278.803 62.5156 283.862 67.5751 283.862 73.8161V154.677C283.862 160.919 278.803 165.978 272.561 165.978Z" fill="#E5A138"/>
<path d="M264.525 165.978H218.348C212.107 165.978 207.047 160.919 207.047 154.678V73.8161C207.047 67.5751 212.107 62.5156 218.348 62.5156H264.525C270.766 62.5156 275.826 67.5751 275.826 73.8161V154.677C275.826 160.919 270.766 165.978 264.525 165.978Z" fill="#9F5540"/>
<path d="M262.338 165.978H216.161C209.92 165.978 204.86 160.919 204.86 154.678V73.8161C204.86 67.5751 209.92 62.5156 216.161 62.5156H262.338C268.579 62.5156 273.638 67.5751 273.638 73.8161V154.677C273.639 160.919 268.579 165.978 262.338 165.978Z" fill="#E5A138"/>
<path d="M252.723 165.978H206.545C200.304 165.978 195.244 160.919 195.244 154.678V73.8161C195.244 67.5751 200.304 62.5156 206.545 62.5156H252.722C258.963 62.5156 264.023 67.5751 264.023 73.8161V154.677C264.023 160.919 258.964 165.978 252.723 165.978Z" fill="#F0C343"/>
<path d="M280.092 97.6719H274.956V130.82H280.092V97.6719Z" fill="#F6DC68"/>
<path d="M274.956 97.6719H272.388V130.82H274.956V97.6719Z" fill="#F0C343"/>
<path d="M201.745 156.63C201.043 156.63 200.474 156.061 200.474 155.36V72.7743C200.474 72.0727 201.043 71.5039 201.745 71.5039C202.446 71.5039 203.015 72.0727 203.015 72.7743V155.36C203.015 156.061 202.447 156.63 201.745 156.63Z" fill="#F6DC68"/>
<path d="M209.535 156.63C208.833 156.63 208.264 156.061 208.264 155.36V72.7743C208.264 72.0727 208.833 71.5039 209.535 71.5039C210.236 71.5039 210.805 72.0727 210.805 72.7743V155.36C210.805 156.061 210.236 156.63 209.535 156.63Z" fill="#F6DC68"/>
<path d="M217.324 156.63C216.623 156.63 216.054 156.061 216.054 155.36V72.7743C216.054 72.0727 216.623 71.5039 217.324 71.5039C218.026 71.5039 218.595 72.0727 218.595 72.7743V155.36C218.595 156.061 218.026 156.63 217.324 156.63Z" fill="#F6DC68"/>
<path d="M225.114 156.63C224.412 156.63 223.843 156.061 223.843 155.36V72.7743C223.843 72.0727 224.412 71.5039 225.114 71.5039C225.815 71.5039 226.384 72.0727 226.384 72.7743V155.36C226.384 156.061 225.815 156.63 225.114 156.63Z" fill="#F6DC68"/>
<path d="M232.903 156.63C232.201 156.63 231.632 156.061 231.632 155.36V72.7743C231.632 72.0727 232.201 71.5039 232.903 71.5039C233.604 71.5039 234.173 72.0727 234.173 72.7743V155.36C234.173 156.061 233.604 156.63 232.903 156.63Z" fill="#F6DC68"/>
<path d="M240.692 156.63C239.991 156.63 239.422 156.061 239.422 155.36V72.7743C239.422 72.0727 239.991 71.5039 240.692 71.5039C241.394 71.5039 241.963 72.0727 241.963 72.7743V155.36C241.962 156.061 241.394 156.63 240.692 156.63Z" fill="#F6DC68"/>
<path d="M248.482 156.63C247.78 156.63 247.212 156.061 247.212 155.36V72.7743C247.212 72.0727 247.78 71.5039 248.482 71.5039C249.183 71.5039 249.752 72.0727 249.752 72.7743V155.36C249.752 156.061 249.183 156.63 248.482 156.63Z" fill="#F6DC68"/>
<path d="M256.271 156.63C255.57 156.63 255.001 156.061 255.001 155.36V72.7743C255.001 72.0727 255.57 71.5039 256.271 71.5039C256.973 71.5039 257.542 72.0727 257.542 72.7743V155.36C257.542 156.061 256.973 156.63 256.271 156.63Z" fill="#F6DC68"/>
<path d="M201.745 71.5039C201.571 71.5039 201.405 71.5391 201.254 71.603C201.711 71.7954 202.032 72.2473 202.032 72.7743V155.36C202.032 155.887 201.711 156.339 201.254 156.531C201.405 156.594 201.571 156.63 201.745 156.63C202.447 156.63 203.016 156.061 203.016 155.36V72.7743C203.015 72.0727 202.447 71.5039 201.745 71.5039Z" fill="#E5A138"/>
<path d="M209.535 71.5039C209.36 71.5039 209.194 71.5391 209.043 71.603C209.5 71.7954 209.821 72.2473 209.821 72.7743V155.36C209.821 155.887 209.5 156.339 209.043 156.531C209.194 156.594 209.36 156.63 209.535 156.63C210.236 156.63 210.805 156.061 210.805 155.36V72.7743C210.805 72.0727 210.236 71.5039 209.535 71.5039Z" fill="#E5A138"/>
<path d="M217.324 71.5039C217.15 71.5039 216.984 71.5391 216.833 71.603C217.29 71.7954 217.611 72.2473 217.611 72.7743V155.36C217.611 155.887 217.29 156.339 216.833 156.531C216.984 156.594 217.15 156.63 217.324 156.63C218.026 156.63 218.595 156.061 218.595 155.36V72.7743C218.595 72.0727 218.026 71.5039 217.324 71.5039Z" fill="#E5A138"/>
<path d="M225.114 71.5039C224.939 71.5039 224.773 71.5391 224.622 71.603C225.079 71.7954 225.401 72.2473 225.401 72.7743V155.36C225.401 155.887 225.079 156.339 224.622 156.531C224.773 156.594 224.94 156.63 225.114 156.63C225.815 156.63 226.384 156.061 226.384 155.36V72.7743C226.384 72.0727 225.815 71.5039 225.114 71.5039Z" fill="#E5A138"/>
<path d="M232.903 71.5039C232.728 71.5039 232.562 71.5391 232.411 71.603C232.868 71.7954 233.19 72.2473 233.19 72.7743V155.36C233.19 155.887 232.868 156.339 232.411 156.531C232.562 156.594 232.728 156.63 232.903 156.63C233.604 156.63 234.173 156.061 234.173 155.36V72.7743C234.173 72.0727 233.604 71.5039 232.903 71.5039Z" fill="#E5A138"/>
<path d="M240.693 71.5039C240.518 71.5039 240.352 71.5391 240.201 71.603C240.658 71.7954 240.979 72.2473 240.979 72.7743V155.36C240.979 155.887 240.658 156.339 240.201 156.531C240.352 156.594 240.518 156.63 240.693 156.63C241.394 156.63 241.963 156.061 241.963 155.36V72.7743C241.963 72.0727 241.394 71.5039 240.693 71.5039Z" fill="#E5A138"/>
<path d="M248.482 71.5039C248.307 71.5039 248.142 71.5391 247.99 71.603C248.448 71.7954 248.769 72.2473 248.769 72.7743V155.36C248.769 155.887 248.448 156.339 247.99 156.531C248.142 156.594 248.308 156.63 248.482 156.63C249.183 156.63 249.752 156.061 249.752 155.36V72.7743C249.752 72.0727 249.183 71.5039 248.482 71.5039Z" fill="#E5A138"/>
<path d="M256.271 71.5039C256.097 71.5039 255.931 71.5391 255.78 71.603C256.237 71.7954 256.558 72.2473 256.558 72.7743V155.36C256.558 155.887 256.237 156.339 255.78 156.531C255.931 156.594 256.097 156.63 256.271 156.63C256.973 156.63 257.542 156.061 257.542 155.36V72.7743C257.542 72.0727 256.973 71.5039 256.271 71.5039Z" fill="#E5A138"/>
<path d="M246.595 154.217C242.257 155.302 237.862 152.665 236.776 148.328L235.499 143.222C234.414 138.885 237.05 134.49 241.387 133.404C245.724 132.319 250.12 134.955 251.205 139.292L252.483 144.398C253.568 148.735 250.932 153.131 246.595 154.217Z" fill="white"/>
<path d="M258.669 79.5475L247.251 70.0352L233.21 86.8889L244.627 96.4013L258.669 79.5475Z" fill="#C82441"/>
<path d="M244.563 95.227L234.366 86.7305L247.297 71.2109L257.494 79.7075L244.563 95.227ZM235.143 86.6248L244.527 94.4434L256.717 79.8132L247.333 71.9945L235.143 86.6248Z" fill="white"/>
<path d="M248.571 78.8419C248.262 78.6844 247.966 78.5331 247.665 78.3801C247.654 78.4041 247.646 78.419 247.64 78.4348C247.552 78.6504 247.462 78.8656 247.376 79.082C247.36 79.1222 247.34 79.1367 247.3 79.1413C246.792 79.1989 246.285 79.259 245.777 79.3154C245.724 79.3212 245.694 79.3403 245.672 79.3909C245.155 80.5277 245.217 81.5758 245.867 82.5344C245.911 82.5983 245.961 82.6571 246.009 82.7185C245.249 83.6302 244.493 84.5378 243.733 85.4499C243.591 85.343 243.456 85.2385 243.319 85.1365C243.029 84.9201 242.734 84.7099 242.414 84.5374C242.321 84.4872 242.22 84.4511 242.121 84.413C242.074 84.3948 242.031 84.4093 241.996 84.4582C241.954 84.5158 241.907 84.5701 241.859 84.6228C241.824 84.6605 241.824 84.6825 241.863 84.7148C242.768 85.4669 243.671 86.2211 244.575 86.9744C244.861 87.2128 245.147 87.4508 245.434 87.6888C245.488 87.734 245.488 87.7336 245.536 87.6768C245.575 87.6291 245.615 87.5818 245.655 87.5346C245.717 87.4599 245.727 87.4367 245.678 87.3613C245.601 87.2423 245.521 87.1237 245.429 87.0171C245.146 86.6884 244.83 86.3936 244.507 86.1058C244.465 86.0677 244.423 86.0279 244.382 85.9902C245.144 85.0755 245.901 84.1663 246.659 83.2575C246.678 83.2674 246.694 83.2753 246.71 83.2836C246.996 83.4453 247.303 83.5585 247.636 83.6C248.801 83.7459 249.797 83.3437 250.61 82.3893C251.097 81.8184 251.572 81.2371 252.051 80.66C252.253 80.4166 252.453 80.1716 252.656 79.929C252.694 79.8834 252.694 79.859 252.651 79.8233C251.652 78.9933 250.655 78.1616 249.657 77.3307C249.643 77.3191 249.627 77.3087 249.605 77.293C249.504 77.6126 249.405 77.9232 249.304 78.2395C249.069 78.1636 248.84 78.0898 248.604 78.014C248.592 78.2942 248.582 78.5621 248.571 78.8419Z" fill="white"/>
<path d="M245.46 78.691C245.463 78.6955 245.466 78.7001 245.47 78.7046C245.484 78.7038 245.498 78.7038 245.513 78.7022C245.916 78.6557 246.319 78.608 246.722 78.5633C246.764 78.5587 246.783 78.5413 246.798 78.5031C246.899 78.2515 247.002 78.0006 247.105 77.7498C247.114 77.7278 247.125 77.7063 247.136 77.6806C247.401 77.8157 247.658 77.9472 247.925 78.0832C247.935 77.8232 247.944 77.5753 247.953 77.3194C248.219 77.4049 248.476 77.4878 248.735 77.5715C248.742 77.5545 248.747 77.5446 248.751 77.5338C248.827 77.2946 248.902 77.0553 248.98 76.8165C248.992 76.7792 248.976 76.7626 248.953 76.7436C248.711 76.5429 248.47 76.3418 248.229 76.1407C248.115 76.0458 248.001 75.9521 247.888 75.8555C247.854 75.8256 247.829 75.8198 247.795 75.8646C247.764 75.9061 247.726 75.9425 247.693 75.9823C247.031 76.7763 246.369 77.5703 245.708 78.3651C245.62 78.4704 245.542 78.5823 245.46 78.691Z" fill="white"/>
<path d="M239.174 85.0459L239.006 85.2487L239.457 85.6247L239.206 85.9253L238.755 85.5492L238.44 85.9278L238.075 85.6239L239.06 84.4414L239.94 85.174L239.689 85.4746L239.174 85.0459Z" fill="white"/>
<path d="M239.782 86.5411L239.683 86.4586L239.435 86.7559L239.07 86.452L240.056 85.2695L240.576 85.7036C240.878 85.9549 240.926 86.2866 240.698 86.5606C240.556 86.731 240.375 86.7978 240.184 86.7621L240.108 87.3164L239.718 86.9918L239.782 86.5411ZM240.297 85.9918L240.164 85.8811L239.933 86.158L240.066 86.2687C240.167 86.3525 240.258 86.3401 240.33 86.2538C240.402 86.1676 240.398 86.0751 240.297 85.9918Z" fill="white"/>
<path d="M241.131 87.8222L240.72 87.4797L240.476 87.6252L240.104 87.3159L241.563 86.5273L241.921 86.8263L241.409 88.403L241.032 88.0887L241.131 87.8222ZM241.27 87.4511L241.413 87.0663L241.06 87.2761L241.27 87.4511Z" fill="white"/>
<path d="M242.687 88.4094L243.004 88.6735L242.588 89.1735C242.374 89.1619 242.15 89.0637 241.991 88.931C241.642 88.6399 241.599 88.1723 241.902 87.8091C242.204 87.4459 242.672 87.4032 243.029 87.7009C243.243 87.8787 243.346 88.1026 243.334 88.341L242.913 88.3713C242.917 88.2282 242.875 88.1188 242.779 88.0392C242.618 87.9053 242.422 87.9335 242.27 88.1159C242.122 88.2933 242.126 88.4965 242.282 88.6267C242.326 88.664 242.377 88.6918 242.438 88.7088L242.687 88.4094Z" fill="white"/>
<path d="M243.626 88.2461L243.991 88.55L243.006 89.7325L242.641 89.4285L243.626 88.2461Z" fill="white"/>
<path d="M244.167 88.6953L244.532 88.9992L243.804 89.8728L244.293 90.2799L244.035 90.5892L243.182 89.8782L244.167 88.6953Z" fill="white"/>
<path d="M245.286 91.1237L245.036 91.4243L244.136 90.6746L245.122 89.4922L246.001 90.2248L245.75 90.5254L245.23 90.0913L245.114 90.2298L245.572 90.6108L245.333 90.8981L244.875 90.5171L244.746 90.6726L245.286 91.1237Z" fill="white"/>
<path d="M207.851 85.2695L211.754 89.523L217.471 88.7186L214.632 93.7449L217.163 98.9333L211.505 97.7865L207.353 101.797L206.696 96.0617L201.598 93.3523L206.85 90.9546L207.851 85.2695Z" fill="white"/>
<path d="M207.481 95.526L203.498 93.409L207.601 91.5354L208.384 87.0938L211.433 90.4172L215.9 89.7891L213.682 93.7158L215.659 97.7699L211.239 96.8735L207.994 100.007L207.481 95.526Z" fill="#C82441"/>
<path d="M208.266 94.9903L205.398 93.4654L208.353 92.1167L208.917 88.918L211.113 91.3111L214.329 90.8587L212.731 93.6864L214.156 96.6056L210.972 95.9601L208.636 98.2168L208.266 94.9903Z" fill="white"/>
<path d="M209.052 94.4585L207.298 93.5264L209.105 92.7014L209.449 90.7461L210.792 92.2092L212.758 91.9327L211.781 93.6608L212.652 95.4457L210.706 95.051L209.278 96.4308L209.052 94.4585Z" fill="#C82441"/>
<path d="M239.642 143.097C239.642 140.903 241.421 139.123 243.616 139.123C245.81 139.123 247.59 140.902 247.59 143.097C247.59 143.102 247.589 143.106 247.589 143.111C248.639 142.876 249.685 142.619 250.726 142.344L250.131 139.965C249.207 136.274 245.466 134.03 241.776 134.954C238.085 135.877 235.841 139.618 236.765 143.309L237.132 144.779C238.053 144.691 238.972 144.583 239.889 144.465C239.732 144.039 239.642 143.579 239.642 143.097Z" fill="#C82441"/>
<path d="M247.59 143.099C247.59 140.904 245.811 139.125 243.616 139.125C241.421 139.125 239.642 140.904 239.642 143.099C239.642 143.58 239.732 144.04 239.889 144.467C242.475 144.134 245.045 143.682 247.589 143.113C247.589 143.108 247.59 143.104 247.59 143.099Z" fill="white"/>
<path d="M251.218 144.309L251.207 144.266C249.72 144.69 248.233 145.114 246.746 145.538C245.246 145.966 243.746 146.395 242.246 146.823C240.819 147.23 239.391 147.637 237.963 148.045C239.045 151.501 242.649 153.554 246.207 152.664C249.898 151.74 252.142 148 251.218 144.309Z" fill="#C82441"/>
<path d="M250.727 142.344C249.685 142.619 248.64 142.876 247.589 143.111C245.045 143.681 242.475 144.132 239.889 144.466C238.972 144.584 238.054 144.691 237.133 144.78L237.852 147.654C237.885 147.787 237.923 147.917 237.964 148.046C239.391 147.639 240.819 147.232 242.247 146.824C243.747 146.396 245.246 145.968 246.746 145.54C248.233 145.116 249.721 144.691 251.208 144.267L250.727 142.344Z" fill="#991840"/>
<path d="M263.466 21.8555H259.448C259.448 20.1938 258.096 18.8422 256.435 18.8422H234.041C232.379 18.8422 231.027 20.1942 231.027 21.8555H227.01C227.01 17.9781 230.164 14.8242 234.041 14.8242H256.435C260.312 14.8242 263.466 17.9781 263.466 21.8555Z" fill="#2F2C49"/>
<path d="M230.274 21.8555H227.762V62.4827H230.274V21.8555Z" fill="#464674"/>
<path d="M262.713 21.8555H260.202V62.4827H262.713V21.8555Z" fill="#464674"/>
<path d="M261.96 21.8555H257.942C257.942 20.1938 256.59 18.8422 254.928 18.8422H232.534C230.872 18.8422 229.521 20.1942 229.521 21.8555H225.503C225.503 17.9781 228.657 14.8242 232.534 14.8242H254.928C258.805 14.8242 261.96 17.9781 261.96 21.8555Z" fill="#47436C"/>
<path d="M228.767 21.8555H226.256V62.4827H228.767V21.8555Z" fill="#69699A"/>
<path d="M261.207 21.8555H258.695V62.4827H261.207V21.8555Z" fill="#69699A"/>
<path d="M297.166 170.379H298.761V170.818C299.671 171.361 300.282 172.356 300.282 173.494C300.282 174.632 299.671 175.627 298.761 176.17V176.609H297.166C295.446 176.609 294.051 175.214 294.051 173.493C294.051 171.774 295.446 170.379 297.166 170.379Z" fill="#2F2D46"/>
<path d="M295.646 173.494C295.646 175.215 297.04 176.61 298.761 176.61C300.481 176.61 301.876 175.215 301.876 173.494C301.876 171.774 300.481 170.379 298.761 170.379C297.04 170.379 295.646 171.774 295.646 173.494Z" fill="#47436C"/>
<path d="M297.181 173.494C297.181 174.366 297.888 175.073 298.76 175.073C299.633 175.073 300.34 174.366 300.34 173.494C300.34 172.621 299.633 171.914 298.76 171.914C297.888 171.914 297.181 172.621 297.181 173.494Z" fill="#8D8EC4"/>
<path d="M298.588 171.922C298.41 172.097 298.279 172.322 298.218 172.565C298.128 172.921 298.179 173.306 298.343 173.634C298.546 174.044 298.925 174.364 299.363 174.497C299.542 174.551 299.731 174.572 299.918 174.564C299.63 174.875 299.219 175.072 298.76 175.072C297.888 175.072 297.181 174.364 297.181 173.492C297.181 172.678 297.797 172.008 298.588 171.922Z" fill="#69699A"/>
<path d="M286.884 170.379H288.479V170.818C289.389 171.361 290 172.356 290 173.494C290 174.632 289.389 175.627 288.479 176.17V176.609H286.884C285.164 176.609 283.769 175.214 283.769 173.493C283.769 171.774 285.164 170.379 286.884 170.379Z" fill="#2F2D46"/>
<path d="M285.363 173.494C285.363 175.215 286.758 176.61 288.479 176.61C290.199 176.61 291.594 175.215 291.594 173.494C291.594 171.774 290.199 170.379 288.479 170.379C286.758 170.379 285.363 171.774 285.363 173.494Z" fill="#2F2D46"/>
<path d="M286.898 173.494C286.898 174.366 287.606 175.073 288.478 175.073C289.35 175.073 290.058 174.366 290.058 173.494C290.058 172.621 289.35 171.914 288.478 171.914C287.606 171.914 286.898 172.621 286.898 173.494Z" fill="#2F2D46"/>
<path d="M288.306 171.922C288.128 172.097 287.997 172.322 287.936 172.565C287.846 172.921 287.897 173.306 288.06 173.634C288.264 174.044 288.642 174.364 289.08 174.497C289.26 174.551 289.449 174.572 289.636 174.564C289.347 174.875 288.936 175.072 288.478 175.072C287.606 175.072 286.898 174.364 286.898 173.492C286.898 172.678 287.514 172.008 288.306 171.922Z" fill="#2F2D46"/>
<path d="M321.32 170.379H322.914V170.818C323.825 171.361 324.435 172.356 324.435 173.494C324.435 174.632 323.825 175.627 322.914 176.17V176.609H321.32C319.599 176.609 318.205 175.214 318.205 173.493C318.205 171.774 319.599 170.379 321.32 170.379Z" fill="#2F2D46"/>
<path d="M319.799 173.494C319.799 175.215 321.194 176.61 322.914 176.61C324.635 176.61 326.03 175.215 326.03 173.494C326.03 171.774 324.635 170.379 322.914 170.379C321.194 170.379 319.799 171.774 319.799 173.494Z" fill="#47436C"/>
<path d="M321.334 173.494C321.334 174.366 322.041 175.073 322.914 175.073C323.786 175.073 324.493 174.366 324.493 173.494C324.493 172.621 323.786 171.914 322.914 171.914C322.041 171.914 321.334 172.621 321.334 173.494Z" fill="#8D8EC4"/>
<path d="M322.742 171.922C322.563 172.097 322.433 172.322 322.371 172.565C322.282 172.921 322.333 173.306 322.496 173.634C322.699 174.044 323.078 174.364 323.516 174.497C323.696 174.551 323.884 174.572 324.072 174.564C323.783 174.875 323.372 175.072 322.914 175.072C322.041 175.072 321.334 174.364 321.334 173.492C321.334 172.678 321.95 172.008 322.742 171.922Z" fill="#69699A"/>
<path d="M311.037 170.379H312.631V170.818C313.542 171.361 314.153 172.356 314.153 173.494C314.153 174.632 313.542 175.627 312.631 176.17V176.609H311.037C309.317 176.609 307.922 175.214 307.922 173.493C307.922 171.774 309.317 170.379 311.037 170.379Z" fill="#2F2D46"/>
<path d="M309.516 173.494C309.516 175.215 310.911 176.61 312.631 176.61C314.352 176.61 315.747 175.215 315.747 173.494C315.747 171.774 314.352 170.379 312.631 170.379C310.911 170.379 309.516 171.774 309.516 173.494Z" fill="#2F2D46"/>
<path d="M311.052 173.494C311.052 174.366 311.759 175.073 312.631 175.073C313.504 175.073 314.211 174.366 314.211 173.494C314.211 172.621 313.504 171.914 312.631 171.914C311.759 171.914 311.052 172.621 311.052 173.494Z" fill="#2F2D46"/>
<path d="M312.459 171.922C312.28 172.097 312.15 172.322 312.088 172.565C311.998 172.921 312.05 173.306 312.213 173.634C312.417 174.044 312.795 174.364 313.234 174.497C313.413 174.551 313.602 174.572 313.789 174.564C313.501 174.875 313.089 175.072 312.631 175.072C311.759 175.072 311.052 174.364 311.052 173.492C311.052 172.678 311.668 172.008 312.459 171.922Z" fill="#2F2D46"/>
<path d="M320.279 108.91H290.898V172.604H320.279H324.235C329.783 172.604 334.28 168.107 334.28 162.56V118.955C334.28 113.408 329.783 108.911 324.235 108.911H320.279V108.91Z" fill="#834F4A"/>
<path d="M294.854 172.604H286.942C281.395 172.604 276.897 168.107 276.897 162.559V118.955C276.897 113.407 281.394 108.91 286.942 108.91H294.854C300.402 108.91 304.899 113.407 304.899 118.955V162.559C304.899 168.107 300.402 172.604 294.854 172.604Z" fill="#A9654B"/>
<path d="M332.899 127.973H310.009C311.742 127.973 313.148 129.378 313.148 131.112V142.538V162.298C313.148 164.031 311.742 165.437 310.009 165.437H332.899C334.632 165.437 336.038 164.031 336.038 162.298V142.538V131.112C336.038 129.378 334.633 127.973 332.899 127.973Z" fill="#634448"/>
<path d="M313.149 162.298V142.538V131.112C313.149 129.378 311.743 127.973 310.01 127.973V165.437C311.743 165.437 313.149 164.031 313.149 162.298Z" fill="#A9654B"/>
<path d="M290.296 108.91H288.79V172.604H290.296V108.91Z" fill="#634448"/>
<path d="M336.038 132.41H313.148V133.582H336.038V132.41Z" fill="#A9654B"/>
<path d="M334.28 120.734H310.009V121.906H334.28V120.734Z" fill="#A9654B"/>
<path d="M289.522 72.3741H292.222C292.222 71.2576 293.13 70.3488 294.247 70.3488H309.298C310.414 70.3488 311.323 71.2572 311.323 72.3741H314.023C314.023 69.7683 311.903 67.6484 309.298 67.6484H294.247C291.642 67.6484 289.522 69.7683 289.522 72.3741Z" fill="#2F2C49"/>
<path d="M313.517 72.375H311.829V108.912H313.517V72.375Z" fill="#464674"/>
<path d="M291.716 72.375H290.028V108.912H291.716V72.375Z" fill="#464674"/>
<path d="M290.534 72.3741H293.235C293.235 71.2576 294.143 70.3488 295.26 70.3488H310.31C311.427 70.3488 312.336 71.2572 312.336 72.3741H315.036C315.036 69.7683 312.916 67.6484 310.31 67.6484H295.26C292.654 67.6484 290.534 69.7683 290.534 72.3741Z" fill="#47436C"/>
<path d="M314.53 72.375H312.842V108.912H314.53V72.375Z" fill="#69699A"/>
<path d="M292.729 72.375H291.041V108.912H292.729V72.375Z" fill="#69699A"/>
<path d="M319.678 73.301L319.827 73.3068C322.237 67.596 319.939 60.8147 314.279 57.9593C314.05 57.844 313.82 57.7329 313.588 57.6255C313.546 57.6065 313.504 57.5874 313.463 57.5683C307.627 54.9207 300.858 57.4614 297.939 63.0167L298.072 63.1589C301.86 66.6631 315.285 73.5348 319.678 73.301Z" fill="#F2CD78"/>
<path d="M318.036 76.6541C318.412 75.9874 318.813 75.273 319.229 74.5321C319.454 74.1304 319.652 73.7208 319.827 73.3057L319.678 73.2999C315.285 73.5342 301.86 66.6625 298.072 63.1578L297.939 63.0156C297.744 63.3867 297.566 63.771 297.406 64.1686C297.037 65.0911 296.652 65.9937 296.257 66.8644C299.394 71.7 312.7 78.8125 318.036 76.6541Z" fill="#A4694A"/>
<path d="M318.036 76.653C312.7 78.811 299.393 71.6989 296.257 66.8633C289.347 65.8388 282.167 63.0514 276.503 58.9609C280.45 70.3257 288.952 80.0358 299.697 85.4485C310.441 90.8612 323.304 91.9147 334.785 88.3229C328.372 86.2516 322.322 81.8551 318.036 76.653Z" fill="#F2CD78"/>
<path d="M317.863 63.0506C317.65 65.3985 316.809 67.6374 315.977 69.8431C315.697 70.5831 315.338 71.4273 314.958 72.2988C316.903 72.9696 318.575 73.3589 319.678 73.3005L319.827 73.3063C321.643 69.0026 320.784 64.0921 317.829 60.7109C317.925 61.4871 317.933 62.2773 317.863 63.0506Z" fill="#E6A85D"/>
<path d="M314.957 72.2969C314.287 73.8326 313.549 75.4566 313.056 76.7605C315.008 77.1532 316.753 77.171 318.035 76.6523C318.412 75.9856 318.813 75.2713 319.229 74.5304C319.454 74.1286 319.652 73.719 319.827 73.304L319.678 73.2981C318.575 73.357 316.903 72.9677 314.957 72.2969Z" fill="#78413D"/>
<path d="M318.036 76.6542C316.753 77.1729 315.009 77.155 313.056 76.7624C313.389 77.5966 313.769 78.4225 314.199 79.2231C315.487 81.6208 313.604 84.5002 310.89 84.2908C305.388 83.8663 300.024 82.5735 295.022 80.0822C290.873 78.0158 287.04 75.3241 283.668 72.1445C287.948 77.6882 293.441 82.2987 299.697 85.4501C310.441 90.8628 323.304 91.9163 334.786 88.3245C328.371 86.2528 322.322 81.8563 318.036 76.6542Z" fill="#E6A85D"/>
<path d="M137.396 121.383H135.459V122.053C134.352 122.883 133.61 124.401 133.61 126.138C133.61 127.875 134.352 129.393 135.459 130.223V130.893H137.396C139.488 130.893 141.183 128.764 141.183 126.138C141.183 123.512 139.487 121.383 137.396 121.383Z" fill="#2F2D46"/>
<path d="M135.459 130.893C137.55 130.893 139.245 128.764 139.245 126.138C139.245 123.512 137.55 121.383 135.459 121.383C133.368 121.383 131.672 123.512 131.672 126.138C131.672 128.764 133.368 130.893 135.459 130.893Z" fill="#47436C"/>
<path d="M137.379 126.138C137.379 127.47 136.519 128.549 135.459 128.549C134.399 128.549 133.539 127.47 133.539 126.138C133.539 124.806 134.399 123.727 135.459 123.727C136.519 123.727 137.379 124.806 137.379 126.138Z" fill="#8D8EC4"/>
<path d="M135.668 123.742C135.885 124.01 136.044 124.353 136.118 124.724C136.227 125.266 136.165 125.855 135.967 126.356C135.719 126.982 135.26 127.47 134.726 127.672C134.508 127.755 134.279 127.787 134.052 127.775C134.402 128.25 134.902 128.55 135.459 128.55C136.52 128.55 137.379 127.47 137.379 126.138C137.379 124.896 136.63 123.874 135.668 123.742Z" fill="#69699A"/>
<path d="M137.397 152.641H135.459V153.311C134.352 154.141 133.61 155.659 133.61 157.396C133.61 159.133 134.352 160.651 135.459 161.481V162.15H137.397C139.488 162.15 141.183 160.021 141.183 157.395C141.183 154.769 139.487 152.641 137.397 152.641Z" fill="#2F2D46"/>
<path d="M135.459 162.151C137.55 162.151 139.245 160.022 139.245 157.396C139.245 154.77 137.55 152.641 135.459 152.641C133.368 152.641 131.673 154.77 131.673 157.396C131.673 160.022 133.368 162.151 135.459 162.151Z" fill="#47436C"/>
<path d="M135.459 159.807C136.519 159.807 137.379 158.727 137.379 157.396C137.379 156.064 136.519 154.984 135.459 154.984C134.398 154.984 133.539 156.064 133.539 157.396C133.539 158.727 134.398 159.807 135.459 159.807Z" fill="#8D8EC4"/>
<path d="M135.669 155C135.885 155.267 136.044 155.611 136.118 155.982C136.227 156.525 136.165 157.113 135.967 157.614C135.72 158.24 135.26 158.728 134.727 158.93C134.509 159.013 134.279 159.045 134.052 159.033C134.402 159.508 134.902 159.808 135.459 159.808C136.52 159.808 137.379 158.728 137.379 157.396C137.379 156.154 136.63 155.131 135.669 155Z" fill="#69699A"/>
<path d="M191.238 164.575V119.587C191.238 112.653 196.86 107.031 203.794 107.031H154.779H152.167H149.554C142.62 107.031 136.998 112.653 136.998 119.587V164.575C136.998 171.51 142.62 177.131 149.554 177.131H154.779C154.979 177.131 155.179 177.125 155.377 177.116H203.196C196.539 176.804 191.238 171.309 191.238 164.575Z" fill="#C82441"/>
<path d="M157.372 164.575V119.587C157.372 112.653 162.993 107.031 169.928 107.031H168.588C161.654 107.031 156.032 112.653 156.032 119.587V164.575C156.032 171.309 161.334 176.803 167.99 177.116H167.469C167.271 177.125 167.072 177.131 166.871 177.131H168.21C168.411 177.131 168.61 177.125 168.809 177.116H169.329C162.673 176.804 157.372 171.309 157.372 164.575Z" fill="#2F2C49"/>
<path d="M167.991 177.116C161.334 176.803 156.033 171.309 156.033 164.575V119.587C156.033 112.653 161.655 107.031 168.589 107.031H168.211H166.872H165.599H164.26H162.987H161.647C154.713 107.031 149.092 112.653 149.092 119.587V164.575C149.092 171.51 154.713 177.131 161.647 177.131H162.987H166.872C167.073 177.131 167.272 177.125 167.47 177.116H167.991Z" fill="#47436C"/>
<path d="M175.788 164.575V119.587C175.788 112.653 181.409 107.031 188.343 107.031H187.004C180.07 107.031 174.448 112.653 174.448 119.587V164.575C174.448 171.309 179.75 176.803 186.406 177.116H185.885C185.687 177.125 185.488 177.131 185.287 177.131H186.626C186.827 177.131 187.026 177.125 187.224 177.116H187.745C181.089 176.804 175.788 171.309 175.788 164.575Z" fill="#2F2C49"/>
<path d="M186.406 177.116C179.75 176.803 174.448 171.309 174.448 164.575V119.587C174.448 112.653 180.07 107.031 187.004 107.031H186.626H185.287H184.014H182.675H181.402H180.063C173.129 107.031 167.507 112.653 167.507 119.587V164.575C167.507 171.51 173.129 177.131 180.063 177.131H181.402H185.287C185.488 177.131 185.688 177.125 185.886 177.116H186.406Z" fill="#47436C"/>
<path d="M156.032 121.383H149.091V135.5H156.032V121.383Z" fill="#535384"/>
<path d="M174.448 121.383H167.506V135.5H174.448V121.383Z" fill="#535384"/>
<path d="M209.019 107.031H206.407H203.794C196.859 107.031 191.238 112.653 191.238 119.587V164.575C191.238 171.309 196.539 176.803 203.196 177.116C203.394 177.125 203.593 177.131 203.794 177.131H209.019C215.953 177.131 221.574 171.509 221.574 164.575V119.587C221.575 112.653 215.953 107.031 209.019 107.031Z" fill="#991840"/>
<path d="M207.97 107.031H206.125V177.106H207.97V107.031Z" fill="#2F2C49"/>
<path d="M188.87 107.03H186.196C186.196 105.925 185.297 105.025 184.191 105.025H169.291C168.186 105.025 167.286 105.924 167.286 107.03H164.613C164.613 104.45 166.712 102.352 169.291 102.352H184.191C186.771 102.352 188.87 104.45 188.87 107.03Z" fill="#2F2C49"/>
<path d="M187.867 107.03H185.194C185.194 105.925 184.295 105.025 183.189 105.025H168.289C167.183 105.025 166.284 105.924 166.284 107.03H163.61C163.61 104.45 165.709 102.352 168.289 102.352H183.189C185.768 102.352 187.867 104.45 187.867 107.03Z" fill="#47436C"/>
<path d="M167.506 144.455L167.506 142.87C167.454 142.872 167.402 142.875 167.349 142.877C166.174 142.93 164.998 142.983 163.822 143.038C163.772 143.041 163.758 143.024 163.758 142.973C163.757 142.901 163.756 142.83 163.748 142.759C163.741 142.699 163.763 142.659 163.81 142.641C163.909 142.602 164.008 142.56 164.11 142.535C164.463 142.446 164.822 142.403 165.182 142.367C165.352 142.35 165.523 142.336 165.699 142.32C165.645 141.133 165.591 139.953 165.537 138.768C165.46 138.755 165.384 138.746 165.308 138.727C164.181 138.459 163.428 137.727 163.043 136.539C163.026 136.486 163.035 136.452 163.07 136.412C163.407 136.027 163.741 135.641 164.077 135.256C164.104 135.226 164.109 135.202 164.093 135.161C164.011 134.943 163.932 134.724 163.852 134.505C163.846 134.489 163.841 134.473 163.833 134.447C164.159 134.358 164.48 134.269 164.814 134.177C164.633 133.964 164.46 133.759 164.28 133.545C164.505 133.442 164.724 133.342 164.949 133.239C164.809 132.937 164.673 132.642 164.533 132.338C164.56 132.335 164.578 132.331 164.596 132.33C165.566 132.286 166.536 132.241 167.506 132.197V129.582L159.282 129.957L160.15 148.981L167.506 148.645V144.46V144.455ZM162.295 132.433C162.443 132.429 162.591 132.421 162.739 132.414C163.053 132.4 163.367 132.386 163.68 132.371C163.71 132.37 163.734 132.371 163.75 132.407C163.853 132.635 163.96 132.863 164.064 133.091C164.069 133.101 164.072 133.112 164.078 133.129C163.831 133.242 163.585 133.354 163.331 133.47C163.497 133.665 163.657 133.854 163.826 134.053C163.537 134.132 163.258 134.209 162.972 134.287C162.981 134.314 162.987 134.337 162.996 134.36C163.089 134.614 163.182 134.869 163.277 135.123C163.291 135.162 163.289 135.187 163.261 135.219C162.993 135.524 162.728 135.831 162.462 136.137C162.453 136.148 162.442 136.157 162.432 136.167C162.427 136.166 162.421 136.165 162.416 136.164C162.403 136.028 162.386 135.892 162.379 135.756C162.331 134.724 162.284 133.691 162.237 132.659C162.234 132.607 162.238 132.554 162.233 132.503C162.227 132.447 162.25 132.435 162.295 132.433ZM162.073 145.358L162.66 145.332L162.678 145.723L162.091 145.75L162.113 146.242L161.639 146.263L161.569 144.726L162.712 144.673L162.73 145.064L162.061 145.095L162.073 145.358ZM165.484 146.088L165.377 145.824L164.842 145.849L164.76 146.121L164.278 146.143L163.775 146.166L163.519 145.79L163.39 145.796L163.408 146.182L162.934 146.204L162.864 144.666L163.541 144.636C163.933 144.618 164.193 144.83 164.209 145.186C164.219 145.408 164.13 145.579 163.965 145.682L164.28 146.139L164.823 144.577L165.29 144.556L165.975 146.066L165.484 146.088ZM166.761 146.065C166.307 146.085 165.96 145.769 165.939 145.296C165.917 144.824 166.234 144.477 166.698 144.456C166.975 144.443 167.203 144.539 167.355 144.723L167.065 145.029C166.971 144.922 166.866 144.869 166.741 144.875C166.532 144.884 166.406 145.038 166.417 145.275C166.427 145.505 166.567 145.653 166.77 145.644C166.828 145.641 166.884 145.628 166.941 145.599L166.924 145.21L167.336 145.191L167.365 145.841C167.201 145.976 166.969 146.056 166.761 146.065Z" fill="#C8E3FE"/>
<path d="M166.436 138.713C166.419 138.716 166.402 138.722 166.38 138.728C166.434 139.91 166.488 141.092 166.542 142.281C166.598 142.282 166.656 142.282 166.713 142.282C166.978 142.278 167.242 142.28 167.506 142.293V138.184C167.448 138.23 167.394 138.278 167.333 138.322C167.059 138.516 166.756 138.639 166.436 138.713Z" fill="#C8E3FE"/>
<path d="M163.529 145.036L163.356 145.043L163.372 145.404L163.545 145.396C163.676 145.39 163.735 145.319 163.73 145.207C163.724 145.095 163.659 145.03 163.529 145.036Z" fill="#C8E3FE"/>
<path d="M171.484 129.398L167.506 129.58V132.194C167.834 132.179 168.161 132.164 168.489 132.149C168.545 132.146 168.561 132.164 168.564 132.224C168.578 132.539 168.595 132.855 168.61 133.171C168.646 133.921 168.687 134.67 168.713 135.42C168.753 136.592 168.344 137.512 167.506 138.182V142.291C167.674 142.299 167.842 142.311 168.009 142.33C168.148 142.347 168.287 142.381 168.424 142.417C168.511 142.439 168.52 142.463 168.524 142.561C168.526 142.622 168.529 142.684 168.532 142.745C168.536 142.82 168.536 142.82 168.466 142.823C168.146 142.838 167.826 142.853 167.507 142.867V144.452L167.981 144.431L168.051 145.969L167.576 145.99L167.506 144.458V148.643L172.352 148.422L171.484 129.398ZM168.279 145.959L168.209 144.421L168.684 144.399L168.736 145.535L169.371 145.506L169.389 145.908L168.279 145.959ZM169.52 145.902L169.449 144.364L170.593 144.312L170.611 144.703L169.933 144.734L169.942 144.914L170.537 144.887L170.554 145.261L169.959 145.288L169.968 145.49L170.671 145.458L170.689 145.849L169.52 145.902Z" fill="white"/>
<path d="M159.648 149.582L158.728 129.402L167.506 129.002V128.133L157.895 128.571L158.894 150.485L167.506 150.092V149.223L159.648 149.582Z" fill="#C8E3FE"/>
<path d="M172.741 127.895L167.506 128.133V129.002L171.987 128.798L172.907 148.977L167.506 149.224V150.093L173.739 149.808L172.741 127.895Z" fill="white"/>
<path d="M164.956 145.467L165.229 145.454L165.075 145.074L164.956 145.467Z" fill="#C8E3FE"/>
<path d="M171.484 129.399L172.352 148.423L167.506 148.644V149.223L172.907 148.977L171.987 128.797L167.506 129.001V129.58L171.484 129.399Z" fill="#C82441"/>
<path d="M159.648 149.58L167.506 149.222V148.642L160.15 148.978L159.283 129.954L167.506 129.579V129L158.728 129.4L159.648 149.58Z" fill="#991840"/>
<path d="M164.533 132.337C164.674 132.641 164.81 132.937 164.949 133.238C164.724 133.341 164.505 133.442 164.28 133.544C164.461 133.758 164.634 133.963 164.815 134.176C164.48 134.268 164.159 134.357 163.834 134.447C163.842 134.472 163.846 134.488 163.852 134.504C163.932 134.723 164.011 134.942 164.094 135.16C164.109 135.201 164.104 135.225 164.077 135.256C163.742 135.64 163.407 136.027 163.071 136.411C163.036 136.451 163.027 136.485 163.044 136.538C163.429 137.726 164.181 138.458 165.309 138.727C165.384 138.744 165.461 138.754 165.538 138.767C165.592 139.953 165.645 141.133 165.7 142.319C165.523 142.335 165.353 142.349 165.183 142.366C164.823 142.402 164.463 142.446 164.111 142.534C164.009 142.56 163.909 142.602 163.81 142.64C163.763 142.659 163.742 142.698 163.748 142.758C163.756 142.829 163.758 142.901 163.758 142.972C163.759 143.023 163.773 143.04 163.823 143.037C164.998 142.982 166.174 142.929 167.35 142.876C167.402 142.873 167.454 142.871 167.507 142.869V142.292C167.243 142.28 166.978 142.278 166.714 142.281C166.656 142.282 166.599 142.281 166.543 142.281C166.489 141.091 166.435 139.909 166.381 138.727C166.402 138.721 166.419 138.716 166.437 138.712C166.757 138.639 167.06 138.515 167.334 138.321C167.396 138.278 167.449 138.229 167.507 138.183V132.195C166.537 132.24 165.568 132.285 164.598 132.329C164.579 132.331 164.56 132.334 164.533 132.337Z" fill="#991840"/>
<path d="M168.465 142.825C168.536 142.822 168.536 142.822 168.532 142.747C168.529 142.686 168.526 142.624 168.523 142.562C168.519 142.465 168.51 142.441 168.424 142.419C168.287 142.383 168.148 142.349 168.008 142.332C167.841 142.312 167.673 142.301 167.506 142.293V142.87C167.826 142.854 168.146 142.84 168.465 142.825Z" fill="white"/>
<path d="M168.713 135.419C168.687 134.67 168.646 133.921 168.61 133.171C168.595 132.855 168.578 132.539 168.564 132.223C168.561 132.164 168.545 132.146 168.489 132.149C168.161 132.164 167.834 132.179 167.506 132.194V138.182C168.344 137.512 168.753 136.592 168.713 135.419Z" fill="#C82441"/>
<path d="M162.379 135.757C162.385 135.893 162.403 136.028 162.415 136.164C162.421 136.165 162.426 136.166 162.432 136.168C162.442 136.158 162.452 136.148 162.461 136.137C162.728 135.831 162.993 135.524 163.26 135.219C163.288 135.188 163.291 135.162 163.276 135.123C163.181 134.869 163.088 134.614 162.995 134.36C162.987 134.337 162.98 134.315 162.971 134.288C163.258 134.209 163.537 134.132 163.825 134.053C163.657 133.854 163.496 133.665 163.331 133.47C163.585 133.354 163.831 133.242 164.078 133.129C164.071 133.112 164.069 133.101 164.064 133.091C163.959 132.863 163.853 132.635 163.749 132.407C163.733 132.371 163.71 132.37 163.68 132.371C163.366 132.386 163.053 132.4 162.739 132.415C162.591 132.421 162.443 132.429 162.295 132.434C162.249 132.435 162.226 132.448 162.232 132.503C162.237 132.555 162.234 132.607 162.236 132.659C162.284 133.691 162.33 134.724 162.379 135.757Z" fill="#991840"/>
<path d="M162.712 144.672L161.569 144.724L161.639 146.261L162.113 146.24L162.091 145.748L162.677 145.721L162.66 145.33L162.073 145.357L162.061 145.093L162.73 145.063L162.712 144.672Z" fill="#991840"/>
<path d="M163.965 145.68C164.129 145.578 164.218 145.406 164.208 145.184C164.192 144.829 163.932 144.616 163.541 144.634L162.863 144.665L162.933 146.202L163.407 146.181L163.39 145.794L163.518 145.789L163.775 146.164L164.277 146.141L164.279 146.137L163.965 145.68ZM163.545 145.395L163.372 145.403L163.355 145.043L163.528 145.035C163.659 145.029 163.724 145.094 163.729 145.206C163.735 145.318 163.675 145.389 163.545 145.395Z" fill="#991840"/>
<path d="M164.823 144.576L164.279 146.138L164.281 146.142H164.277L164.76 146.12L164.842 145.847L165.376 145.823L165.483 146.087L165.973 146.064L165.289 144.555L164.823 144.576ZM164.956 145.468L165.075 145.075L165.229 145.455L164.956 145.468Z" fill="#991840"/>
<path d="M164.279 146.137L164.278 146.141H164.282L164.279 146.137Z" fill="white"/>
<path d="M166.924 145.208L166.942 145.597C166.885 145.626 166.829 145.64 166.771 145.642C166.567 145.651 166.428 145.504 166.417 145.273C166.407 145.036 166.533 144.882 166.742 144.873C166.866 144.867 166.971 144.92 167.065 145.028L167.355 144.722C167.204 144.537 166.976 144.442 166.698 144.454C166.234 144.475 165.918 144.822 165.939 145.295C165.961 145.767 166.307 146.084 166.762 146.063C166.969 146.053 167.201 145.975 167.366 145.839L167.336 145.189L166.924 145.208Z" fill="#991840"/>
<path d="M167.576 145.993L168.05 145.971L167.98 144.434L167.506 144.455V144.46L167.576 145.993Z" fill="#C82441"/>
<path d="M167.506 144.459V144.453H167.506L167.506 144.459Z" fill="white"/>
<path d="M168.735 145.538L168.683 144.402L168.209 144.424L168.279 145.962L169.389 145.911L169.37 145.509L168.735 145.538Z" fill="#C82441"/>
<path d="M169.968 145.49L169.958 145.288L170.553 145.261L170.536 144.888L169.941 144.915L169.933 144.735L170.611 144.703L170.593 144.312L169.449 144.365L169.519 145.903L170.689 145.849L170.671 145.458L169.968 145.49Z" fill="#C82441"/>
</svg>
