<svg width="23" height="24" viewBox="0 0 23 24" fill="none" xmlns="http://www.w3.org/2000/svg">
<path d="M8.625 3.75C8.59505 4.82812 8.11589 5.65169 7.1875 6.2207C6.22917 6.75977 5.27083 6.75977 4.3125 6.2207C3.38411 5.65169 2.90495 4.82812 2.875 3.75C2.90495 2.67188 3.38411 1.84831 4.3125 1.2793C5.27083 0.740234 6.22917 0.740234 7.1875 1.2793C8.11589 1.84831 8.59505 2.67188 8.625 3.75ZM5.03125 10.2188C4.70182 10.2487 4.47721 10.4284 4.35742 10.7578L2.875 15.9688H6.46875V16.6875C6.46875 17.1966 6.55859 17.6758 6.73828 18.125H5.03125V22.7969C4.97135 23.4557 4.61198 23.8151 3.95312 23.875C3.29427 23.8151 2.9349 23.4557 2.875 22.7969V18.125H1.88672C1.40755 18.0951 1.0332 17.9004 0.763672 17.541C0.494141 17.1816 0.419271 16.7624 0.539062 16.2832L2.29102 10.1289C2.4707 9.5 2.8151 9.00586 3.32422 8.64648C3.80339 8.25716 4.3724 8.0625 5.03125 8.0625H6.46875C7.00781 8.0625 7.48698 8.19727 7.90625 8.4668C7.90625 8.55664 7.90625 8.66146 7.90625 8.78125C7.90625 9.29036 8.01107 9.76953 8.2207 10.2188H5.03125H5.75H5.03125ZM15.0938 8.78125C15.0938 8.66146 15.0938 8.55664 15.0938 8.4668C15.513 8.19727 15.9922 8.0625 16.5312 8.0625H17.9688C18.6276 8.0625 19.1966 8.25716 19.6758 8.64648C20.1849 9.00586 20.5293 9.5 20.709 10.1289L22.4609 16.2832C22.5807 16.7624 22.5059 17.1816 22.2363 17.541C21.9668 17.9004 21.5924 18.0951 21.1133 18.125H20.125V22.7969C20.0651 23.4557 19.7057 23.8151 19.0469 23.875C18.388 23.8151 18.0286 23.4557 17.9688 22.7969V18.125H16.3066C16.4564 17.6758 16.5312 17.1966 16.5312 16.6875V15.9688H20.125L18.6426 10.7578C18.5228 10.4284 18.2982 10.2487 17.9688 10.2188H16.5312H14.7793C14.9889 9.76953 15.0938 9.29036 15.0938 8.78125ZM20.125 3.75C20.0951 4.82812 19.6159 5.65169 18.6875 6.2207C17.7292 6.75977 16.7708 6.75977 15.8125 6.2207C14.8841 5.65169 14.4049 4.82812 14.375 3.75C14.4049 2.67188 14.8841 1.84831 15.8125 1.2793C16.7708 0.740234 17.7292 0.740234 18.6875 1.2793C19.6159 1.84831 20.0951 2.67188 20.125 3.75ZM11.5 10.9375C10.6914 10.9076 10.0625 10.5482 9.61328 9.85938C9.25391 9.14062 9.25391 8.42188 9.61328 7.70312C10.0625 7.01432 10.6914 6.65495 11.5 6.625C12.3086 6.65495 12.9375 7.01432 13.3867 7.70312C13.7461 8.42188 13.7461 9.14062 13.3867 9.85938C12.9375 10.5482 12.3086 10.9076 11.5 10.9375ZM12.9375 15.9688C12.9375 15.5495 12.8027 15.2051 12.5332 14.9355C12.2637 14.666 11.9193 14.5312 11.5 14.5312C11.0807 14.5312 10.7363 14.666 10.4668 14.9355C10.1973 15.2051 10.0625 15.5495 10.0625 15.9688V16.6875C10.0924 17.1367 10.332 17.3763 10.7812 17.4062H11.5H12.2188C12.668 17.3763 12.9076 17.1367 12.9375 16.6875V15.9688V16.6875V15.9688ZM15.0938 16.6875C15.0339 17.8255 14.5397 18.6641 13.6113 19.2031C13.6413 19.3229 13.6562 19.4427 13.6562 19.5625V22.4375C13.6562 22.8568 13.5215 23.2012 13.252 23.4707C12.9824 23.7402 12.638 23.875 12.2188 23.875H10.7812C10.362 23.875 10.0176 23.7402 9.74805 23.4707C9.47852 23.2012 9.34375 22.8568 9.34375 22.4375V19.5625C9.34375 19.4427 9.35872 19.3229 9.38867 19.2031C8.46029 18.6641 7.96615 17.8255 7.90625 16.6875V15.9688C7.9362 14.9505 8.2806 14.097 8.93945 13.4082C9.62826 12.7493 10.4818 12.4049 11.5 12.375C12.5182 12.4049 13.3717 12.7493 14.0605 13.4082C14.7194 14.097 15.0638 14.9505 15.0938 15.9688V16.6875V15.9688V16.6875Z" fill="#FF6690"/>
</svg>
